<svg xmlns="http://www.w3.org/2000/svg"><defs><font id="DBHeadRegular" horiz-adv-x="1229" vert-adv-y="2048"><font-face units-per-em="2048" ascent="1597" descent="-451"/><glyph horiz-adv-x="0" vert-adv-y="0"/><glyph horiz-adv-x="492" vert-adv-y="2458"/><glyph horiz-adv-x="492" vert-adv-y="2458"/><glyph unicode="!" horiz-adv-x="664" vert-adv-y="2458" d="M438 1489L385 449H262l-53 1040h229zM323 258q63 0 104-43 38-39 38-99 0-59-38-99-40-42-103-42-64 0-104 42-38 40-38 101 0 59 38 97 41 43 103 43z"/><glyph unicode="&quot;" horiz-adv-x="840" vert-adv-y="2458" d="M700 1489l-43-537H538l-43 537h205zm-356 0l-43-537H182l-43 537h205z"/><glyph unicode="#" vert-adv-y="2458" d="M188 885v166h227l86 454h146l-86-454h217l86 454h145l-86-454h195V885H893l-48-248h197V471H815L727 0H581l88 471H452L364 0H221l88 471H112v166h228l45 248H188zm342 0l-47-248h217l47 248H530z"/><glyph unicode="$" horiz-adv-x="1096" vert-adv-y="2458" d="M934 1276q-142 67-244 86l-73-534q148-78 224-138 171-134 171-318 0-147-93-250Q783-29 502-31l-37-270H326l37 281Q216 1 78 68v174q159-87 305-111l78 570q-151 83-220 145-138 123-138 296 0 209 184 314 119 69 285 70l22 160h139l-22-170q123-23 223-68v-172zM522 123q123 8 187 45 106 60 106 193 0 107-97 186-41 32-128 82zm29 1252q-102-7-155-35-107-57-107-178 0-105 79-180 38-37 120-85z"/><glyph unicode="%" horiz-adv-x="1540" vert-adv-y="2458" d="M389 1518q158 0 241-109 73-94 73-262 0-186-89-282-83-89-225-89-157 0-240 109-73 94-73 266 0 182 89 278 82 89 224 89zm146-391v40q0 128-35 181-34 51-111 51-83 0-116-62-29-54-29-170v-40q0-128 35-181 34-51 110-51 84 0 117 61 29 54 29 171zM142 0l1110 1485h147L289 0H142zm1009 715q157 0 241-109 73-94 73-262 0-186-89-282-83-89-225-89-156 0-240 109-73 94-73 266 0 182 89 278 83 89 224 89zm146-391v41q0 127-35 180-34 51-111 51-83 0-116-61-29-54-29-170v-41q0-128 35-181 34-51 110-51 84 0 117 61 29 54 29 171z"/><glyph unicode="&amp;" horiz-adv-x="1475" vert-adv-y="2458" d="M997 123Q799-31 567-31 340-31 213 84 90 196 90 405q0 192 129 314 75 71 219 135-139 183-139 337 0 135 91 228 101 105 272 105 158 0 260-93 100-91 100-233 0-150-120-259-66-60-187-120l315-411q33 56 66 128l143 312h180l-227-479q-22-47-58-99 60-74 87-96 45-37 100-37 40 0 100 19V2q-65-33-135-33-108 0-188 57-46 32-101 97zM524 750q-111-61-159-122-64-81-64-219 0-142 73-211 75-69 216-69 167 0 311 119zm109 172q9 5 18 11 52 32 85 63 83 81 83 196 0 85-41 135-42 50-118 50-82 0-124-56-34-45-34-120 0-86 52-174 20-33 43-64 34-42 36-41z"/><glyph unicode="'" horiz-adv-x="483" vert-adv-y="2458" d="M344 1489l-43-537H182l-43 537h205z"/><glyph unicode="(" horiz-adv-x="860" vert-adv-y="2458" d="M768-332H610Q422-156 320 35q-86 159-119 332-21 107-21 255 0 203 46 361 96 324 384 594h158q-190-197-280-394-67-147-93-306-16-100-16-255 0-209 37-357 50-195 163-368 69-105 189-229z"/><glyph unicode=")" horiz-adv-x="860" vert-adv-y="2458" d="M92 1577h158q188-177 290-367 85-159 119-332 21-107 21-256 0-202-47-360-95-324-383-594H92Q282-135 372 62q67 146 93 306 16 101 16 254 0 210-37 358-50 196-163 369-69 104-189 228z"/><glyph unicode="*" horiz-adv-x="801" vert-adv-y="2458" d="M318 811l55 293-221-193-86 148 260 92-256 90 86 148 215-187-53 287h170l-53-287 211 187 86-148-256-90 260-92-86-148-215 193 53-293H318z"/><glyph unicode="+" vert-adv-y="2458" d="M150 611v147h381v422h168V758h381V611H699V190H531v421H150z"/><glyph unicode="," horiz-adv-x="614" vert-adv-y="2458" d="M345-2q-25-1-37-1-55 0-89 22-49 33-49 97 0 59 41 97 38 35 97 35 87 0 134-68 40-58 40-142 0-144-105-240-84-78-217-92v84q96 25 143 90 31 44 42 118z"/><glyph unicode="-" horiz-adv-x="614" vert-adv-y="2458" d="M56 604v154h502V604H56z"/><glyph unicode="." horiz-adv-x="614" vert-adv-y="2458" d="M307 258q63 0 104-43 38-39 38-99 0-59-38-99-40-42-103-42-64 0-104 42-38 40-38 101 0 59 38 97 41 43 103 43z"/><glyph unicode="/" horiz-adv-x="893" vert-adv-y="2458" d="M-90-332l803 1909h174L84-332H-90z"/><glyph unicode="0" horiz-adv-x="1356" vert-adv-y="2458" d="M127 665v163q0 340 128 507 145 189 423 189t423-189q128-167 128-507V665q0-339-128-507Q956-31 678-31T255 158Q127 326 127 665zm891-25v213q0 241-58 367-74 159-282 159t-282-159q-58-126-58-367V640q0-241 58-367 74-159 282-159t282 159q58 126 58 367z"/><glyph unicode="1" horiz-adv-x="928" vert-adv-y="2458" d="M117 0v129h288v1172L92 1192v135l424 172h88V129h268V0H117z"/><glyph unicode="2" horiz-adv-x="1069" vert-adv-y="2458" d="M33 0v117q359 323 485 468 148 169 187 292 29 90 29 203 0 288-263 288-205 0-407-151v172q187 137 419 137 225 0 345-119 115-113 115-331 0-216-140-404-109-144-336-352-55-49-186-166h686L949 0H33z"/><glyph unicode="3" horiz-adv-x="1092" vert-adv-y="2458" d="M45-29v162q258 11 411 53 148 41 227 114 55 49 74 111 15 47 15 121 0 205-224 205-74 0-243-32v145q145 29 202 49 119 42 168 119 37 59 37 158 0 97-52 141-58 49-182 49-173 0-380-110v167q205 103 396 103 423 0 423-343 0-152-87-237-53-53-163-100 135-20 207-79 103-86 103-242 0-339-414-476Q396-6 187-21q-58-4-142-8z"/><glyph unicode="4" horiz-adv-x="1262" vert-adv-y="2458" d="M985 0H790v330H53v100l682 1059h199L282 469h508v473l195 27V469h219V330H985V0z"/><glyph unicode="5" horiz-adv-x="1040" vert-adv-y="2458" d="M926 1489l-18-152H371l-55-422q95 27 174 27 107 0 198-36 234-92 234-371 0-158-65-262Q740 87 438 13 307-19 70-31v164q323 13 471 90 117 61 155 157 25 63 25 154 0 139-80 194-84 58-240 58-115 0-265-39l96 742h694z"/><glyph unicode="6" horiz-adv-x="1264" vert-adv-y="2458" d="M336 768q66 49 121 73 110 50 244 50 217 0 334-117 116-115 116-321 0-226-136-358Q885-31 660-31q-263 0-404 178-131 166-131 494 0 278 97 461 135 253 438 358 135 46 350 64v-164q-162-13-251-39-264-75-367-294-40-85-56-259zm0-135v-25q0-233 63-349 77-143 260-143 173 0 238 114 43 74 43 216 0 163-60 228-66 72-219 72-177 0-325-113z"/><glyph unicode="7" horiz-adv-x="1143" vert-adv-y="2458" d="M197 0l673 1335H84l12 154h963v-117L403 0H197z"/><glyph unicode="8" horiz-adv-x="1272" vert-adv-y="2458" d="M438 782q-106 57-165 114-105 103-105 253 0 179 134 281 127 96 343 96 212 0 330-84 129-92 129-275 0-230-262-374 151-72 213-136 98-100 98-253 0-217-162-334Q853-31 638-31 382-31 240 96 119 204 119 384q0 183 146 300 63 51 173 98zm132-61l-46-23Q324 590 324 386q0-137 93-206 88-66 227-66 121 0 199 53 103 69 103 213 0 100-55 160-49 54-159 109-41 20-162 72zm147 129q7 5 16 11 45 31 78 64 88 91 88 226 0 230-264 230-130 0-202-62-62-54-62-152 0-95 58-155 50-50 178-112 32-15 110-50z"/><glyph unicode="9" horiz-adv-x="1264" vert-adv-y="2458" d="M928 725Q761 602 562 602q-216 0-333 117-116 115-116 321 0 226 136 358 130 126 355 126 263 0 404-178 131-166 131-493 0-278-102-461Q897 138 579 33 438-13 213-31v164q171 13 266 39 280 75 389 294 42 85 60 259zm0 135v25q0 233-63 349-77 143-260 143-173 0-238-114-43-74-43-216 0-163 60-228 66-72 219-72 177 0 325 113z"/><glyph unicode=":" horiz-adv-x="614" vert-adv-y="2458" d="M307 258q63 0 104-43 38-39 38-99 0-59-38-99-40-42-103-42-64 0-104 42-38 40-38 101 0 59 38 97 41 43 103 43zm0 705q63 0 104-42 38-40 38-99 0-60-38-99-41-43-103-43-64 0-104 43-38 39-38 100 0 59 38 98 41 42 103 42z"/><glyph unicode=";" horiz-adv-x="614" vert-adv-y="2458" d="M333 963q63 0 104-42 38-39 38-99t-38-99q-41-43-103-43-63 0-104 43-38 39-38 100 0 59 38 98 42 42 103 42zM365-2q-25-1-37-1-55 0-89 22-49 33-49 97 0 59 41 97 38 35 97 35 87 0 134-68 40-58 40-142 0-144-105-240-84-78-217-92v84q96 25 143 90 31 44 42 118z"/><glyph unicode="&lt;" vert-adv-y="2458" d="M1054 246L151 592v182l903 348V952L305 684l749-268V246z"/><glyph unicode="=" vert-adv-y="2458" d="M150 775v147h930V775H150zm0-327v147h930V448H150z"/><glyph unicode="&gt;" vert-adv-y="2458" d="M174 246v170l749 268-749 268v170l903-346V594z"/><glyph unicode="?" horiz-adv-x="872" vert-adv-y="2458" d="M424 449H252v164q0 72 51 135 37 45 131 123 115 93 145 141 44 70 44 165 0 189-210 189-102 0-197-33-52-18-138-63v172q180 82 349 82 223 0 325-116 78-89 78-239 0-138-79-233-51-61-174-166-80-67-108-95-45-47-45-89V449zm-85-191q62 0 103-43 38-39 38-99 0-59-38-99-40-42-103-42-64 0-104 42-38 40-38 101 0 59 38 97 41 43 104 43z"/><glyph unicode="@" horiz-adv-x="1731" vert-adv-y="2458" d="M982 265Q864 111 710 111q-104 0-158 71t-54 195q0 172 67 346 77 199 284 199 122 0 227-82l47 80h121l-85-542q-6-36-6-54 0-80 86-80 130 0 202 128 67 120 67 299 0 240-143 383-161 161-441 161-299 0-486-188-206-207-206-570 0-315 176-474 155-140 430-140 284 0 588 151v-129q-121-64-222-94-171-51-359-51-365 0-578 211Q70 126 70 450q0 271 123 484 108 186 292 292 196 112 447 112 352 0 555-204 175-176 175-454 0-294-161-444-118-109-288-109-183 0-231 138zm59 493q-80 49-159 49-69 0-107-45-42-49-75-225-23-118-23-177 0-134 98-134 104 0 200 139z"/><glyph unicode="A" horiz-adv-x="1358" vert-adv-y="2458" d="M1319 0h-217L938 444H395L229 0H39l584 1497h121zM883 598l-213 584-217-584h430z"/><glyph unicode="B" horiz-adv-x="1339" vert-adv-y="2458" d="M190 0v1489h507q208 0 320-90 122-97 122-279 0-149-87-229-53-50-161-89 98-17 156-49 178-100 178-330 0-237-171-341Q918 0 707 0H190zm199 150h254q129 0 195 20 86 26 130 86 46 63 46 178 0 158-90 225-79 59-224 59H389V150zm0 718h285q137 0 198 63 58 60 58 184 0 120-56 170-61 54-189 54H389V868z"/><glyph unicode="C" horiz-adv-x="1286" vert-adv-y="2458" d="M1155 1460v-172q-187 82-368 82-241 0-362-150-118-147-118-480 0-216 48-341 106-276 429-276 187 0 391 96V53Q994-31 781-31q-331 0-512 203-96 108-137 254-36 133-36 313 0 239 65 394 92 219 291 320 140 71 337 71 196 0 366-64z"/><glyph unicode="D" horiz-adv-x="1452" vert-adv-y="2458" d="M190 0v1489h525q282 0 449-164 190-185 190-573 0-392-191-582Q992 0 707 0H190zm199 150h303q193 0 306 108 82 79 117 215 28 105 28 271 0 340-129 477-112 118-322 118H389V150z"/><glyph unicode="E" horiz-adv-x="1227" vert-adv-y="2458" d="M190 0v1489h872v-150H389V838h534V688H389V150h737L1107 0H190z"/><glyph unicode="F" horiz-adv-x="1206" vert-adv-y="2458" d="M190 0v1489h895v-150H389V815h583V665H389V0H190z"/><glyph unicode="G" horiz-adv-x="1407" vert-adv-y="2458" d="M1212 1458v-170q-204 82-391 82-254 0-388-159-126-150-126-473 0-206 46-327 109-288 462-288 131 0 266 39v407H813v150h467V70Q1034-31 808-31q-379 0-566 238Q96 394 96 738q0 280 104 460 85 148 232 232 163 94 390 94 210 0 390-66z"/><glyph unicode="H" horiz-adv-x="1532" vert-adv-y="2458" d="M190 0v1489h199V838h753v651h199V0h-199v688H389V0H190z"/><glyph unicode="I" horiz-adv-x="580" vert-adv-y="2458" d="M190 0v1489h199V0H190z"/><glyph unicode="J" horiz-adv-x="580" vert-adv-y="2458" d="M-23-432v147q110 22 156 67 39 37 51 102 6 32 6 98v1507h199V-18q0-207-115-309-74-65-197-90-39-8-100-15z"/><glyph unicode="K" horiz-adv-x="1321" vert-adv-y="2458" d="M190 0v1489h199V788l631 701h217L569 762 1298 0h-247L389 692V0H190z"/><glyph unicode="L" horiz-adv-x="1157" vert-adv-y="2458" d="M190 0v1489h199V150h692L1063 0H190z"/><glyph unicode="M" horiz-adv-x="1808" vert-adv-y="2458" d="M180 0l31 1489h245L913 434l461 1055h244V0h-199v1198L948 154H825L385 1178 362 0H180z"/><glyph unicode="N" horiz-adv-x="1552" vert-adv-y="2458" d="M190 0v1489h174l813-1108v1108h184V0h-133L374 1161V0H190z"/><glyph unicode="O" horiz-adv-x="1518" vert-adv-y="2458" d="M758 1524q334 0 510-225 81-104 117-237 36-132 36-315 0-246-65-401-84-201-260-299-141-78-338-78-332 0-509 225-81 104-117 237-36 132-36 325 0 378 181 577 174 191 481 191zm0-147q-234 0-350-175-101-151-101-447 0-221 43-344 102-295 408-295 234 0 351 175 101 150 101 456 0 330-119 481-118 149-333 149z"/><glyph unicode="P" horiz-adv-x="1260" vert-adv-y="2458" d="M190 0v1489h499q220 0 333-83 147-108 147-342 0-440-512-440-147 0-268 15V0H190zm199 786q116-13 256-13 165 0 241 71 44 42 61 101 11 42 11 114 0 106-26 161-57 119-249 119H389V786z"/><glyph unicode="Q" horiz-adv-x="1518" vert-adv-y="2458" d="M1296-405q-168 9-243 23-168 29-257 97-92 71-125 187-6 24-18 74Q469-1 341 102 206 209 145 388 96 530 96 747q0 246 65 400 84 201 260 299 141 78 337 78 333 0 510-225 81-104 117-236 36-133 36-316 0-300-105-481Q1170 14 864-24q17-74 32-101 33-59 102-89 84-37 298-48v-143zM758 1377q-234 0-350-175-101-151-101-447 0-220 43-344 102-294 408-294 234 0 351 175 101 150 101 455 0 330-119 481-118 149-333 149z"/><glyph unicode="R" horiz-adv-x="1325" vert-adv-y="2458" d="M190 0v1489h508q455 0 455-405 0-172-98-271-62-63-151-94-34-12-101-26 80-44 147-144L1319 0h-227L758 498q-70 105-121 136-49 30-148 30H389V0H190zm199 813h283q149 0 216 73 29 33 41 73 13 43 13 120 0 144-67 207-57 53-211 53H389V813z"/><glyph unicode="S" horiz-adv-x="1049" vert-adv-y="2458" d="M63 72v174q90-50 157-75 126-46 258-46 148 0 228 61 79 61 79 173t-93 190q-49 41-229 143-177 101-244 168-115 115-115 280 0 192 144 300 113 84 308 84 176 0 349-74v-170q-70 33-116 50-114 40-236 40-267 0-267-212 0-84 45-145 45-63 218-157 167-92 207-120 121-83 174-175 49-84 49-188 0-124-67-221Q786-29 482-29 274-29 63 72z"/><glyph unicode="T" horiz-adv-x="1227" vert-adv-y="2458" d="M1158 1489v-150H711V0H512v1339H66l12 150h1080z"/><glyph unicode="U" horiz-adv-x="1479" vert-adv-y="2458" d="M156 1489h211V559q0-204 75-308 88-122 318-122 226 0 316 132 72 106 72 302v926h184V567q0-598-574-598-379 0-523 244-79 134-79 346v930z"/><glyph unicode="V" horiz-adv-x="1335" vert-adv-y="2458" d="M1296 1489L725-10H602L39 1489h209L678 299l430 1190h188z"/><glyph unicode="W" horiz-adv-x="1933" vert-adv-y="2458" d="M569-10L53 1489h209L657 305l209 567-252 617h205l156-403 155 403h187l-244-586 225-598 391 1184h191L1353-10h-124L964 684 694-10H569z"/><glyph unicode="X" horiz-adv-x="1341" vert-adv-y="2458" d="M55 0l496 772-459 717h227l369-580 352 580h199L792 768 1286 0h-227L655 629 256 0H55z"/><glyph unicode="Y" horiz-adv-x="1270" vert-adv-y="2458" d="M1237 1489L752 580V0H553v573L33 1489h219l414-739 373 739h198z"/><glyph unicode="Z" horiz-adv-x="1249" vert-adv-y="2458" d="M74 0v113l837 1226H125l15 150h1017v-113L320 150h841L1147 0H74z"/><glyph unicode="[" horiz-adv-x="860" vert-adv-y="2458" d="M243-332v1909h524v-131H431V-201h336v-131H243z"/><glyph unicode="\" horiz-adv-x="893" vert-adv-y="2458" d="M983-332H809L6 1577h174z"/><glyph unicode="]" horiz-adv-x="860" vert-adv-y="2458" d="M93-332v131h336v1647H93v131h524V-332H93z"/><glyph unicode="^" vert-adv-y="2458" d="M174 877l352 612h197l332-612H887l-262 454-283-454H174z"/><glyph unicode="_" horiz-adv-x="614" vert-adv-y="2458" d="M-88-389v145h791v-145H-88z"/><glyph unicode="`" horiz-adv-x="1024" vert-adv-y="2458" d="M619 1200H449l-199 348h221z"/><glyph unicode="a" horiz-adv-x="1053" vert-adv-y="2458" d="M719 141Q556-33 372-33q-147 0-226 86-70 77-70 214 0 139 73 209 64 63 200 92 99 20 362 38v93q0 114-41 168-46 62-165 62-153 0-363-93v153q185 90 372 90 194 0 288-88 99-93 99-294V0H774zm-8 119v229q-22-1-116-8-190-13-262-58-67-42-67-149 0-93 39-131 37-37 116-37 150 0 290 154z"/><glyph unicode="b" horiz-adv-x="1196" vert-adv-y="2458" d="M162 0v1497q100 5 157 51h33V911q95 79 153 111 106 58 224 58 181 0 283-155 92-138 92-388 0-310-152-461Q842-33 685-33q-174 0-362 146L285 0H162zm190 207q63-40 103-57 86-38 183-38 137 0 201 104 58 93 58 308 0 207-47 292-58 106-188 106-96 0-192-52-31-17-118-71V207z"/><glyph unicode="c" horiz-adv-x="981" vert-adv-y="2458" d="M905 209V51Q736-33 583-33 92-33 92 528q0 288 139 425 128 127 353 127 141 0 301-60V850q-85 37-124 49-86 29-179 29-158 0-223-82-64-81-64-322 0-251 73-332 69-75 221-75 103 0 191 36 38 15 125 56z"/><glyph unicode="d" horiz-adv-x="1192" vert-adv-y="2458" d="M1032 0H907l-49 141Q773 68 712 33 598-33 474-33q-184 0-289 155-93 139-93 388 0 280 108 421 114 148 308 148 165 0 334-124v542q103 5 159 51h31V0zM842 238v587q-63 40-102 58-86 38-185 38-132 0-195-88-63-87-63-320 0-170 31-250 58-151 207-151 93 0 188 50 43 22 119 76z"/><glyph unicode="e" horiz-adv-x="1079" vert-adv-y="2458" d="M995 488H295q-1-167 47-254 64-117 263-117 109 0 214 39 43 16 129 55V53Q767-33 599-33q-252 0-384 148Q92 251 92 522q0 288 135 428 125 129 334 129 231 0 341-152 93-129 93-353v-86zM790 627q-7 137-37 204-50 113-194 113-164 0-228-140-27-59-36-177h495z"/><glyph unicode="f" horiz-adv-x="696" vert-adv-y="2458" d="M53 924v137h160v80q0 150 57 247 95 162 319 162h107v-151q-43 8-77 8-216 0-216-249v-97h258V924H403V0H213v924H53z"/><glyph unicode="g" horiz-adv-x="1044" vert-adv-y="2458" d="M339 373q-49-57-49-106 0-88 143-88h172q203 0 298-52 122-68 122-239 0-146-95-222-128-102-414-102-243 0-362 70Q35-295 35-171 35-27 216 72q-90 51-90 141 0 105 120 207-133 101-133 290 0 164 97 260 110 109 317 109 82 0 154-18h360V956h-39q-79 0-135-25 55-87 55-213 0-181-109-279-104-92-294-92-105 0-180 26zM312 35q-95-83-95-188 0-71 59-104 74-42 246-42 195 0 275 57 56 39 56 124 0 92-70 121-49 20-148 20H439q-68 0-127 12zm207 912q-110 0-167-60-49-52-49-168 0-103 29-152 49-85 189-85 133 0 182 85 28 50 28 148 0 126-47 177-51 55-165 55z"/><glyph unicode="h" horiz-adv-x="1182" vert-adv-y="2458" d="M162 0v1497q100 5 157 51h33V911q92 74 159 109 110 59 229 59 160 0 235-114 55-82 55-213V0H840v738q0 183-165 183-89 0-181-43-45-21-142-79V0H162z"/><glyph unicode="i" horiz-adv-x="514" vert-adv-y="2458" d="M162 0v1034q100 5 157 51h33V0H162zm96 1493q56 0 92-37 33-35 33-88t-33-88q-36-37-92-37t-92 37q-33 35-33 90 0 52 33 86 37 37 92 37z"/><glyph unicode="j" horiz-adv-x="514" vert-adv-y="2458" d="M-31-436v145q193 44 193 266v1059q100 5 157 51h33V2q0-393-383-438zm289 1929q56 0 92-37 33-35 33-88t-33-88q-36-37-92-37t-92 37q-33 35-33 90 0 52 33 86 37 37 92 37z"/><glyph unicode="k" horiz-adv-x="1071" vert-adv-y="2458" d="M162 0v1497q100 5 157 51h33V516l436 545h213L637 641 1042 0H833L514 498 352 311V0H162z"/><glyph unicode="l" horiz-adv-x="526" vert-adv-y="2458" d="M168 0v1497q105 5 159 51h31V0H168z"/><glyph unicode="m" horiz-adv-x="1761" vert-adv-y="2458" d="M162 0v1034q100 5 157 51h33V916q83 68 138 100 105 63 223 63 123 0 187-80 26-34 48-96 91 72 159 109 121 67 239 67 136 0 205-99 59-83 59-228V0h-190v748q0 174-138 174-85 0-165-37-44-20-136-76V0H791v735q0 91-29 135-34 52-112 52-90 0-179-44-37-19-119-69V0H162z"/><glyph unicode="n" horiz-adv-x="1182" vert-adv-y="2458" d="M162 0v1034q100 5 157 51h33V911q91 74 159 110 109 58 229 58 160 0 236-114 54-81 54-213V0H840v726q0 196-165 196-93 0-191-48-42-21-132-75V0H162z"/><glyph unicode="o" horiz-adv-x="1161" vert-adv-y="2458" d="M580 1079q489 0 489-556 0-555-489-555Q92-32 92 530q0 272 123 409 126 140 365 140zm0-135q-163 0-230-112-53-91-53-304 0-242 65-331 70-94 218-94 164 0 231 112 53 90 53 308 0 239-65 327-70 94-219 94z"/><glyph unicode="p" horiz-adv-x="1196" vert-adv-y="2458" d="M162-414v1448q100 5 157 51h33V911q94 78 153 111 104 57 225 57 189 0 292-170 82-135 82-371 0-270-113-417Q874-33 684-33 522-33 352 90v-504H162zm190 621q67-42 111-61 82-34 175-34 138 0 204 109 55 90 55 316 0 232-70 315-59 70-164 70-92 0-181-46-31-16-130-77V207z"/><glyph unicode="q" horiz-adv-x="1194" vert-adv-y="2458" d="M842 127Q759 57 695 23 589-33 473-33q-191 0-296 170-85 135-85 378 0 275 110 418 113 146 305 146 177 0 353-139l47 121h125V-414H842v541zm0 111v587q-66 42-108 60-83 36-179 36-119 0-183-71-75-84-75-324 0-234 63-325 63-89 172-89 92 0 181 45 47 23 129 81z"/><glyph unicode="r" horiz-adv-x="739" vert-adv-y="2458" d="M162 0v1034q100 5 157 51h33V904q95 81 179 124 80 40 172 51V894q-207-19-351-90V0H162z"/><glyph unicode="s" horiz-adv-x="903" vert-adv-y="2458" d="M98 49v158q70-36 123-54 92-31 199-31 105 0 158 30 59 33 59 114 0 55-31 89-34 38-174 91-175 66-238 124-86 79-86 211 0 140 95 218 92 76 266 76 132 0 291-59V846q-170 77-292 77-192 0-192-128 0-72 50-109 42-31 173-80 154-58 204-96 112-85 112-228 0-147-105-229-97-78-276-78-174 0-336 74z"/><glyph unicode="t" horiz-adv-x="764" vert-adv-y="2458" d="M721 10q-88-33-176-33-193 0-274 112-60 84-60 239v596H53v137h39q68 0 99 21 41 27 63 106l29 102h118v-229h291V924H401V301q0-102 47-144 41-37 128-37 58 0 145 27V10z"/><glyph unicode="u" horiz-adv-x="1163" vert-adv-y="2458" d="M828 150Q753 77 693 40 576-33 443-33 280-33 204 86q-52 82-52 240v725l190 12V321q0-98 28-143 40-64 135-64t188 52q48 27 119 80v805l190 12V0H877z"/><glyph unicode="v" horiz-adv-x="1044" vert-adv-y="2458" d="M1026 1061L585-10H471L18 1061h205l311-766 307 766h185z"/><glyph unicode="w" horiz-adv-x="1542" vert-adv-y="2458" d="M367-10L31 1061h203l221-770 258 780h149l250-780 228 770h172L1178-10h-154L776 780 508-10H367z"/><glyph unicode="x" horiz-adv-x="1087" vert-adv-y="2458" d="M53 0l375 547-352 514h217l256-379 256 379h188L651 563 1034 0H817L532 426 241 0H53z"/><glyph unicode="y" horiz-adv-x="1044" vert-adv-y="2458" d="M198-414l240 531-420 944h205l313-723 305 723h185L387-414H198z"/><glyph unicode="z" horiz-adv-x="993" vert-adv-y="2458" d="M78 0v108l590 812H127v141h778V955L317 141h592V0H78z"/><glyph unicode="{" horiz-adv-x="860" vert-adv-y="2458" d="M268 631q113-34 159-91 60-71 60-208V80q0-119 23-173 31-75 115-96 47-12 116-12h64v-131h-55q-266 0-367 113-84 94-84 312v249q0 129-67 171-56 34-189 48v139q133 14 189 49 67 41 67 170v233q0 234 99 328 103 97 352 97h55v-131h-64q-140 0-194-53-40-38-53-113-7-43-7-115V930q0-137-60-209-47-57-159-90z"/><glyph unicode="|" horiz-adv-x="614" vert-adv-y="2458" d="M219-334v1950h176V-334H219z"/><glyph unicode="}" horiz-adv-x="860" vert-adv-y="2458" d="M591 631q-112 33-159 90-60 72-60 209v235q0 119-22 173-32 75-115 96-47 12-117 12H55v131h55q265 0 366-113 84-94 84-312V919q0-129 68-170 56-35 189-49V561q-133-14-189-48-68-42-68-171V93q0-139-30-220-49-136-201-179-88-26-219-26H55v131h63q140 0 195 53 39 38 52 113 7 43 7 115v252q0 137 60 208 47 57 159 91z"/><glyph unicode="~" vert-adv-y="2458" d="M280 543l-103 73q124 183 280 183 64 0 181-34 100-28 146-28 60 0 116 49 20 17 48 48l103-76q-53-79-103-120-80-65-177-65-63 0-180 33-102 29-148 29-73 0-163-92z"/><glyph horiz-adv-x="492" vert-adv-y="2458"/><glyph unicode="¡" horiz-adv-x="664" vert-adv-y="2458" d="M225-236l53 1041h123l53-1041H225zm106 1514q63 0 104-43 38-39 38-98 0-60-38-99-40-43-103-43-64 0-104 43-38 39-38 100 0 59 38 97 41 43 103 43z"/><glyph unicode="¢" horiz-adv-x="1016" vert-adv-y="2458" d="M826 1050q47-11 96-30V850q-98 40-143 52L529 122q43-5 80-5 110 0 221 43 49 19 112 49V52Q767-33 599-33q-60 0-117 10l-86-270H254l99 307q-94 45-151 119Q95 270 95 525q0 281 134 421 128 133 361 133 43 0 103-5l61 192h141zM402 168l243 757q-39 2-58 2-173 0-237-103-52-85-52-307 0-197 46-280 22-40 58-69z"/><glyph unicode="£" horiz-adv-x="1217" vert-adv-y="2458" d="M102 0v158h178v526H102v154h178v208q0 131 24 205 44 140 170 213 109 64 280 64 174 0 319-66v-174q-86 37-126 49-88 27-187 27-158 0-226-91-37-49-46-124-3-30-3-100V838h379V684H485V158h635L1102 0H102z"/><glyph unicode="¤" vert-adv-y="2458" d="M176 173L60 290l128 129q-86 140-86 301t86 300L60 1149l116 117 124-124q140 91 315 91 174 0 315-91l124 124 116-117-128-129q86-135 86-300 0-163-86-301l128-129-116-117-124 125q-135-91-316-91-171 0-315 91zm439 880q-137 0-223-89-90-93-90-239 0-156 90-249 86-89 224-89 137 0 222 89 90 94 90 244 0 153-90 244-88 89-223 89z"/><glyph unicode="¥" horiz-adv-x="1167" vert-adv-y="2458" d="M104 574v131h353L45 1489h217l328-659 338 659h195L694 705h355V574H676V412h373V281H676V0H477v281H104v131h373v162H104z"/><glyph unicode="¦" horiz-adv-x="614" vert-adv-y="2458" d="M218 0v606h199V0H218zm0 883v606h199V883H218z"/><glyph unicode="§" vert-adv-y="2458" d="M840 273Q947 169 947 28q0-166-112-256-104-83-292-83-117 0-225 39-36 13-102 43v162q83-43 127-59 93-35 194-35 124 0 180 49 46 40 46 124 0 70-31 113-30 42-134 95-26 14-130 63-157 75-224 134-94 84-94 217 0 144 115 223 43 30 135 57-104 100-104 239 0 166 128 257 101 73 261 73 131 0 270-53v-168q-69 29-101 40-88 29-175 29-209 0-209-164 0-62 34-107 38-48 203-126 142-67 189-95 188-113 188-291 0-108-59-176-55-64-185-99zm-106 77q78 18 113 47 57 49 57 129 0 94-82 148-46 30-188 100l-117 58q-199-29-199-175 0-74 71-131 37-29 162-89z"/><glyph unicode="¨" horiz-adv-x="1024" vert-adv-y="2458" d="M338 1482q51 0 84-34 30-32 30-80 0-49-30-81-33-34-86-34-50 0-83 34-30 32-30 81t30 80q34 34 85 34zm349 0q52 0 85-34 30-32 30-80 0-49-30-81-33-34-86-34-50 0-83 34-30 32-30 81t30 80q34 34 84 34z"/><glyph unicode="©" horiz-adv-x="1778" vert-adv-y="2458" d="M1129 383q-96-45-211-45-189 0-287 116-85 100-85 289 0 207 107 313 98 99 270 99 105 0 196-33v-122q-92 38-183 38-117 0-172-67-54-67-54-228 0-163 62-228 57-60 163-60 91 0 194 47V383zM889 1524q374 0 592-256 186-218 186-521t-186-522Q1264-31 892-31q-378 0-595 256-186 219-186 531 0 192 88 365 97 191 269 295 178 108 421 108zm0-90q-321 0-512-230-155-188-155-449 0-277 155-466Q567 59 891 59q320 0 510 230 155 189 155 458t-155 457q-191 230-512 230z"/><glyph unicode="ª" horiz-adv-x="942" vert-adv-y="2458" d="M684 563l-45 119Q498 534 344 534q-114 0-186 71-68 67-68 188 0 127 79 189 72 57 252 81 54 7 210 16v80q0 109-51 154-41 37-120 37-132 0-313-80v139q165 74 325 74 331 0 331-322V751q0-112 49-153v-35H684zm-53 414q-213-17-267-35-63-21-86-61-18-32-18-86 0-58 23-88 37-50 110-50 118 0 238 127v193z"/><glyph unicode="«" horiz-adv-x="1020" vert-adv-y="2458" d="M932 104H789L506 495v89l283 393h143L692 541zm-410 0H379L96 495v89l283 393h143L282 541z"/><glyph unicode="¬" vert-adv-y="2458" d="M936 298H768v313H206v147h730V298z"/><glyph unicode="­" horiz-adv-x="614" vert-adv-y="2458" d="M56 604v154h502V604H56z"/><glyph unicode="®" horiz-adv-x="788" vert-adv-y="2458" d="M281 1049v313h127q105 0 105-88 0-63-66-80 14-8 31-36l68-109h-78l-56 93q-20 34-45 34h-16v-127h-70zm70 172h47q45 0 45 46 0 42-45 42h-47v-88zm43 302q142 0 238-100 89-92 89-227 0-134-89-226-96-100-237-100-142 0-238 100-89 92-89 231 0 132 89 222 98 100 237 100zm0-51q-116 0-194-84-73-77-73-188 0-117 73-195 78-84 195-84 116 0 194 84 73 78 73 191 0 116-73 192-80 84-195 84z"/><glyph unicode="¯" horiz-adv-x="1024" vert-adv-y="2458" d="M240 1286v156h545v-156H240z"/><glyph unicode="°" horiz-adv-x="819" vert-adv-y="2458" d="M409 1483q145 0 243-99 91-92 91-226t-91-228q-97-98-242-98-147 0-244 98-91 93-91 232 0 132 91 222 100 99 243 99zm0-127q-84 0-138-59-51-56-51-137 0-86 51-142 54-59 138-59t138 59q51 57 51 140t-51 139q-55 59-138 59z"/><glyph unicode="±" vert-adv-y="2458" d="M150 611v147h381v422h168V758h381V611H699V231H531v380H150zm0-611v147h930V0H150z"/><glyph unicode="²" horiz-adv-x="778" vert-adv-y="2458" d="M94 724v99q166 123 248 191 157 131 157 234 0 107-137 107-100 0-249-80v137q136 67 275 67 279 0 279-221 0-132-104-234-71-70-211-177h331l-15-123H94z"/><glyph unicode="³" horiz-adv-x="778" vert-adv-y="2458" d="M81 669v125q189 10 288 47 132 50 132 130 0 86-121 86-53 0-147-19v113q133 20 172 40 64 32 64 85 0 36-26 57-32 25-87 25-90 0-242-62v129q164 54 275 54 246 0 246-196 0-71-34-108-16-18-48-37 118-43 118-162 0-136-111-202-127-75-338-96-39-3-141-9z"/><glyph unicode="´" horiz-adv-x="1024" vert-adv-y="2458" d="M385 1200l147 348h222l-199-348H385z"/><glyph unicode="µ" vert-adv-y="2458" d="M377-19v-378H186v1448l191 12V321q0-97 27-143 39-64 135-64 95 0 188 52 48 27 119 80v805l190 12V0H911l-49 150Q786 77 727 40 610-33 479-33q-51 0-102 14z"/><glyph unicode="¶" vert-adv-y="2458" d="M1018-215H840v1550H662V649q-34-4-67-4-264 0-388 137-98 108-98 292 0 204 120 311 117 104 331 104h458V-215z"/><glyph unicode="·" horiz-adv-x="614" vert-adv-y="2458" d="M307 822q63 0 104-43 38-39 38-99 0-59-38-99-40-42-103-42-64 0-104 42-38 40-38 101 0 59 38 97 42 43 103 43z"/><glyph unicode="¸" horiz-adv-x="1024" vert-adv-y="2458" d="M311-348L469 0h164L526-348H311z"/><glyph unicode="¹" horiz-adv-x="778" vert-adv-y="2458" d="M138 724v110h188v486l-199-60v123l265 90h102V834h178V724H138z"/><glyph unicode="º" horiz-adv-x="942" vert-adv-y="2458" d="M471 1483q188 0 294-126 99-118 99-348 0-252-120-371-104-103-273-103-188 0-294 126-99 117-99 354 0 246 120 365 104 103 273 103zm0-121q-114 0-167-87-46-78-46-261 0-210 57-286 53-72 156-72 114 0 166 87 47 78 47 266 0 205-57 281-53 72-156 72z"/><glyph unicode="»" horiz-adv-x="1020" vert-adv-y="2458" d="M498 104l240 437-240 436h143l283-391v-88L641 104H498zm-410 0l240 437L88 977h143l283-391v-88L231 104H88z"/><glyph unicode="¼" horiz-adv-x="1843" vert-adv-y="2458" d="M218 724v110h188v486l-199-60v123l265 90h102V834h178V724H218zM311 0l1110 1446h148L459 0H311zm655 146v93l398 546h180l-381-523h220v232l153 17V262h100V146h-100V0h-153v146H966z"/><glyph unicode="½" horiz-adv-x="1843" vert-adv-y="2458" d="M200 724v110h188v486l-199-60v123l265 90h102V834h178V724H200zM293 0l1110 1446h148L441 0H293zm805 0v99q156 114 248 191 157 132 157 233 0 108-142 108-94 0-244-79v137q124 66 265 66 289 0 289-227 0-91-52-168-54-78-263-237h331L1672 0h-574z"/><glyph unicode="¾" horiz-adv-x="1843" vert-adv-y="2458" d="M166 669v125q189 10 288 47 132 50 132 130 0 86-120 86-54 0-148-19v113q133 21 172 40 64 32 64 85 0 36-26 57-32 25-87 25-90 0-242-62v129q164 54 275 54 246 0 246-196 0-71-34-108-16-18-48-37 118-43 118-162 0-136-111-202-127-75-338-96-39-3-141-9zM317 0l1110 1446h148L465 0H317zm691 146v93l398 546h180l-381-523h220v232l153 17V262h100V146h-100V0h-153v146h-417z"/><glyph unicode="¿" horiz-adv-x="872" vert-adv-y="2458" d="M449 805h172V641q0-72-51-135-37-45-132-123-113-93-144-141-44-71-44-165 0-189 211-189 102 0 196 33 50 18 138 63v-172q-180-82-349-82-223 0-325 116Q43-65 43 85q0 139 79 233 51 61 174 166 99 83 126 115.5t27 68.5v137zm89 473q63 0 103-43 38-38 38-98t-38-99q-40-43-103-43-64 0-104 43-38 39-38 100 0 59 38 97 41 43 104 43z"/><glyph unicode="À" horiz-adv-x="1358" vert-adv-y="2458" d="M1319 0h-217L938 444H395L229 0H39l584 1497h121zM883 598l-213 584-217-584h430zM769 1612H599l-182 319h221z"/><glyph unicode="Á" horiz-adv-x="1358" vert-adv-y="2458" d="M1319 0h-217L938 444H395L229 0H39l584 1497h121zM883 598l-213 584-217-584h430zM593 1612l131 319h221l-182-319H593z"/><glyph unicode="Â" horiz-adv-x="1358" vert-adv-y="2458" d="M1319 0h-217L938 444H395L229 0H39l584 1497h121zM883 598l-213 584-217-584h430zM357 1612l224 319h197l223-319H840l-161 186-160-186H357z"/><glyph unicode="Ã" horiz-adv-x="1358" vert-adv-y="2458" d="M1319 0h-217L938 444H395L229 0H39l584 1497h121zM883 598l-213 584-217-584h430zM439 1620l-88 68q97 166 224 166 46 0 121-27 62-22 97-22 63 0 123 79l88-67q-42-72-81-108-64-60-142-60-46 0-120 26-65 23-100 23-64 0-122-78z"/><glyph unicode="Ä" horiz-adv-x="1358" vert-adv-y="2458" d="M1319 0h-217L938 444H395L229 0H39l584 1497h121zM883 598l-213 584-217-584h430zM504 1867q52 0 85-34 30-32 30-80 0-49-30-81-33-34-86-34-50 0-83 34-30 32-30 81t30 80q34 34 84 34zm351 0q52 0 85-34 30-32 30-80 0-49-30-81-33-34-86-34-50 0-83 34-30 32-30 81t30 80q34 34 84 34z"/><glyph unicode="Å" horiz-adv-x="1358" vert-adv-y="2458" d="M1319 0h-217L938 444H395L229 0H39l584 1497h121zM883 598l-213 584-217-584h430zM679 2009q106 0 170-65 58-59 58-148t-58-148q-64-65-169-65-106 0-170 65-58 59-58 151 0 88 58 145 66 65 169 65zm0-92q-57 0-88-41-24-31-24-78 0-51 24-82 31-41 89-41 57 0 88 41 24 31 24 80 0 50-24 80-32 41-89 41z"/><glyph unicode="Æ" horiz-adv-x="1931" vert-adv-y="2458" d="M895 0v444H416L154 0H-41l903 1489h905v-150h-673V838h534V688h-534V150h736L1812 0H895zm0 598v656L506 598h389z"/><glyph unicode="Ç" horiz-adv-x="1286" vert-adv-y="2458" d="M1175 219V53q-170-79-372-83l-97-318H491L639-20Q478 7 365 86 211 194 145 385 96 527 96 739q0 240 65 395 91 218 291 319 140 71 337 71 196 0 366-64v-172q-187 82-368 82-241 0-362-150-118-147-118-480 0-216 48-341 106-276 429-276 187 0 391 96z"/><glyph unicode="È" horiz-adv-x="1227" vert-adv-y="2458" d="M190 0v1489h872v-150H389V838h534V688H389V150h737L1107 0H190zm573 1612H593l-182 319h221z"/><glyph unicode="É" horiz-adv-x="1227" vert-adv-y="2458" d="M190 0v1489h872v-150H389V838h534V688H389V150h737L1107 0H190zm367 1612l131 319h221l-182-319H557z"/><glyph unicode="Ê" horiz-adv-x="1227" vert-adv-y="2458" d="M190 0v1489h872v-150H389V838h534V688H389V150h737L1107 0H190zm119 1612l224 319h197l223-319H792l-161 186-160-186H309z"/><glyph unicode="Ë" horiz-adv-x="1227" vert-adv-y="2458" d="M190 0v1489h872v-150H389V838h534V688H389V150h737L1107 0H190zm279 1867q51 0 84-34 30-32 30-80 0-49-30-81-33-34-86-34-50 0-83 34-30 32-30 81t30 80q34 34 85 34zm349 0q52 0 85-34 30-32 30-80 0-49-30-81-33-34-86-34-50 0-83 34-30 32-30 81t30 80q34 34 84 34z"/><glyph unicode="Ì" horiz-adv-x="580" vert-adv-y="2458" d="M191 0v1489h199V0H191zm189 1612H210L28 1931h221z"/><glyph unicode="Í" horiz-adv-x="580" vert-adv-y="2458" d="M190 0v1489h199V0H190zm-11 1612l131 319h221l-182-319H179z"/><glyph unicode="Î" horiz-adv-x="579" vert-adv-y="2458" d="M191 0v1489h199V0H191zM-32 1612l224 319h197l223-319H451l-161 186-160-186H-32z"/><glyph unicode="Ï" horiz-adv-x="580" vert-adv-y="2458" d="M191 0v1489h199V0H191zm-75 1867q51 0 84-34 30-32 30-80 0-49-30-81-33-34-86-34-50 0-83 34-30 32-30 81t30 80q34 34 85 34zm349 0q52 0 85-34 30-32 30-80 0-49-30-81-33-34-86-34-50 0-83 34-30 32-30 81t30 80q34 34 84 34z"/><glyph unicode="Ð" horiz-adv-x="1452" vert-adv-y="2458" d="M190 0v688H43v152h147v649h524q283 0 450-164 189-185 189-573 0-392-191-582Q991 0 706 0H190zm199 150h303q193 0 305 108 82 79 117 215 28 105 28 271 0 340-129 477-111 118-321 118H389V840h391V688H389V150z"/><glyph unicode="Ñ" horiz-adv-x="1552" vert-adv-y="2458" d="M190 0v1489h174l813-1108v1108h184V0h-133L374 1161V0H190zm364 1620l-88 68q97 166 224 166 46 0 121-27 62-22 97-22 63 0 123 79l88-67q-42-72-81-108-64-60-142-60-46 0-120 26-65 23-100 23-64 0-122-78z"/><glyph unicode="Ò" horiz-adv-x="1518" vert-adv-y="2458" d="M758 1524q334 0 510-225 81-104 117-237 36-132 36-315 0-246-65-401-84-201-260-299-141-78-338-78-332 0-509 225-81 104-117 237-36 132-36 325 0 378 181 577 174 191 481 191zm0-147q-234 0-350-175-101-151-101-447 0-221 43-344 102-295 408-295 234 0 351 175 101 150 101 456 0 330-119 481-118 149-333 149zm120 235H708l-182 319h221z"/><glyph unicode="Ó" horiz-adv-x="1518" vert-adv-y="2458" d="M758 1524q334 0 510-225 81-104 117-237 36-132 36-315 0-246-65-401-84-201-260-299-141-78-338-78-332 0-509 225-81 104-117 237-36 132-36 325 0 378 181 577 174 191 481 191zm0-147q-234 0-350-175-101-151-101-447 0-221 43-344 102-295 408-295 234 0 351 175 101 150 101 456 0 330-119 481-118 149-333 149zm-110 235l131 319h221l-182-319H648z"/><glyph unicode="Ô" horiz-adv-x="1518" vert-adv-y="2458" d="M758 1524q334 0 510-225 81-104 117-237 36-132 36-315 0-246-65-401-84-201-260-299-141-78-338-78-332 0-509 225-81 104-117 237-36 132-36 325 0 378 181 577 174 191 481 191zm0-147q-234 0-350-175-101-151-101-447 0-221 43-344 102-295 408-295 234 0 351 175 101 150 101 456 0 330-119 481-118 149-333 149zm-322 235l224 319h197l223-319H919l-161 186-160-186H436z"/><glyph unicode="Õ" horiz-adv-x="1518" vert-adv-y="2458" d="M758 1524q334 0 510-225 81-104 117-237 36-132 36-315 0-246-65-401-84-201-260-299-141-78-338-78-332 0-509 225-81 104-117 237-36 132-36 325 0 378 181 577 174 191 481 191zm0-147q-234 0-350-175-101-151-101-447 0-221 43-344 102-295 408-295 234 0 351 175 101 150 101 456 0 330-119 481-118 149-333 149zm-239 243l-88 68q97 166 224 166 46 0 121-27 62-22 97-22 63 0 123 79l88-67q-42-72-81-108-64-60-142-60-46 0-120 26-65 23-100 23-64 0-122-78z"/><glyph unicode="Ö" horiz-adv-x="1518" vert-adv-y="2458" d="M758 1524q334 0 510-225 81-104 117-237 36-132 36-315 0-246-65-401-84-201-260-299-141-78-338-78-332 0-509 225-81 104-117 237-36 132-36 325 0 378 181 577 174 191 481 191zm0-147q-234 0-350-175-101-151-101-447 0-221 43-344 102-295 408-295 234 0 351 175 101 150 101 456 0 330-119 481-118 149-333 149zm-173 490q51 0 84-34 30-32 30-80 0-49-30-81-33-34-86-34-50 0-83 34-30 32-30 81t30 80q34 34 85 34zm349 0q52 0 85-34 30-32 30-80 0-49-30-81-33-34-86-34-50 0-83 34-30 32-30 81t30 80q34 34 84 34z"/><glyph unicode="×" vert-adv-y="2458" d="M612 565L295 248 184 358l317 318-319 321 111 113 321-322 320 322 110-113-319-319 319-320-110-112z"/><glyph unicode="Ø" horiz-adv-x="1518" vert-adv-y="2458" d="M249 196q-41 55-66 104-86 170-86 448 0 245 65 399 84 201 260 299 140 78 337 78 188 0 322-70 47-24 100-66l132 168h154l-200-255q37-48 59-90 96-176 96-465 0-245-65-400-84-201-260-299-141-78-337-78-256 0-427 139L177-92H23zm124 159l700 894q-120 128-314 128-233 0-350-175-101-150-101-455 0-197 36-314 10-34 29-78zm770 788L442 248q122-132 318-132 234 0 350 175 101 151 101 445 0 260-68 407z"/><glyph unicode="Ù" horiz-adv-x="1479" vert-adv-y="2458" d="M156 1489h211V559q0-204 75-308 88-122 318-122 226 0 316 132 72 106 72 302v926h184V567q0-598-574-598-379 0-523 244-79 134-79 346v930zm710 123H696l-182 319h221z"/><glyph unicode="Ú" horiz-adv-x="1479" vert-adv-y="2458" d="M156 1489h211V559q0-204 75-308 88-122 318-122 226 0 316 132 72 106 72 302v926h184V567q0-598-574-598-379 0-523 244-79 134-79 346v930zm503 123l131 319h221l-182-319H659z"/><glyph unicode="Û" horiz-adv-x="1479" vert-adv-y="2458" d="M156 1489h211V559q0-204 75-308 88-122 318-122 226 0 316 132 72 106 72 302v926h184V567q0-598-574-598-379 0-523 244-79 134-79 346v930zm261 123l224 319h197l223-319H900l-161 186-160-186H417z"/><glyph unicode="Ü" horiz-adv-x="1479" vert-adv-y="2458" d="M156 1489h211V559q0-204 75-308 88-122 318-122 226 0 316 132 72 106 72 302v926h184V567q0-598-574-598-379 0-523 244-79 134-79 346v930zm410 378q51 0 84-34 30-32 30-80 0-49-30-81-33-34-86-34-50 0-83 34-30 32-30 81t30 80q34 34 85 34zm349 0q52 0 85-34 30-32 30-80 0-49-30-81-33-34-86-34-50 0-83 34-30 32-30 81t30 80q34 34 84 34z"/><glyph unicode="Ý" horiz-adv-x="1270" vert-adv-y="2458" d="M1237 1489L752 580V0H553v573L33 1489h219l414-739 373 739h198zm-682 123l131 319h221l-182-319H555z"/><glyph unicode="Þ" horiz-adv-x="1260" vert-adv-y="2458" d="M190 0v1489h199v-291h326q177 0 290-72 164-105 164-353 0-232-144-342-127-97-383-97-133 0-253 14V0H190zm199 495q114-12 253-12 174 0 249 76 41 41 56 97 11 42 11 115 0 92-19 141-52 136-247 136H389V495z"/><glyph unicode="ß" horiz-adv-x="1190" vert-adv-y="2458" d="M156 0v1076q0 208 106 329 127 143 361 143 165 0 270-72 113-78 113-219 0-91-55-169-44-63-143-168-76-80-93-104-31-43-31-77 0-39 46-73 35-26 139-75 119-55 172-105 82-77 82-203 0-129-82-212-95-96-282-96-150 0-261 45v154q132-56 257-56 196 0 196 143 0 69-50 110-36 30-146 84-133 65-176 110-59 62-59 154 0 77 44 145 28 43 114 138 75 85 99 119 45 63 45 129 0 67-47 113-56 54-162 54-138 0-209-82-66-76-66-248V0H156z"/><glyph unicode="à" horiz-adv-x="1053" vert-adv-y="2458" d="M719 141Q556-33 372-33q-147 0-226 86-70 77-70 214 0 139 73 209 64 63 200 92 99 20 362 38v93q0 114-41 168-46 62-165 62-153 0-363-93v153q185 90 372 90 194 0 288-88 99-93 99-294V0H774zm-8 119v229q-22-1-116-8-190-13-262-58-67-42-67-149 0-93 39-131 37-37 116-37 150 0 290 154zm-87 940H454l-199 348h221z"/><glyph unicode="á" horiz-adv-x="1053" vert-adv-y="2458" d="M719 141Q556-33 372-33q-147 0-226 86-70 77-70 214 0 139 73 209 64 63 200 92 99 20 362 38v93q0 114-41 168-46 62-165 62-153 0-363-93v153q185 90 372 90 194 0 288-88 99-93 99-294V0H774zm-8 119v229q-22-1-116-8-190-13-262-58-67-42-67-149 0-93 39-131 37-37 116-37 150 0 290 154zm-302 940l147 348h222l-199-348H409z"/><glyph unicode="â" horiz-adv-x="1053" vert-adv-y="2458" d="M719 141Q556-33 372-33q-147 0-226 86-70 77-70 214 0 139 73 209 64 63 200 92 99 20 362 38v93q0 114-41 168-46 62-165 62-153 0-363-93v153q185 90 372 90 194 0 288-88 99-93 99-294V0H774zm-8 119v229q-22-1-116-8-190-13-262-58-67-42-67-149 0-93 39-131 37-37 116-37 150 0 290 154zm-521 950l229 326h197l229-326H684l-166 193-166-193H190z"/><glyph unicode="ã" horiz-adv-x="1053" vert-adv-y="2458" d="M719 141Q556-33 372-33q-147 0-226 86-70 77-70 214 0 139 73 209 64 63 200 92 99 20 362 38v93q0 114-41 168-46 62-165 62-153 0-363-93v153q185 90 372 90 194 0 288-88 99-93 99-294V0H774zm-8 119v229q-22-1-116-8-190-13-262-58-67-42-67-149 0-93 39-131 37-37 116-37 150 0 290 154zm-433 977l-88 68q97 166 224 166 46 0 121-27 62-22 97-22 63 0 123 79l88-67q-99-168-223-168-46 0-120 26-64 23-100 23-64 0-122-78z"/><glyph unicode="ä" horiz-adv-x="1053" vert-adv-y="2458" d="M719 141Q556-33 372-33q-147 0-226 86-70 77-70 214 0 139 73 209 64 63 200 92 99 20 362 38v93q0 114-41 168-46 62-165 62-153 0-363-93v153q185 90 372 90 194 0 288-88 99-93 99-294V0H774zm-8 119v229q-22-1-116-8-190-13-262-58-67-42-67-149 0-93 39-131 37-37 116-37 150 0 290 154zM353 1482q51 0 84-34 30-32 30-80 0-49-30-81-33-34-86-34-50 0-83 34-30 32-30 81t30 80q34 34 85 34zm349 0q52 0 85-34 30-32 30-80 0-49-30-81-33-34-86-34-50 0-83 34-30 32-30 81t30 80q34 34 84 34z"/><glyph unicode="å" horiz-adv-x="1053" vert-adv-y="2458" d="M719 141Q556-33 372-33q-147 0-226 86-70 77-70 214 0 139 73 209 64 63 200 92 99 20 362 38v93q0 114-41 168-46 62-165 62-153 0-363-93v153q185 90 372 90 194 0 288-88 99-93 99-294V0H774zm-8 119v229q-22-1-116-8-190-13-262-58-67-42-67-149 0-93 39-131 37-37 116-37 150 0 290 154zM517 1630q106 0 170-65 58-59 58-148t-58-148q-64-65-169-65-106 0-170 65-58 59-58 151 0 88 58 145 66 65 169 65zm0-92q-57 0-88-41-24-31-24-78 0-51 24-82 31-41 89-41 57 0 88 41 24 31 24 80 0 50-24 80-32 41-89 41z"/><glyph unicode="æ" horiz-adv-x="1686" vert-adv-y="2458" d="M831 921q121 158 339 158 248 0 352-173 80-131 80-333v-86H901q0-167 48-254 64-117 262-117 110 0 215 39 43 16 129 56V53q-179-86-349-86-286 0-423 197Q591-33 374-33q-148 0-228 86-70 77-70 214 0 140 72 212 89 87 347 114 59 6 216 17v88q0 114-41 169-46 62-165 62-153 0-363-94v154q185 90 372 90 151 0 237-62 46-33 80-96zM711 260v229l-29-2q-253-19-319-48-58-27-80-73-17-35-17-93 0-95 42-133 37-34 112-34 151 0 291 154zm686 358q-7 141-37 210-50 116-194 116-165 0-228-144-27-61-37-182h496z"/><glyph unicode="ç" horiz-adv-x="981" vert-adv-y="2458" d="M639-30l-98-318H326L473-24Q302 7 212 111 92 248 92 528q0 288 139 425 128 127 353 127 141 0 301-60V850q-87 37-124 50-86 28-179 28-158 0-223-82-64-81-64-322 0-251 73-332 69-75 221-75 102 0 191 36 43 17 125 56V51Q766-18 639-30z"/><glyph unicode="è" horiz-adv-x="1079" vert-adv-y="2458" d="M995 488H295q-1-167 47-254 64-117 263-117 109 0 214 39 43 16 129 55V53Q767-33 599-33q-252 0-384 148Q92 251 92 522q0 288 135 428 125 129 334 129 231 0 341-152 93-129 93-353v-86zM790 627q-7 137-37 204-50 113-194 113-164 0-228-140-27-59-36-177h495zm-125 573H495l-199 348h221z"/><glyph unicode="é" horiz-adv-x="1079" vert-adv-y="2458" d="M995 488H295q-1-167 47-254 64-117 263-117 109 0 214 39 43 16 129 55V53Q767-33 599-33q-252 0-384 148Q92 251 92 522q0 288 135 428 125 129 334 129 231 0 341-152 93-129 93-353v-86zM790 627q-7 137-37 204-50 113-194 113-164 0-228-140-27-59-36-177h495zm-329 573l147 348h222l-199-348H461z"/><glyph unicode="ê" horiz-adv-x="1079" vert-adv-y="2458" d="M995 488H295q-1-167 47-254 64-117 263-117 109 0 214 39 43 16 129 55V53Q767-33 599-33q-252 0-384 148Q92 251 92 522q0 288 135 428 125 129 334 129 231 0 341-152 93-129 93-353v-86zM790 627q-7 137-37 204-50 113-194 113-164 0-228-140-27-59-36-177h495zm-554 583l229 326h197l229-326H730l-166 193-166-193H236z"/><glyph unicode="ë" horiz-adv-x="1079" vert-adv-y="2458" d="M995 488H295q-1-167 47-254 64-117 263-117 109 0 214 39 43 16 129 55V53Q767-33 599-33q-252 0-384 148Q92 251 92 522q0 288 135 428 125 129 334 129 231 0 341-152 93-129 93-353v-86zM790 627q-7 137-37 204-50 113-194 113-164 0-228-140-27-59-36-177h495zm-400 855q51 0 84-34 30-32 30-80 0-49-30-81-33-34-86-34-50 0-83 34-30 32-30 81t30 80q34 34 85 34zm349 0q52 0 85-34 30-32 30-80 0-49-30-81-33-34-86-34-50 0-83 34-30 32-30 81t30 80q34 34 84 34z"/><glyph unicode="ì" horiz-adv-x="514" vert-adv-y="2458" d="M162 0v1034q100 5 157 51h33V0H162zm187 1200H179l-199 348h221z"/><glyph unicode="í" horiz-adv-x="514" vert-adv-y="2458" d="M162 0v1034q100 5 157 51h33V0H162zm4 1200l147 348h222l-199-348H166z"/><glyph unicode="î" horiz-adv-x="514" vert-adv-y="2458" d="M162 0v1034q100 5 157 51h33V0H162zM-71 1210l229 326h197l229-326H423l-166 193-166-193H-71z"/><glyph unicode="ï" horiz-adv-x="514" vert-adv-y="2458" d="M162 0v1034q100 5 157 51h33V0H162zM83 1482q51 0 84-34 30-32 30-80 0-49-30-81-33-34-86-34-50 0-83 34-30 32-30 81t30 80q34 34 85 34zm349 0q52 0 85-34 30-32 30-80 0-49-30-81-33-34-86-34-50 0-83 34-30 32-30 81t30 80q34 34 84 34z"/><glyph unicode="ð" horiz-adv-x="1161" vert-adv-y="2458" d="M618 1270l-309-113v119l234 84q-83 87-197 188h205q62-49 149-129l277 100v-118l-191-70q128-149 191-285 93-202 93-496 0-248-88-378Q845-33 583-33q-261 0-391 179Q92 283 92 536q0 268 141 411 130 132 330 132 92 0 156-33 38-20 78-61-69 144-179 285zm-27-326q-163 0-234-107-43-64-53-149-9-73-9-159 0-152 24-227 64-196 264-196 161 0 228 125 35 63 44 134 10 84 10 187 0 139-21 208-56 184-253 184z"/><glyph unicode="ñ" horiz-adv-x="1182" vert-adv-y="2458" d="M162 0v1034q100 5 157 51h33V911q91 74 159 110 109 58 229 58 160 0 236-114 54-81 54-213V0H840v726q0 196-165 196-93 0-191-48-42-21-132-75V0H162zm189 1237l-88 68q97 166 224 166 46 0 121-27 62-22 97-22 63 0 123 79l88-67q-99-168-223-168-46 0-120 26-64 23-100 23-64 0-122-78z"/><glyph unicode="ò" horiz-adv-x="1161" vert-adv-y="2458" d="M580 1079q489 0 489-556 0-555-489-555Q92-32 92 530q0 272 123 409 126 140 365 140zm0-135q-163 0-230-112-53-91-53-304 0-242 65-331 70-94 218-94 164 0 231 112 53 90 53 308 0 239-65 327-70 94-219 94zm132 256H542l-199 348h221z"/><glyph unicode="ó" horiz-adv-x="1161" vert-adv-y="2458" d="M580 1079q489 0 489-556 0-555-489-555Q92-32 92 530q0 272 123 409 126 140 365 140zm0-135q-163 0-230-112-53-91-53-304 0-242 65-331 70-94 218-94 164 0 231 112 53 90 53 308 0 239-65 327-70 94-219 94zm-108 256l147 348h222l-199-348H472z"/><glyph unicode="ô" horiz-adv-x="1161" vert-adv-y="2458" d="M580 1079q489 0 489-556 0-555-489-555Q92-32 92 530q0 272 123 409 126 140 365 140zm0-135q-163 0-230-112-53-91-53-304 0-242 65-331 70-94 218-94 164 0 231 112 53 90 53 308 0 239-65 327-70 94-219 94zm-327 266l229 326h197l229-326H747l-166 193-166-193H253z"/><glyph unicode="õ" horiz-adv-x="1161" vert-adv-y="2458" d="M580 1079q489 0 489-556 0-555-489-555Q92-32 92 530q0 272 123 409 126 140 365 140zm0-135q-163 0-230-112-53-91-53-304 0-242 65-331 70-94 218-94 164 0 231 112 53 90 53 308 0 239-65 327-70 94-219 94zm-239 293l-88 68q97 166 224 166 46 0 121-27 62-22 97-22 63 0 123 79l88-67q-99-168-223-168-46 0-120 26-64 23-100 23-64 0-122-78z"/><glyph unicode="ö" horiz-adv-x="1161" vert-adv-y="2458" d="M580 1079q489 0 489-556 0-555-489-555Q92-32 92 530q0 272 123 409 126 140 365 140zm0-135q-163 0-230-112-53-91-53-304 0-242 65-331 70-94 218-94 164 0 231 112 53 90 53 308 0 239-65 327-70 94-219 94zm-173 538q51 0 84-34 30-32 30-80 0-49-30-81-33-34-86-34-50 0-83 34-30 32-30 81t30 80q34 34 85 34zm349 0q52 0 85-34 30-32 30-80 0-49-30-81-33-34-86-34-50 0-83 34-30 32-30 81t30 80q34 34 84 34z"/><glyph unicode="÷" vert-adv-y="2458" d="M615 1208q59 0 98-40 35-37 35-93t-35-93q-39-40-98-40-60 0-98 40-35 37-35 95 0 55 35 91 39 40 98 40zM150 611v147h930V611H150zm465-185q59 0 98-40 35-37 35-93t-35-93q-39-40-98-40-60 0-98 40-35 37-35 95 0 55 35 91 39 40 98 40z"/><glyph unicode="ø" horiz-adv-x="1161" vert-adv-y="2458" d="M197 129Q92 268 92 522q0 279 123 417 126 140 364 140 189 0 310-88l98 121h153L973 904q95-136 95-379 0-557-487-557-180 0-296 78L174-92H20zm125 155l465 580q-72 80-207 80-163 0-230-112-53-91-53-311 0-140 25-237zm522 459L385 171q75-68 195-68 164 0 230 112 53 90 53 312 0 123-19 216z"/><glyph unicode="ù" horiz-adv-x="1163" vert-adv-y="2458" d="M828 150Q753 77 693 40 576-33 443-33 280-33 204 86q-52 82-52 240v725l190 12V321q0-98 28-143 40-64 135-64t188 52q48 27 119 80v805l190 12V0H877zM689 1200H519l-199 348h221z"/><glyph unicode="ú" horiz-adv-x="1163" vert-adv-y="2458" d="M828 150Q753 77 693 40 576-33 443-33 280-33 204 86q-52 82-52 240v725l190 12V321q0-98 28-143 40-64 135-64t188 52q48 27 119 80v805l190 12V0H877zM479 1200l147 348h222l-199-348H479z"/><glyph unicode="û" horiz-adv-x="1163" vert-adv-y="2458" d="M828 150Q753 77 693 40 576-33 443-33 280-33 204 86q-52 82-52 240v725l190 12V321q0-98 28-143 40-64 135-64t188 52q48 27 119 80v805l190 12V0H877zM254 1210l229 326h197l229-326H748l-166 193-166-193H254z"/><glyph unicode="ü" horiz-adv-x="1163" vert-adv-y="2458" d="M828 150Q753 77 693 40 576-33 443-33 280-33 204 86q-52 82-52 240v725l190 12V321q0-98 28-143 40-64 135-64t188 52q48 27 119 80v805l190 12V0H877zM408 1482q51 0 84-34 30-32 30-80 0-49-30-81-33-34-86-34-50 0-83 34-30 32-30 81t30 80q34 34 85 34zm349 0q52 0 85-34 30-32 30-80 0-49-30-81-33-34-86-34-50 0-83 34-30 32-30 81t30 80q34 34 84 34z"/><glyph unicode="ý" horiz-adv-x="1044" vert-adv-y="2458" d="M198-414l240 531-420 944h205l313-723 305 723h185L387-414H198zm251 1614l147 348h222l-199-348H449z"/><glyph unicode="þ" horiz-adv-x="1196" vert-adv-y="2458" d="M162-414v1911q100 5 157 51h33V911q95 79 153 111 106 58 225 58 189 0 292-171 82-135 82-371 0-269-113-417Q874-33 684-33 522-33 352 90v-504H162zm190 621q67-42 111-61 82-34 175-34 138 0 204 109 55 90 55 316 0 232-70 315-59 70-164 70-92 0-181-46-31-16-130-77V207z"/><glyph unicode="ÿ" horiz-adv-x="1044" vert-adv-y="2458" d="M198-414l240 531-420 944h205l313-723 305 723h185L387-414H198zm150 1896q51 0 84-34 30-32 30-80 0-49-30-81-33-34-86-34-50 0-83 34-30 32-30 81t30 80q34 34 85 34zm349 0q52 0 85-34 30-32 30-80 0-49-30-81-33-34-86-34-50 0-83 34-30 32-30 81t30 80q34 34 84 34z"/><glyph unicode="Ā" horiz-adv-x="1358" vert-adv-y="2458" d="M1319 0h-217L938 444H395L229 0H39l584 1497h121zM883 598l-213 584-217-584h430zM407 1669v156h545v-156H407z"/><glyph unicode="ā" horiz-adv-x="1053" vert-adv-y="2458" d="M719 141Q556-33 372-33q-147 0-226 86-70 77-70 214 0 139 73 209 64 63 200 92 99 20 362 38v93q0 114-41 168-46 62-165 62-153 0-363-93v153q185 90 372 90 194 0 288-88 99-93 99-294V0H774zm-8 119v229q-22-1-116-8-190-13-262-58-67-42-67-149 0-93 39-131 37-37 116-37 150 0 290 154zM251 1286v156h545v-156H251z"/><glyph unicode="Ă" horiz-adv-x="1358" vert-adv-y="2458" d="M1319 0h-217L938 444H395L229 0H39l584 1497h121zM883 598l-213 584-217-584h430zM398 1894h141q21-127 140-127 118 0 139 127h141q-8-114-69-180-78-86-211-86-134 0-212 86-61 66-69 180z"/><glyph unicode="ă" horiz-adv-x="1053" vert-adv-y="2458" d="M719 141Q556-33 372-33q-147 0-226 86-70 77-70 214 0 139 73 209 64 63 200 92 99 20 362 38v93q0 114-41 168-46 62-165 62-153 0-363-93v153q185 90 372 90 194 0 288-88 99-93 99-294V0H774zm-8 119v229q-22-1-116-8-190-13-262-58-67-42-67-149 0-93 39-131 37-37 116-37 150 0 290 154zM237 1499h141q21-127 140-127 118 0 139 127h141q-8-114-69-180-78-86-211-86-134 0-212 86-61 66-69 180z"/><glyph unicode="Ą" horiz-adv-x="1358" vert-adv-y="2458" d="M1350-409q-65-19-121-19-100 0-169 47-75 51-75 148 0 110 117 233L938 444H395L229 0H39l584 1497h121L1319 0h-102q-68-119-68-188 0-99 106-99 45 0 95 19v-141zM883 598l-213 584-217-584h430z"/><glyph unicode="ą" horiz-adv-x="1053" vert-adv-y="2458" d="M719 141Q556-33 372-33q-147 0-226 86-70 77-70 214 0 139 73 209 64 63 200 92 99 20 362 38v93q0 114-41 168-46 62-165 62-153 0-363-93v153q185 90 372 90 194 0 288-88 99-93 99-294V0q-67-123-67-187 0-100 106-100 44 0 94 19v-141q-64-19-121-19-99 0-168 47-75 51-75 149 0 107 108 223zm-8 119v229q-22-1-116-8-190-13-262-58-67-42-67-149 0-93 39-131 37-37 116-37 150 0 290 154z"/><glyph unicode="Ć" horiz-adv-x="1286" vert-adv-y="2458" d="M1155 1460v-172q-187 82-368 82-241 0-362-150-118-147-118-480 0-216 48-341 106-276 429-276 187 0 391 96V53Q994-31 781-31q-331 0-512 203-96 108-137 254-36 133-36 313 0 239 65 394 92 219 291 320 140 71 337 71 196 0 366-64zm-478 152l131 319h221l-182-319H677z"/><glyph unicode="ć" horiz-adv-x="981" vert-adv-y="2458" d="M905 209V51Q736-33 583-33 92-33 92 528q0 288 139 425 128 127 353 127 141 0 301-60V850q-85 37-124 49-86 29-179 29-158 0-223-82-64-81-64-322 0-251 73-332 69-75 221-75 103 0 191 36 38 15 125 56zm-445 991l147 348h222l-199-348H460z"/><glyph unicode="Ĉ" horiz-adv-x="1286" vert-adv-y="2458" d="M1155 1460v-172q-187 82-368 82-241 0-362-150-118-147-118-480 0-216 48-341 106-276 429-276 187 0 391 96V53Q994-31 781-31q-331 0-512 203-96 108-137 254-36 133-36 313 0 239 65 394 92 219 291 320 140 71 337 71 196 0 366-64zm-714 152l224 319h197l223-319H924l-161 186-160-186H441z"/><glyph unicode="ĉ" horiz-adv-x="981" vert-adv-y="2458" d="M905 209V51Q736-33 583-33 92-33 92 528q0 288 139 425 128 127 353 127 141 0 301-60V850q-85 37-124 49-86 29-179 29-158 0-223-82-64-81-64-322 0-251 73-332 69-75 221-75 103 0 191 36 38 15 125 56zM241 1210l229 326h197l229-326H735l-166 193-166-193H241z"/><glyph unicode="Ċ" horiz-adv-x="1286" vert-adv-y="2458" d="M1155 1460v-172q-187 82-368 82-241 0-362-150-118-147-118-480 0-216 48-341 106-276 429-276 187 0 391 96V53Q994-31 781-31q-331 0-512 203-96 108-137 254-36 133-36 313 0 239 65 394 92 219 291 320 140 71 337 71 196 0 366-64zm-369 418q56 0 92-37 33-35 33-88t-33-88q-36-37-92-37t-92 37q-33 35-33 90 0 52 33 86 37 37 92 37z"/><glyph unicode="ċ" horiz-adv-x="981" vert-adv-y="2458" d="M905 209V51Q736-33 583-33 92-33 92 528q0 288 139 425 128 127 353 127 141 0 301-60V850q-85 37-124 49-86 29-179 29-158 0-223-82-64-81-64-322 0-251 73-332 69-75 221-75 103 0 191 36 38 15 125 56zM594 1493q56 0 92-37 33-35 33-88t-33-88q-36-37-92-37t-92 37q-33 35-33 90 0 52 33 86 37 37 92 37z"/><glyph unicode="Č" horiz-adv-x="1286" vert-adv-y="2458" d="M1155 1460v-172q-187 82-368 82-241 0-362-150-118-147-118-480 0-216 48-341 106-276 429-276 187 0 391 96V53Q994-31 781-31q-331 0-512 203-96 108-137 254-36 133-36 313 0 239 65 394 92 219 291 320 140 71 337 71 196 0 366-64zm-52 471l-223-319H683l-224 319h162l160-186 161 186h161z"/><glyph unicode="č" horiz-adv-x="981" vert-adv-y="2458" d="M905 209V51Q736-33 583-33 92-33 92 528q0 288 139 425 128 127 353 127 141 0 301-60V850q-85 37-124 49-86 29-179 29-158 0-223-82-64-81-64-322 0-251 73-332 69-75 221-75 103 0 191 36 38 15 125 56zM470 1210l-229 326h162l166-193 166 193h161l-229-326H470z"/><glyph unicode="Ď" horiz-adv-x="1452" vert-adv-y="2458" d="M190 0v1489h525q282 0 449-164 190-185 190-573 0-392-191-582Q992 0 707 0H190zm199 150h303q193 0 306 108 82 79 117 215 28 105 28 271 0 340-129 477-112 118-322 118H389V150zm592 1781l-223-319H561l-224 319h162l160-186 161 186h161z"/><glyph unicode="ď" horiz-adv-x="1403" vert-adv-y="2458" d="M1032 0H907l-49 141Q773 68 712 33 598-33 474-33q-184 0-289 155-93 139-93 388 0 280 108 421 114 148 308 148 165 0 334-124v542q103 5 159 51h31V0zM842 238v587q-63 40-102 58-86 38-185 38-132 0-195-88-63-87-63-320 0-170 31-250 58-151 207-151 93 0 188 50 43 22 119 76zm342 933l66 377h204l-116-377h-154z"/><glyph unicode="Đ" horiz-adv-x="1452" vert-adv-y="2458" d="M190 0v688H43v152h147v649h524q283 0 450-164 189-185 189-573 0-392-191-582Q991 0 706 0H190zm199 150h303q193 0 305 108 82 79 117 215 28 105 28 271 0 340-129 477-111 118-321 118H389V840h391V688H389V150z"/><glyph unicode="đ" horiz-adv-x="1192" vert-adv-y="2458" d="M842 1237H564v156h278v104q103 5 159 51h31v-155h138v-156h-138V0H907l-49 141Q773 68 712 33 598-33 474-33q-185 0-289 155-93 139-93 388 0 280 108 421 113 148 307 148 166 0 335-124v282zm0-999v587q-63 40-102 58-86 38-186 38-131 0-194-88-63-87-63-320 0-171 31-250 58-151 206-151 94 0 189 50 44 23 119 76z"/><glyph unicode="Ē" horiz-adv-x="1227" vert-adv-y="2458" d="M190 0v1489h872v-150H389V838h534V688H389V150h737L1107 0H190zm172 1669v156h545v-156H362z"/><glyph unicode="ē" horiz-adv-x="1079" vert-adv-y="2458" d="M995 488H295q-1-167 47-254 64-117 263-117 109 0 214 39 43 16 129 55V53Q767-33 599-33q-252 0-384 148Q92 251 92 522q0 288 135 428 125 129 334 129 231 0 341-152 93-129 93-353v-86zM790 627q-7 137-37 204-50 113-194 113-164 0-228-140-27-59-36-177h495zm-493 659v156h545v-156H297z"/><glyph unicode="Ĕ" horiz-adv-x="1227" vert-adv-y="2458" d="M190 0v1489h872v-150H389V838h534V688H389V150h737L1107 0H190zm161 1894h141q21-127 140-127 118 0 139 127h141q-8-114-69-180-78-86-211-86-134 0-212 86-61 66-69 180z"/><glyph unicode="Ė" horiz-adv-x="1227" vert-adv-y="2458" d="M190 0v1489h872v-150H389V838h534V688H389V150h737L1107 0H190zm471 1878q56 0 92-37 33-35 33-88t-33-88q-36-37-92-37t-92 37q-33 35-33 90 0 52 33 86 37 37 92 37z"/><glyph unicode="ė" horiz-adv-x="1079" vert-adv-y="2458" d="M995 488H295q-1-167 47-254 64-117 263-117 109 0 214 39 43 16 129 55V53Q767-33 599-33q-252 0-384 148Q92 251 92 522q0 288 135 428 125 129 334 129 231 0 341-152 93-129 93-353v-86zM790 627q-7 137-37 204-50 113-194 113-164 0-228-140-27-59-36-177h495zm-222 866q56 0 92-37 33-35 33-88t-33-88q-36-37-92-37t-92 37q-33 35-33 90 0 52 33 86 37 37 92 37z"/><glyph unicode="Ę" horiz-adv-x="1227" vert-adv-y="2458" d="M190 0v1489h872v-150H389V838h534V688H389V150h737L1107 0H993q-68-117-68-188 0-99 106-99 45 0 95 19v-141q-64-19-121-19-100 0-169 47-75 51-75 149 0 108 117 232H190z"/><glyph unicode="ę" horiz-adv-x="1079" vert-adv-y="2458" d="M948 53Q878 20 815-1q-68-116-68-186 0-100 107-100 44 0 94 19v-141q-65-19-121-19-99 0-168 46-76 51-76 149 0 96 91 204-38-4-69-4Q92-33 92 524q0 286 135 426 125 129 334 129 231 0 341-152 93-129 93-353v-86H295q-1-167 47-254 64-117 263-117 109 0 214 39 43 16 129 55V53zM790 627q-7 141-39 209-50 108-192 108-164 0-228-140-27-59-36-177h495z"/><glyph unicode="Ě" horiz-adv-x="1227" vert-adv-y="2458" d="M190 0v1489h872v-150H389V838h534V688H389V150h737L1107 0H190zm775 1931l-223-319H545l-224 319h162l160-186 161 186h161z"/><glyph unicode="ě" horiz-adv-x="1079" vert-adv-y="2458" d="M995 488H295q-1-167 47-254 64-117 263-117 109 0 214 39 43 16 129 55V53Q767-33 599-33q-252 0-384 148Q92 251 92 522q0 288 135 428 125 129 334 129 231 0 341-152 93-129 93-353v-86zM790 627q-7 137-37 204-50 113-194 113-164 0-228-140-27-59-36-177h495zm-325 583l-229 326h162l166-193 166 193h161l-229-326H465z"/><glyph unicode="Ĝ" horiz-adv-x="1407" vert-adv-y="2458" d="M1212 1458v-170q-204 82-391 82-254 0-388-159-126-150-126-473 0-206 46-327 109-288 462-288 131 0 266 39v407H813v150h467V70Q1034-31 808-31q-379 0-566 238Q96 394 96 738q0 280 104 460 85 148 232 232 163 94 390 94 210 0 390-66zm-722 154l224 319h197l223-319H973l-161 186-160-186H490z"/><glyph unicode="ĝ" horiz-adv-x="1044" vert-adv-y="2458" d="M339 373q-49-57-49-106 0-88 143-88h172q203 0 298-52 122-68 122-239 0-146-95-222-128-102-414-102-243 0-362 70Q35-295 35-171 35-27 216 72q-90 51-90 141 0 105 120 207-133 101-133 290 0 164 97 260 110 109 317 109 82 0 154-18h360V956h-39q-79 0-135-25 55-87 55-213 0-181-109-279-104-92-294-92-105 0-180 26zM312 35q-95-83-95-188 0-71 59-104 74-42 246-42 195 0 275 57 56 39 56 124 0 92-70 121-49 20-148 20H439q-68 0-127 12zm207 912q-110 0-167-60-49-52-49-168 0-103 29-152 49-85 189-85 133 0 182 85 28 50 28 148 0 126-47 177-51 55-165 55zm-288 263l229 326h197l229-326H725l-166 193-166-193H231z"/><glyph unicode="Ğ" horiz-adv-x="1407" vert-adv-y="2458" d="M1212 1458v-170q-204 82-391 82-254 0-388-159-126-150-126-473 0-206 46-327 109-288 462-288 131 0 266 39v407H813v150h467V70Q1034-31 808-31q-379 0-566 238Q96 394 96 738q0 280 104 460 85 148 232 232 163 94 390 94 210 0 390-66zm-735 436h141q21-127 140-127 118 0 139 127h141q-8-114-69-180-78-86-211-86-134 0-212 86-61 66-69 180z"/><glyph unicode="ğ" horiz-adv-x="1044" vert-adv-y="2458" d="M339 373q-49-57-49-106 0-88 143-88h172q203 0 298-52 122-68 122-239 0-146-95-222-128-102-414-102-243 0-362 70Q35-295 35-171 35-27 216 72q-90 51-90 141 0 105 120 207-133 101-133 290 0 164 97 260 110 109 317 109 82 0 154-18h360V956h-39q-79 0-135-25 55-87 55-213 0-181-109-279-104-92-294-92-105 0-180 26zM312 35q-95-83-95-188 0-71 59-104 74-42 246-42 195 0 275 57 56 39 56 124 0 92-70 121-49 20-148 20H439q-68 0-127 12zm207 912q-110 0-167-60-49-52-49-168 0-103 29-152 49-85 189-85 133 0 182 85 28 50 28 148 0 126-47 177-51 55-165 55zm-250 552h141q21-127 140-127 118 0 139 127h141q-8-114-69-180-78-86-211-86-134 0-212 86-61 66-69 180z"/><glyph unicode="Ġ" horiz-adv-x="1407" vert-adv-y="2458" d="M1212 1458v-170q-204 82-391 82-254 0-388-159-126-150-126-473 0-206 46-327 109-288 462-288 131 0 266 39v407H813v150h467V70Q1034-31 808-31q-379 0-566 238Q96 394 96 738q0 280 104 460 85 148 232 232 163 94 390 94 210 0 390-66zm-391 420q56 0 92-37 33-35 33-88t-33-88q-36-37-92-37t-92 37q-33 35-33 90 0 52 33 86 37 37 92 37z"/><glyph unicode="ġ" horiz-adv-x="1044" vert-adv-y="2458" d="M339 373q-49-57-49-106 0-88 143-88h172q203 0 298-52 122-68 122-239 0-146-95-222-128-102-414-102-243 0-362 70Q35-295 35-171 35-27 216 72q-90 51-90 141 0 105 120 207-133 101-133 290 0 164 97 260 110 109 317 109 82 0 154-18h360V956h-39q-79 0-135-25 55-87 55-213 0-181-109-279-104-92-294-92-105 0-180 26zM312 35q-95-83-95-188 0-71 59-104 74-42 246-42 195 0 275 57 56 39 56 124 0 92-70 121-49 20-148 20H439q-68 0-127 12zm207 912q-110 0-167-60-49-52-49-168 0-103 29-152 49-85 189-85 133 0 182 85 28 50 28 148 0 126-47 177-51 55-165 55zm16 546q56 0 92-37 33-35 33-88t-33-88q-36-37-92-37t-92 37q-33 35-33 90 0 52 33 86 37 37 92 37z"/><glyph unicode="Ģ" horiz-adv-x="1407" vert-adv-y="2458" d="M1212 1458v-170q-204 82-391 82-254 0-388-159-126-150-126-473 0-206 46-327 109-288 462-288 131 0 266 39v407H813v150h467V70Q1034-31 808-31q-379 0-566 238Q96 394 96 738q0 280 104 460 85 148 232 232 163 94 390 94 210 0 390-66zM503-430L661-82h164L718-430H503z"/><glyph unicode="ģ" horiz-adv-x="1044" vert-adv-y="2458" d="M339 373q-49-57-49-106 0-88 143-88h172q203 0 298-52 122-68 122-239 0-146-95-222-128-102-414-102-243 0-362 70Q35-295 35-171 35-27 216 72q-90 51-90 141 0 105 120 207-133 101-133 290 0 164 97 260 110 109 317 109 82 0 154-18h360V956h-39q-79 0-135-25 55-87 55-213 0-181-109-279-104-92-294-92-105 0-180 26zM312 35q-95-83-95-188 0-71 59-104 74-42 246-42 195 0 275 57 56 39 56 124 0 92-70 121-49 20-148 20H439q-68 0-127 12zm207 912q-110 0-167-60-49-52-49-168 0-103 29-152 49-85 189-85 133 0 182 85 28 50 28 148 0 126-47 177-51 55-165 55zm264 601l-148-348H414l199 348h170z"/><glyph unicode="Ĥ" horiz-adv-x="1532" vert-adv-y="2458" d="M190 0v1489h199V838h753v651h199V0h-199v688H389V0H190zm253 1612l224 319h197l223-319H926l-161 186-160-186H443z"/><glyph unicode="ĥ" horiz-adv-x="1182" vert-adv-y="2458" d="M162 0v1497q100 5 157 51h33V911q92 74 159 109 110 59 229 59 160 0 235-114 55-82 55-213V0H840v738q0 183-165 183-89 0-181-43-45-21-142-79V0H162zM-18 1612l224 319h197l223-319H465l-161 186-160-186H-18z"/><glyph unicode="Ī" horiz-adv-x="580" vert-adv-y="2458" d="M190 0v1489h199V0H190zM17 1669v156h545v-156H17z"/><glyph unicode="ī" horiz-adv-x="514" vert-adv-y="2458" d="M162 0v1034q100 5 157 51h33V0H162zM-15 1286v156h545v-156H-15z"/><glyph unicode="ĭ" horiz-adv-x="514" vert-adv-y="2458" d="M161 0v1034q100 5 157 51h33V0H161zM-24 1499h141q21-127 140-127 118 0 139 127h141q-8-114-69-180-78-86-211-86-134 0-212 86-61 66-69 180z"/><glyph unicode="Į" horiz-adv-x="580" vert-adv-y="2458" d="M191 0v1489h198V0h-31q-67-118-67-187 0-100 106-100 45 0 95 19v-141q-64-19-121-19-100 0-168 47-76 51-76 149 0 107 117 232h-53z"/><glyph unicode="į" horiz-adv-x="514" vert-adv-y="2458" d="M162 0v1034q100 5 157 51h33V0h-41q-67-118-67-187 0-100 106-100 45 0 95 19v-141q-64-19-121-19-100 0-168 47-76 51-76 149Q80-123 197 0h-35zm96 1493q56 0 92-37 33-35 33-88t-33-88q-36-37-92-37t-92 37q-33 35-33 90 0 52 33 86 37 37 92 37z"/><glyph unicode="İ" horiz-adv-x="580" vert-adv-y="2458" d="M191 0v1489h199V0H191zm99 1878q56 0 92-37 33-35 33-88t-33-88q-36-37-92-37t-92 37q-33 35-33 90 0 52 33 86 37 37 92 37z"/><glyph unicode="ı" horiz-adv-x="514" vert-adv-y="2458" d="M162 0v1034q100 5 157 51h33V0H162z"/><glyph unicode="Ĵ" horiz-adv-x="579" vert-adv-y="2458" d="M-22-432v147q110 22 156 67 39 37 51 102 6 32 6 98v1507h199V-18q0-207-115-309-74-65-197-90-39-8-100-15zm-10 2044l224 319h197l223-319H451l-161 186-160-186H-32z"/><glyph unicode="ĵ" horiz-adv-x="514" vert-adv-y="2458" d="M-31-436v145q193 44 193 266v1059q100 5 157 51h33V2q0-393-383-438zm-40 1646l229 326h197l229-326H423l-166 193-166-193H-71z"/><glyph unicode="Ķ" horiz-adv-x="1321" vert-adv-y="2458" d="M190 0v1489h199V788l631 701h217L569 762 1298 0h-247L389 692V0H190zm257-430L605-82h164L662-430H447z"/><glyph unicode="ķ" horiz-adv-x="1071" vert-adv-y="2458" d="M162 0v1497q100 5 157 51h33V516l436 545h213L637 641 1042 0H833L514 498 352 311V0H162zm173-430L493-82h164L550-430H335z"/><glyph unicode="Ĺ" horiz-adv-x="1157" vert-adv-y="2458" d="M190 0v1489h199V150h692L1063 0H190zm18 1612l131 319h221l-182-319H208z"/><glyph unicode="ĺ" horiz-adv-x="526" vert-adv-y="2458" d="M168 0v1497q105 5 159 51h31V0H168zm14 1622l131 320h221l-182-320H182z"/><glyph unicode="Ļ" horiz-adv-x="1157" vert-adv-y="2458" d="M190 0v1489h199V150h692L1063 0H190zm187-430L535-82h164L592-430H377z"/><glyph unicode="ļ" horiz-adv-x="526" vert-adv-y="2458" d="M168 0v1497q105 5 159 51h31V0H168zM29-430L187-82h164L244-430H29z"/><glyph unicode="Ľ" horiz-adv-x="1157" vert-adv-y="2458" d="M190 0v1489h199V150h692L1063 0H190zm366 1171l66 377h204l-116-377H556z"/><glyph unicode="ľ" horiz-adv-x="737" vert-adv-y="2458" d="M168 0v1497q105 5 159 51h31V0H168zm350 1171l66 377h204l-116-377H518z"/><glyph unicode="Ł" horiz-adv-x="1157" vert-adv-y="2458" d="M190 673v816h199V765l510 235V840L389 605V150h692L1063 0H190v514L14 433v159z"/><glyph unicode="ł" horiz-adv-x="526" vert-adv-y="2458" d="M8 717l160 113v667q106 5 159 51h31V964l160 113V917L358 804V0H168v670L8 557v160z"/><glyph unicode="Ń" horiz-adv-x="1552" vert-adv-y="2458" d="M190 0v1489h174l813-1108v1108h184V0h-133L374 1161V0H190zm511 1612l131 319h221l-182-319H701z"/><glyph unicode="ń" horiz-adv-x="1182" vert-adv-y="2458" d="M162 0v1034q100 5 157 51h33V911q91 74 159 110 109 58 229 58 160 0 236-114 54-81 54-213V0H840v726q0 196-165 196-93 0-191-48-42-21-132-75V0H162zm332 1200l147 348h222l-199-348H494z"/><glyph unicode="Ņ" horiz-adv-x="1552" vert-adv-y="2458" d="M190 0v1489h174l813-1108v1108h184V0h-133L374 1161V0H190zm355-430L703-82h164L760-430H545z"/><glyph unicode="ņ" horiz-adv-x="1182" vert-adv-y="2458" d="M162 0v1034q100 5 157 51h33V911q91 74 159 110 109 58 229 58 160 0 236-114 54-81 54-213V0H840v726q0 196-165 196-93 0-191-48-42-21-132-75V0H162zm204-430L524-82h164L581-430H366z"/><glyph unicode="Ň" horiz-adv-x="1552" vert-adv-y="2458" d="M190 0v1489h174l813-1108v1108h184V0h-133L374 1161V0H190zm926 1931l-223-319H696l-224 319h162l160-186 161 186h161z"/><glyph unicode="ň" horiz-adv-x="1182" vert-adv-y="2458" d="M162 0v1034q100 5 157 51h33V911q91 74 159 110 109 58 229 58 160 0 236-114 54-81 54-213V0H840v726q0 196-165 196-93 0-191-48-42-21-132-75V0H162zm330 1210l-229 326h162l166-193 166 193h161l-229-326H492z"/><glyph unicode="Ō" horiz-adv-x="1518" vert-adv-y="2458" d="M758 1524q334 0 510-225 81-104 117-237 36-132 36-315 0-246-65-401-84-201-260-299-141-78-338-78-332 0-509 225-81 104-117 237-36 132-36 325 0 378 181 577 174 191 481 191zm0-147q-234 0-350-175-101-151-101-447 0-221 43-344 102-295 408-295 234 0 351 175 101 150 101 456 0 330-119 481-118 149-333 149zm-272 292v156h545v-156H486z"/><glyph unicode="ō" horiz-adv-x="1161" vert-adv-y="2458" d="M580 1079q489 0 489-556 0-555-489-555Q92-32 92 530q0 272 123 409 126 140 365 140zm0-135q-163 0-230-112-53-91-53-304 0-242 65-331 70-94 218-94 164 0 231 112 53 90 53 308 0 239-65 327-70 94-219 94zm-272 342v156h545v-156H308z"/><glyph unicode="Ő" horiz-adv-x="1518" vert-adv-y="2458" d="M758 1524q334 0 510-225 81-104 117-237 36-132 36-315 0-246-65-401-84-201-260-299-141-78-338-78-332 0-509 225-81 104-117 237-36 132-36 325 0 378 181 577 174 191 481 191zm0-147q-234 0-350-175-101-151-101-447 0-221 43-344 102-295 408-295 234 0 351 175 101 150 101 456 0 330-119 481-118 149-333 149zm97 235l91 319h182l-123-319H855zm-315 0l90 319h182l-122-319H540z"/><glyph unicode="ő" horiz-adv-x="1161" vert-adv-y="2458" d="M580 1079q489 0 489-556 0-555-489-555Q92-32 92 530q0 272 123 409 126 140 365 140zm0-135q-163 0-230-112-53-91-53-304 0-242 65-331 70-94 218-94 164 0 231 112 53 90 53 308 0 239-65 327-70 94-219 94zm105 256l107 348h182l-139-348H685zm-315 0l106 348h183l-139-348H370z"/><glyph unicode="Œ" horiz-adv-x="2247" vert-adv-y="2458" d="M2128 0h-918v195q-66-98-147-149-122-77-309-77-312 0-491 208Q96 372 96 739q0 369 168 571 179 214 497 214 196 0 321-84 68-46 128-134v183h873v-150h-674V838h534V688h-534V150h737zM759 1376q-212 0-329-146-123-153-123-480 0-221 45-348 102-285 406-285 200 0 319 137 68 77 98 180 35 118 35 297 0 269-64 403-115 242-387 242z"/><glyph unicode="œ" horiz-adv-x="1847" vert-adv-y="2458" d="M965 881q123 198 367 198 228 0 338-152 93-129 93-353v-86h-700q-1-167 47-254 64-117 263-117 109 0 214 39 43 16 129 55V53q-181-86-348-86-278 0-402 201Q845-32 578-32q-260 0-385 167Q92 270 92 524q0 277 123 415 126 140 363 140 268 0 387-198zm-384 63q-164 0-231-112-53-90-53-308 0-238 65-327 70-94 218-94 164 0 231 112 53 90 53 304 0 243-65 331-70 94-218 94zm977-317q-7 137-37 204-50 113-194 113-164 0-228-140-27-59-36-177h495z"/><glyph unicode="Ŕ" horiz-adv-x="1325" vert-adv-y="2458" d="M190 0v1489h508q455 0 455-405 0-172-98-271-62-63-151-94-34-12-101-26 80-44 147-144L1319 0h-227L758 498q-70 105-121 136-49 30-148 30H389V0H190zm199 813h283q149 0 216 73 29 33 41 73 13 43 13 120 0 144-67 207-57 53-211 53H389V813zm114 799l131 319h221l-182-319H503z"/><glyph unicode="ŕ" horiz-adv-x="739" vert-adv-y="2458" d="M162 0v1034q100 5 157 51h33V904q95 81 179 124 80 40 172 51V894q-207-19-351-90V0H162zm150 1200l147 348h222l-199-348H312z"/><glyph unicode="Ŗ" horiz-adv-x="1325" vert-adv-y="2458" d="M190 0v1489h508q455 0 455-405 0-172-98-271-62-63-151-94-34-12-101-26 80-44 147-144L1319 0h-227L758 498q-70 105-121 136-49 30-148 30H389V0H190zm199 813h283q149 0 216 73 29 33 41 73 13 43 13 120 0 144-67 207-57 53-211 53H389V813zm60-1243L607-82h164L664-430H449z"/><glyph unicode="ŗ" horiz-adv-x="739" vert-adv-y="2458" d="M162 0v1034q100 5 157 51h33V904q95 81 179 124 80 40 172 51V894q-207-19-351-90V0H162zM21-430L179-82h164L236-430H21z"/><glyph unicode="Ř" horiz-adv-x="1325" vert-adv-y="2458" d="M190 0v1489h508q455 0 455-405 0-172-98-271-62-63-151-94-34-12-101-26 80-44 147-144L1319 0h-227L758 498q-70 105-121 136-49 30-148 30H389V0H190zm199 813h283q149 0 216 73 29 33 41 73 13 43 13 120 0 144-67 207-57 53-211 53H389V813zm547 1118l-223-319H516l-224 319h162l160-186 161 186h161z"/><glyph unicode="ř" horiz-adv-x="739" vert-adv-y="2458" d="M162 0v1034q100 5 157 51h33V904q95 81 179 124 80 40 172 51V894q-207-19-351-90V0H162zm130 1210L63 1536h162l166-193 166 193h161l-229-326H292z"/><glyph unicode="Ś" horiz-adv-x="1049" vert-adv-y="2458" d="M63 72v174q90-50 157-75 126-46 258-46 148 0 228 61 79 61 79 173t-93 190q-49 41-229 143-177 101-244 168-115 115-115 280 0 192 144 300 113 84 308 84 176 0 349-74v-170q-70 33-116 50-114 40-236 40-267 0-267-212 0-84 45-145 45-63 218-157 167-92 207-120 121-83 174-175 49-84 49-188 0-124-67-221Q786-29 482-29 274-29 63 72zm380 1540l131 319h221l-182-319H443z"/><glyph unicode="ś" horiz-adv-x="903" vert-adv-y="2458" d="M98 49v158q70-36 123-54 92-31 199-31 105 0 158 30 59 33 59 114 0 55-31 89-34 38-174 91-175 66-238 124-86 79-86 211 0 140 95 218 92 76 266 76 132 0 291-59V846q-170 77-292 77-192 0-192-128 0-72 50-109 42-31 173-80 154-58 204-96 112-85 112-228 0-147-105-229-97-78-276-78-174 0-336 74zm281 1151l147 348h222l-199-348H379z"/><glyph unicode="Ŝ" horiz-adv-x="1049" vert-adv-y="2458" d="M63 72v174q90-50 157-75 126-46 258-46 148 0 228 61 79 61 79 173t-93 190q-49 41-229 143-177 101-244 168-115 115-115 280 0 192 144 300 113 84 308 84 176 0 349-74v-170q-70 33-116 50-114 40-236 40-267 0-267-212 0-84 45-145 45-63 218-157 167-92 207-120 121-83 174-175 49-84 49-188 0-124-67-221Q786-29 482-29 274-29 63 72zm169 1540l224 319h197l223-319H715l-161 186-160-186H232z"/><glyph unicode="ŝ" horiz-adv-x="903" vert-adv-y="2458" d="M98 49v158q70-36 123-54 92-31 199-31 105 0 158 30 59 33 59 114 0 55-31 89-34 38-174 91-175 66-238 124-86 79-86 211 0 140 95 218 92 76 266 76 132 0 291-59V846q-170 77-292 77-192 0-192-128 0-72 50-109 42-31 173-80 154-58 204-96 112-85 112-228 0-147-105-229-97-78-276-78-174 0-336 74zm56 1161l229 326h197l229-326H648l-166 193-166-193H154z"/><glyph unicode="Ş" horiz-adv-x="1049" vert-adv-y="2458" d="M63 72v174q90-50 157-74 126-47 258-47 148 0 228 61 79 61 79 173t-93 190q-48 40-229 143-177 102-243 168-116 115-116 280 0 187 147 298 114 86 308 86 173 0 346-74v-170q-70 34-116 50-114 40-236 40-267 0-267-212 0-83 45-145 46-63 218-157 167-92 207-119 121-84 174-176 49-84 49-188 0-199-162-311-83-58-202-79L514-348H299L444-28Q255-20 63 72z"/><glyph unicode="ş" horiz-adv-x="903" vert-adv-y="2458" d="M570-10L466-348H251L398-24Q250-21 98 49v158q87-40 128-54 87-30 189-30 107 0 163 30 59 31 59 114 0 55-31 89-34 38-174 90-175 66-238 124-86 79-86 211 0 140 95 219 92 75 266 75 129 0 291-59V846q-89 38-129 51-80 26-164 26-191 0-191-128 0-71 50-109 42-31 173-80 156-59 204-96 112-85 112-225 0-235-245-295z"/><glyph unicode="Š" horiz-adv-x="1049" vert-adv-y="2458" d="M63 72v174q90-50 157-75 126-46 258-46 148 0 228 61 79 61 79 173t-93 190q-49 41-229 143-177 101-244 168-115 115-115 280 0 192 144 300 113 84 308 84 176 0 349-74v-170q-70 33-116 50-114 40-236 40-267 0-267-212 0-84 45-145 45-63 218-157 167-92 207-120 121-83 174-175 49-84 49-188 0-124-67-221Q786-29 482-29 274-29 63 72zm813 1859l-223-319H456l-224 319h162l160-186 161 186h161z"/><glyph unicode="š" horiz-adv-x="903" vert-adv-y="2458" d="M98 49v158q70-36 123-54 92-31 199-31 105 0 158 30 59 33 59 114 0 55-31 89-34 38-174 91-175 66-238 124-86 79-86 211 0 140 95 218 92 76 266 76 132 0 291-59V846q-170 77-292 77-192 0-192-128 0-72 50-109 42-31 173-80 154-58 204-96 112-85 112-228 0-147-105-229-97-78-276-78-174 0-336 74zm279 1161l-229 326h162l166-193 166 193h161l-229-326H377z"/><glyph unicode="Ţ" horiz-adv-x="1227" vert-adv-y="2458" d="M1158 1489v-150H711V0H512v1339H66l12 150h1080zM371-430L529-82h164L586-430H371z"/><glyph unicode="ţ" horiz-adv-x="764" vert-adv-y="2458" d="M721 10q-88-33-176-33-193 0-274 112-60 84-60 239v596H53v137h39q68 0 99 21 41 27 63 106l29 102h118v-229h291V924H401V301q0-102 47-144 41-37 128-37 58 0 145 27V10zM181-430L339-82h164L396-430H181z"/><glyph unicode="Ť" horiz-adv-x="1227" vert-adv-y="2458" d="M1158 1489v-150H711V0H512v1339H66l12 150h1080zm-222 442l-223-319H516l-224 319h162l160-186 161 186h161z"/><glyph unicode="ť" horiz-adv-x="764" vert-adv-y="2458" d="M721 10q-88-33-176-33-193 0-274 112-60 84-60 239v596H53v137h39q68 0 99 21 41 27 63 106l29 102h118v-229h291V924H401V301q0-102 47-144 41-37 128-37 58 0 145 27V10zM526 1212l66 377h204l-116-377H526z"/><glyph unicode="Ū" horiz-adv-x="1479" vert-adv-y="2458" d="M156 1489h211V559q0-204 75-308 88-122 318-122 226 0 316 132 72 106 72 302v926h184V567q0-598-574-598-379 0-523 244-79 134-79 346v930zm328 180v156h545v-156H484z"/><glyph unicode="ū" horiz-adv-x="1163" vert-adv-y="2458" d="M828 150Q753 77 693 40 576-33 443-33 280-33 204 86q-52 82-52 240v725l190 12V321q0-98 28-143 40-64 135-64t188 52q48 27 119 80v805l190 12V0H877zM310 1286v156h545v-156H310z"/><glyph unicode="Ŭ" horiz-adv-x="1479" vert-adv-y="2458" d="M156 1489h211V559q0-204 75-308 88-122 318-122 226 0 316 132 72 106 72 302v926h184V567q0-598-574-598-379 0-523 244-79 134-79 346v930zm319 405h141q21-127 140-127 118 0 139 127h141q-8-114-69-180-78-86-211-86-134 0-212 86-61 66-69 180z"/><glyph unicode="ŭ" horiz-adv-x="1163" vert-adv-y="2458" d="M828 150Q753 77 693 40 576-33 443-33 280-33 204 86q-52 82-52 240v725l190 12V321q0-98 28-143 40-64 135-64t188 52q48 27 119 80v805l190 12V0H877zM302 1499h141q21-127 140-127 118 0 139 127h141q-8-114-69-180-78-86-211-86-134 0-212 86-61 66-69 180z"/><glyph unicode="Ů" horiz-adv-x="1479" vert-adv-y="2458" d="M156 1489h211V559q0-204 75-308 88-122 318-122 226 0 316 132 72 106 72 302v926h184V567q0-598-574-598-379 0-523 244-79 134-79 346v930zm606 520q106 0 170-65 58-59 58-148t-58-148q-64-65-169-65-106 0-170 65-58 59-58 151 0 88 58 145 66 65 169 65zm0-92q-57 0-88-41-24-31-24-78 0-51 24-82 31-41 89-41 57 0 88 41 24 31 24 80 0 50-24 80-32 41-89 41z"/><glyph unicode="ů" horiz-adv-x="1163" vert-adv-y="2458" d="M828 150Q753 77 693 40 576-33 443-33 280-33 204 86q-52 82-52 240v725l190 12V321q0-98 28-143 40-64 135-64t188 52q48 27 119 80v805l190 12V0H877zM582 1630q106 0 170-65 58-59 58-148t-58-148q-64-65-169-65-106 0-170 65-58 59-58 151 0 88 58 145 66 65 169 65zm0-92q-57 0-88-41-24-31-24-78 0-51 24-82 31-41 89-41 57 0 88 41 24 31 24 80 0 50-24 80-32 41-89 41z"/><glyph unicode="Ű" horiz-adv-x="1479" vert-adv-y="2458" d="M156 1489h211V559q0-204 75-308 88-122 318-122 226 0 316 132 72 106 72 302v926h184V567q0-598-574-598-379 0-523 244-79 134-79 346v930zm680 123l91 319h182l-123-319H836zm-315 0l90 319h182l-122-319H521z"/><glyph unicode="ű" horiz-adv-x="1163" vert-adv-y="2458" d="M828 150Q753 77 693 40 576-33 443-33 280-33 204 86q-52 82-52 240v725l190 12V321q0-98 28-143 40-64 135-64t188 52q48 27 119 80v805l190 12V0H877zM662 1200l107 348h182l-139-348H662zm-315 0l106 348h183l-139-348H347z"/><glyph unicode="Ų" horiz-adv-x="1479" vert-adv-y="2458" d="M156 1489h211V559q0-205 75-308 88-122 317-122 226 0 316 132 73 106 73 302v926h184V567q0-332-175-479-95-80-237-105-24-4-64-9-53-97-53-161 0-100 107-100 46 0 94 19v-141q-65-19-121-19-100 0-169 47-75 51-75 149 0 96 90 202-158 7-261 47-312 122-312 542v930z"/><glyph unicode="ų" horiz-adv-x="1163" vert-adv-y="2458" d="M888 0l-60 150Q732 57 650 16q-98-49-208-49-136 0-213 86-77 87-77 246v752l188 12V301q0-187 165-187 89 0 173 44 52 27 134 88v805l190 12V0q-67-117-67-187 0-100 107-100 43 0 93 19v-141q-64-19-120-19-131 0-198 72-46 50-46 123 0 109 117 233z"/><glyph unicode="Ŵ" horiz-adv-x="1933" vert-adv-y="2458" d="M569-10L53 1489h209L657 305l209 567-252 617h205l156-403 155 403h187l-244-586 225-598 391 1184h191L1353-10h-124L964 684 694-10H569zm75 1622l224 319h197l223-319h-161l-161 186-160-186H644z"/><glyph unicode="Ŷ" horiz-adv-x="1270" vert-adv-y="2458" d="M1237 1489L752 580V0H553v573L33 1489h219l414-739 373 739h198zm-912 123l224 319h197l223-319H808l-161 186-160-186H325z"/><glyph unicode="ŷ" horiz-adv-x="1044" vert-adv-y="2458" d="M198-414l240 531-420 944h205l313-723 305 723h185L387-414H198zm-4 1624l229 326h197l229-326H688l-166 193-166-193H194z"/><glyph unicode="Ÿ" horiz-adv-x="1270" vert-adv-y="2458" d="M1237 1489L752 580V0H553v573L33 1489h219l414-739 373 739h198zm-761 378q51 0 84-34 30-32 30-80 0-49-30-81-33-34-86-34-50 0-83 34-30 32-30 81t30 80q34 34 85 34zm349 0q52 0 85-34 30-32 30-80 0-49-30-81-33-34-86-34-50 0-83 34-30 32-30 81t30 80q34 34 84 34z"/><glyph unicode="Ź" horiz-adv-x="1249" vert-adv-y="2458" d="M74 0v113l837 1226H125l15 150h1017v-113L320 150h841L1147 0H74zm483 1612l131 319h221l-182-319H557z"/><glyph unicode="ź" horiz-adv-x="993" vert-adv-y="2458" d="M78 0v108l590 812H127v141h778V955L317 141h592V0H78zm370 1200l147 348h222l-199-348H448z"/><glyph unicode="Ż" horiz-adv-x="1249" vert-adv-y="2458" d="M74 0v113l837 1226H125l15 150h1017v-113L320 150h841L1147 0H74zm611 1878q56 0 92-37 33-35 33-88t-33-88q-36-37-92-37t-92 37q-33 35-33 90 0 52 33 86 37 37 92 37z"/><glyph unicode="ż" horiz-adv-x="993" vert-adv-y="2458" d="M78 0v108l590 812H127v141h778V955L317 141h592V0H78zm461 1493q56 0 92-37 33-35 33-88t-33-88q-36-37-92-37t-92 37q-33 35-33 90 0 52 33 86 37 37 92 37z"/><glyph unicode="Ž" horiz-adv-x="1249" vert-adv-y="2458" d="M74 0v113l837 1226H125l15 150h1017v-113L320 150h841L1147 0H74zm903 1931l-223-319H557l-224 319h162l160-186 161 186h161z"/><glyph unicode="ž" horiz-adv-x="993" vert-adv-y="2458" d="M78 0v108l590 812H127v141h778V955L317 141h592V0H78zm344 1210l-229 326h162l166-193 166 193h161l-229-326H422z"/><glyph unicode="ƒ" horiz-adv-x="870" vert-adv-y="2458" d="M82 699v139h209l26 209q32 247 157 355 73 62 176 80 43 7 115 7h85v-154q-44 9-79 9-117 0-181-68-59-64-79-212l-30-226h260V699H465L326-414H129L272 699H82z"/><glyph unicode="Ǎ" horiz-adv-x="1358" vert-adv-y="2458" d="M1319 0h-217L938 444H395L229 0H39l584 1497h121zM883 598l-213 584-217-584h430zm118 1333l-223-319H581l-224 319h162l160-186 161 186h161z"/><glyph unicode="ǎ" horiz-adv-x="1053" vert-adv-y="2458" d="M719 141Q556-33 372-33q-147 0-226 86-70 77-70 214 0 139 73 209 64 63 200 92 99 20 362 38v93q0 114-41 168-46 62-165 62-153 0-363-93v153q185 90 372 90 194 0 288-88 99-93 99-294V0H774zm-8 119v229q-22-1-116-8-190-13-262-58-67-42-67-149 0-93 39-131 37-37 116-37 150 0 290 154zm-292 950l-229 326h162l166-193 166 193h161l-229-326H419z"/><glyph unicode="Ǔ" horiz-adv-x="1479" vert-adv-y="2458" d="M156 1489h211V559q0-204 75-308 88-122 318-122 226 0 316 132 72 106 72 302v926h184V567q0-598-574-598-379 0-523 244-79 134-79 346v930zm905 442l-223-319H641l-224 319h162l160-186 161 186h161z"/><glyph unicode="Ǧ" horiz-adv-x="1407" vert-adv-y="2458" d="M1212 1458v-170q-204 82-391 82-254 0-388-159-126-150-126-473 0-206 46-327 109-288 462-288 131 0 266 39v407H813v150h467V70Q1034-31 808-31q-379 0-566 238Q96 394 96 738q0 280 104 460 85 148 232 232 163 94 390 94 210 0 390-66zm-111 473l-223-319H681l-224 319h162l160-186 161 186h161z"/><glyph unicode="ǧ" horiz-adv-x="1044" vert-adv-y="2458" d="M339 373q-49-57-49-106 0-88 143-88h172q203 0 298-52 122-68 122-239 0-146-95-222-128-102-414-102-243 0-362 70Q35-295 35-171 35-27 216 72q-90 51-90 141 0 105 120 207-133 101-133 290 0 164 97 260 110 109 317 109 82 0 154-18h360V956h-39q-79 0-135-25 55-87 55-213 0-181-109-279-104-92-294-92-105 0-180 26zM312 35q-95-83-95-188 0-71 59-104 74-42 246-42 195 0 275 57 56 39 56 124 0 92-70 121-49 20-148 20H439q-68 0-127 12zm207 912q-110 0-167-60-49-52-49-168 0-103 29-152 49-85 189-85 133 0 182 85 28 50 28 148 0 126-47 177-51 55-165 55zm-65 263l-229 326h162l166-193 166 193h161l-229-326H454z"/><glyph unicode="Ǵ" horiz-adv-x="1407" vert-adv-y="2458" d="M1212 1458v-170q-204 82-391 82-254 0-388-159-126-150-126-473 0-206 46-327 109-288 462-288 131 0 266 39v407H813v150h467V70Q1034-31 808-31q-379 0-566 238Q96 394 96 738q0 280 104 460 85 148 232 232 163 94 390 94 210 0 390-66zm-529 154l131 319h221l-182-319H683z"/><glyph unicode="ʼ" horiz-adv-x="518" vert-adv-y="2458" d="M277 1306q-74 2-106 18-56 29-56 97 0 56 35 91 37 36 97 36 80 0 124-62 39-55 39-135 0-132-96-223-78-72-205-87v86q78 21 116 62 40 42 52 117z"/><glyph unicode="ˆ" horiz-adv-x="1024" vert-adv-y="2458" d="M184 1210l229 326h197l229-326H678l-166 193-166-193H184z"/><glyph unicode="ˇ" horiz-adv-x="1024" vert-adv-y="2458" d="M413 1210l-229 326h162l166-193 166 193h161l-229-326H413z"/><glyph unicode="ˉ" horiz-adv-x="1024" vert-adv-y="2458" d="M240 1286v156h545v-156H240z"/><glyph unicode="˘" horiz-adv-x="1024" vert-adv-y="2458" d="M231 1499h141q21-127 140-127 118 0 139 127h141q-8-114-69-180-78-86-211-86-134 0-212 86-61 66-69 180z"/><glyph unicode="˙" horiz-adv-x="1024" vert-adv-y="2458" d="M512 1493q56 0 92-37 33-35 33-88t-33-88q-36-37-92-37t-92 37q-33 35-33 90 0 52 33 86 37 37 92 37z"/><glyph unicode="˚" horiz-adv-x="1024" vert-adv-y="2458" d="M512 1630q106 0 170-65 58-59 58-148t-58-148q-64-65-169-65-106 0-170 65-58 59-58 151 0 88 58 145 66 65 169 65zm0-92q-57 0-88-41-24-31-24-78 0-51 24-82 31-41 89-41 57 0 88 41 24 31 24 80 0 50-24 80-32 41-89 41z"/><glyph unicode="˛" horiz-adv-x="1024" vert-adv-y="2458" d="M734-409q-65-19-121-19-99 0-168 47-76 50-76 149 0 108 117 232h115q-68-119-68-187 0-100 107-100 44 0 94 19v-141z"/><glyph unicode="˜" horiz-adv-x="1024" vert-adv-y="2458" d="M272 1237l-88 68q97 166 224 166 46 0 121-27 62-22 97-22 63 0 123 79l88-67q-99-168-223-168-46 0-120 26-64 23-100 23-64 0-122-78z"/><glyph unicode="˝" horiz-adv-x="1024" vert-adv-y="2458" d="M592 1200l107 348h182l-139-348H592zm-315 0l106 348h183l-139-348H277z"/><glyph unicode="΄" vert-adv-y="2458" d="M614 1013q133 0 223-93 84-87 84-214 0-126-84-214-90-93-222-93-134 0-224 93-84 88-84 218 0 125 84 210 92 93 223 93z"/><glyph unicode="΅" vert-adv-y="2458" d="M614 1013q133 0 223-93 84-87 84-214 0-126-84-214-90-93-222-93-134 0-224 93-84 88-84 218 0 125 84 210 92 93 223 93z"/><glyph unicode="Ά" vert-adv-y="2458" d="M614 1013q133 0 223-93 84-87 84-214 0-126-84-214-90-93-222-93-134 0-224 93-84 88-84 218 0 125 84 210 92 93 223 93z"/><glyph unicode="·" horiz-adv-x="614" vert-adv-y="2458" d="M307 822q63 0 104-43 38-39 38-99 0-59-38-99-40-42-103-42-64 0-104 42-38 40-38 101 0 59 38 97 42 43 103 43z"/><glyph unicode="Έ" vert-adv-y="2458" d="M614 1013q133 0 223-93 84-87 84-214 0-126-84-214-90-93-222-93-134 0-224 93-84 88-84 218 0 125 84 210 92 93 223 93z"/><glyph unicode="Ή" vert-adv-y="2458" d="M614 1013q133 0 223-93 84-87 84-214 0-126-84-214-90-93-222-93-134 0-224 93-84 88-84 218 0 125 84 210 92 93 223 93z"/><glyph unicode="Ί" vert-adv-y="2458" d="M614 1013q133 0 223-93 84-87 84-214 0-126-84-214-90-93-222-93-134 0-224 93-84 88-84 218 0 125 84 210 92 93 223 93z"/><glyph unicode="Ό" vert-adv-y="2458" d="M614 1013q133 0 223-93 84-87 84-214 0-126-84-214-90-93-222-93-134 0-224 93-84 88-84 218 0 125 84 210 92 93 223 93z"/><glyph unicode="Ύ" vert-adv-y="2458" d="M614 1013q133 0 223-93 84-87 84-214 0-126-84-214-90-93-222-93-134 0-224 93-84 88-84 218 0 125 84 210 92 93 223 93z"/><glyph unicode="Ώ" vert-adv-y="2458" d="M614 1013q133 0 223-93 84-87 84-214 0-126-84-214-90-93-222-93-134 0-224 93-84 88-84 218 0 125 84 210 92 93 223 93z"/><glyph unicode="ΐ" vert-adv-y="2458" d="M614 1013q133 0 223-93 84-87 84-214 0-126-84-214-90-93-222-93-134 0-224 93-84 88-84 218 0 125 84 210 92 93 223 93z"/><glyph unicode="Α" vert-adv-y="2458" d="M614 1013q133 0 223-93 84-87 84-214 0-126-84-214-90-93-222-93-134 0-224 93-84 88-84 218 0 125 84 210 92 93 223 93z"/><glyph unicode="Β" vert-adv-y="2458" d="M614 1013q133 0 223-93 84-87 84-214 0-126-84-214-90-93-222-93-134 0-224 93-84 88-84 218 0 125 84 210 92 93 223 93z"/><glyph unicode="Γ" vert-adv-y="2458" d="M614 1013q133 0 223-93 84-87 84-214 0-126-84-214-90-93-222-93-134 0-224 93-84 88-84 218 0 125 84 210 92 93 223 93z"/><glyph unicode="Δ" vert-adv-y="2458" d="M614 1013q133 0 223-93 84-87 84-214 0-126-84-214-90-93-222-93-134 0-224 93-84 88-84 218 0 125 84 210 92 93 223 93z"/><glyph unicode="Ε" vert-adv-y="2458" d="M614 1013q133 0 223-93 84-87 84-214 0-126-84-214-90-93-222-93-134 0-224 93-84 88-84 218 0 125 84 210 92 93 223 93z"/><glyph unicode="Ζ" vert-adv-y="2458" d="M614 1013q133 0 223-93 84-87 84-214 0-126-84-214-90-93-222-93-134 0-224 93-84 88-84 218 0 125 84 210 92 93 223 93z"/><glyph unicode="Η" vert-adv-y="2458" d="M614 1013q133 0 223-93 84-87 84-214 0-126-84-214-90-93-222-93-134 0-224 93-84 88-84 218 0 125 84 210 92 93 223 93z"/><glyph unicode="Θ" vert-adv-y="2458" d="M614 1013q133 0 223-93 84-87 84-214 0-126-84-214-90-93-222-93-134 0-224 93-84 88-84 218 0 125 84 210 92 93 223 93z"/><glyph unicode="Ι" vert-adv-y="2458" d="M614 1013q133 0 223-93 84-87 84-214 0-126-84-214-90-93-222-93-134 0-224 93-84 88-84 218 0 125 84 210 92 93 223 93z"/><glyph unicode="Κ" vert-adv-y="2458" d="M614 1013q133 0 223-93 84-87 84-214 0-126-84-214-90-93-222-93-134 0-224 93-84 88-84 218 0 125 84 210 92 93 223 93z"/><glyph unicode="Λ" vert-adv-y="2458" d="M614 1013q133 0 223-93 84-87 84-214 0-126-84-214-90-93-222-93-134 0-224 93-84 88-84 218 0 125 84 210 92 93 223 93z"/><glyph unicode="Μ" vert-adv-y="2458" d="M614 1013q133 0 223-93 84-87 84-214 0-126-84-214-90-93-222-93-134 0-224 93-84 88-84 218 0 125 84 210 92 93 223 93z"/><glyph unicode="Ν" vert-adv-y="2458" d="M614 1013q133 0 223-93 84-87 84-214 0-126-84-214-90-93-222-93-134 0-224 93-84 88-84 218 0 125 84 210 92 93 223 93z"/><glyph unicode="Ξ" vert-adv-y="2458" d="M614 1013q133 0 223-93 84-87 84-214 0-126-84-214-90-93-222-93-134 0-224 93-84 88-84 218 0 125 84 210 92 93 223 93z"/><glyph unicode="Ο" vert-adv-y="2458" d="M614 1013q133 0 223-93 84-87 84-214 0-126-84-214-90-93-222-93-134 0-224 93-84 88-84 218 0 125 84 210 92 93 223 93z"/><glyph unicode="Π" vert-adv-y="2458" d="M614 1013q133 0 223-93 84-87 84-214 0-126-84-214-90-93-222-93-134 0-224 93-84 88-84 218 0 125 84 210 92 93 223 93z"/><glyph unicode="Ρ" vert-adv-y="2458" d="M614 1013q133 0 223-93 84-87 84-214 0-126-84-214-90-93-222-93-134 0-224 93-84 88-84 218 0 125 84 210 92 93 223 93z"/><glyph unicode="Σ" vert-adv-y="2458" d="M614 1013q133 0 223-93 84-87 84-214 0-126-84-214-90-93-222-93-134 0-224 93-84 88-84 218 0 125 84 210 92 93 223 93z"/><glyph unicode="Τ" vert-adv-y="2458" d="M614 1013q133 0 223-93 84-87 84-214 0-126-84-214-90-93-222-93-134 0-224 93-84 88-84 218 0 125 84 210 92 93 223 93z"/><glyph unicode="Υ" vert-adv-y="2458" d="M614 1013q133 0 223-93 84-87 84-214 0-126-84-214-90-93-222-93-134 0-224 93-84 88-84 218 0 125 84 210 92 93 223 93z"/><glyph unicode="Φ" vert-adv-y="2458" d="M614 1013q133 0 223-93 84-87 84-214 0-126-84-214-90-93-222-93-134 0-224 93-84 88-84 218 0 125 84 210 92 93 223 93z"/><glyph unicode="Χ" vert-adv-y="2458" d="M614 1013q133 0 223-93 84-87 84-214 0-126-84-214-90-93-222-93-134 0-224 93-84 88-84 218 0 125 84 210 92 93 223 93z"/><glyph unicode="Ψ" vert-adv-y="2458" d="M614 1013q133 0 223-93 84-87 84-214 0-126-84-214-90-93-222-93-134 0-224 93-84 88-84 218 0 125 84 210 92 93 223 93z"/><glyph unicode="Ω" vert-adv-y="2458" d="M614 1013q133 0 223-93 84-87 84-214 0-126-84-214-90-93-222-93-134 0-224 93-84 88-84 218 0 125 84 210 92 93 223 93z"/><glyph unicode="Ϊ" vert-adv-y="2458" d="M614 1013q133 0 223-93 84-87 84-214 0-126-84-214-90-93-222-93-134 0-224 93-84 88-84 218 0 125 84 210 92 93 223 93z"/><glyph unicode="ά" vert-adv-y="2458" d="M614 1013q133 0 223-93 84-87 84-214 0-126-84-214-90-93-222-93-134 0-224 93-84 88-84 218 0 125 84 210 92 93 223 93z"/><glyph unicode="έ" vert-adv-y="2458" d="M614 1013q133 0 223-93 84-87 84-214 0-126-84-214-90-93-222-93-134 0-224 93-84 88-84 218 0 125 84 210 92 93 223 93z"/><glyph unicode="ή" vert-adv-y="2458" d="M614 1013q133 0 223-93 84-87 84-214 0-126-84-214-90-93-222-93-134 0-224 93-84 88-84 218 0 125 84 210 92 93 223 93z"/><glyph unicode="ί" vert-adv-y="2458" d="M614 1013q133 0 223-93 84-87 84-214 0-126-84-214-90-93-222-93-134 0-224 93-84 88-84 218 0 125 84 210 92 93 223 93z"/><glyph unicode="ΰ" vert-adv-y="2458" d="M614 1013q133 0 223-93 84-87 84-214 0-126-84-214-90-93-222-93-134 0-224 93-84 88-84 218 0 125 84 210 92 93 223 93z"/><glyph unicode="α" vert-adv-y="2458" d="M614 1013q133 0 223-93 84-87 84-214 0-126-84-214-90-93-222-93-134 0-224 93-84 88-84 218 0 125 84 210 92 93 223 93z"/><glyph unicode="β" vert-adv-y="2458" d="M614 1013q133 0 223-93 84-87 84-214 0-126-84-214-90-93-222-93-134 0-224 93-84 88-84 218 0 125 84 210 92 93 223 93z"/><glyph unicode="γ" vert-adv-y="2458" d="M614 1013q133 0 223-93 84-87 84-214 0-126-84-214-90-93-222-93-134 0-224 93-84 88-84 218 0 125 84 210 92 93 223 93z"/><glyph unicode="δ" vert-adv-y="2458" d="M614 1013q133 0 223-93 84-87 84-214 0-126-84-214-90-93-222-93-134 0-224 93-84 88-84 218 0 125 84 210 92 93 223 93z"/><glyph unicode="ε" vert-adv-y="2458" d="M614 1013q133 0 223-93 84-87 84-214 0-126-84-214-90-93-222-93-134 0-224 93-84 88-84 218 0 125 84 210 92 93 223 93z"/><glyph unicode="ζ" vert-adv-y="2458" d="M614 1013q133 0 223-93 84-87 84-214 0-126-84-214-90-93-222-93-134 0-224 93-84 88-84 218 0 125 84 210 92 93 223 93z"/><glyph unicode="η" vert-adv-y="2458" d="M614 1013q133 0 223-93 84-87 84-214 0-126-84-214-90-93-222-93-134 0-224 93-84 88-84 218 0 125 84 210 92 93 223 93z"/><glyph unicode="θ" vert-adv-y="2458" d="M614 1013q133 0 223-93 84-87 84-214 0-126-84-214-90-93-222-93-134 0-224 93-84 88-84 218 0 125 84 210 92 93 223 93z"/><glyph unicode="ι" vert-adv-y="2458" d="M614 1013q133 0 223-93 84-87 84-214 0-126-84-214-90-93-222-93-134 0-224 93-84 88-84 218 0 125 84 210 92 93 223 93z"/><glyph unicode="κ" vert-adv-y="2458" d="M614 1013q133 0 223-93 84-87 84-214 0-126-84-214-90-93-222-93-134 0-224 93-84 88-84 218 0 125 84 210 92 93 223 93z"/><glyph unicode="λ" vert-adv-y="2458" d="M614 1013q133 0 223-93 84-87 84-214 0-126-84-214-90-93-222-93-134 0-224 93-84 88-84 218 0 125 84 210 92 93 223 93z"/><glyph unicode="μ" vert-adv-y="2458" d="M614 1013q133 0 223-93 84-87 84-214 0-126-84-214-90-93-222-93-134 0-224 93-84 88-84 218 0 125 84 210 92 93 223 93z"/><glyph unicode="ν" vert-adv-y="2458" d="M614 1013q133 0 223-93 84-87 84-214 0-126-84-214-90-93-222-93-134 0-224 93-84 88-84 218 0 125 84 210 92 93 223 93z"/><glyph unicode="ξ" vert-adv-y="2458" d="M614 1013q133 0 223-93 84-87 84-214 0-126-84-214-90-93-222-93-134 0-224 93-84 88-84 218 0 125 84 210 92 93 223 93z"/><glyph unicode="ο" vert-adv-y="2458" d="M614 1013q133 0 223-93 84-87 84-214 0-126-84-214-90-93-222-93-134 0-224 93-84 88-84 218 0 125 84 210 92 93 223 93z"/><glyph unicode="π" vert-adv-y="2458" d="M614 1013q133 0 223-93 84-87 84-214 0-126-84-214-90-93-222-93-134 0-224 93-84 88-84 218 0 125 84 210 92 93 223 93z"/><glyph unicode="ρ" vert-adv-y="2458" d="M614 1013q133 0 223-93 84-87 84-214 0-126-84-214-90-93-222-93-134 0-224 93-84 88-84 218 0 125 84 210 92 93 223 93z"/><glyph unicode="ς" vert-adv-y="2458" d="M614 1013q133 0 223-93 84-87 84-214 0-126-84-214-90-93-222-93-134 0-224 93-84 88-84 218 0 125 84 210 92 93 223 93z"/><glyph unicode="σ" vert-adv-y="2458" d="M614 1013q133 0 223-93 84-87 84-214 0-126-84-214-90-93-222-93-134 0-224 93-84 88-84 218 0 125 84 210 92 93 223 93z"/><glyph unicode="τ" vert-adv-y="2458" d="M614 1013q133 0 223-93 84-87 84-214 0-126-84-214-90-93-222-93-134 0-224 93-84 88-84 218 0 125 84 210 92 93 223 93z"/><glyph unicode="υ" vert-adv-y="2458" d="M614 1013q133 0 223-93 84-87 84-214 0-126-84-214-90-93-222-93-134 0-224 93-84 88-84 218 0 125 84 210 92 93 223 93z"/><glyph unicode="φ" vert-adv-y="2458" d="M614 1013q133 0 223-93 84-87 84-214 0-126-84-214-90-93-222-93-134 0-224 93-84 88-84 218 0 125 84 210 92 93 223 93z"/><glyph unicode="χ" vert-adv-y="2458" d="M614 1013q133 0 223-93 84-87 84-214 0-126-84-214-90-93-222-93-134 0-224 93-84 88-84 218 0 125 84 210 92 93 223 93z"/><glyph unicode="ψ" vert-adv-y="2458" d="M614 1013q133 0 223-93 84-87 84-214 0-126-84-214-90-93-222-93-134 0-224 93-84 88-84 218 0 125 84 210 92 93 223 93z"/><glyph unicode="ω" vert-adv-y="2458" d="M614 1013q133 0 223-93 84-87 84-214 0-126-84-214-90-93-222-93-134 0-224 93-84 88-84 218 0 125 84 210 92 93 223 93z"/><glyph unicode="ό" vert-adv-y="2458" d="M614 1013q133 0 223-93 84-87 84-214 0-126-84-214-90-93-222-93-134 0-224 93-84 88-84 218 0 125 84 210 92 93 223 93z"/><glyph unicode="ύ" vert-adv-y="2458" d="M614 1013q133 0 223-93 84-87 84-214 0-126-84-214-90-93-222-93-134 0-224 93-84 88-84 218 0 125 84 210 92 93 223 93z"/><glyph unicode="ώ" vert-adv-y="2458" d="M614 1013q133 0 223-93 84-87 84-214 0-126-84-214-90-93-222-93-134 0-224 93-84 88-84 218 0 125 84 210 92 93 223 93z"/><glyph unicode="Ё" vert-adv-y="2458" d="M614 1013q133 0 223-93 84-87 84-214 0-126-84-214-90-93-222-93-134 0-224 93-84 88-84 218 0 125 84 210 92 93 223 93z"/><glyph unicode="Ђ" vert-adv-y="2458" d="M614 1013q133 0 223-93 84-87 84-214 0-126-84-214-90-93-222-93-134 0-224 93-84 88-84 218 0 125 84 210 92 93 223 93z"/><glyph unicode="Ѓ" vert-adv-y="2458" d="M614 1013q133 0 223-93 84-87 84-214 0-126-84-214-90-93-222-93-134 0-224 93-84 88-84 218 0 125 84 210 92 93 223 93z"/><glyph unicode="Є" vert-adv-y="2458" d="M614 1013q133 0 223-93 84-87 84-214 0-126-84-214-90-93-222-93-134 0-224 93-84 88-84 218 0 125 84 210 92 93 223 93z"/><glyph unicode="Ѕ" vert-adv-y="2458" d="M614 1013q133 0 223-93 84-87 84-214 0-126-84-214-90-93-222-93-134 0-224 93-84 88-84 218 0 125 84 210 92 93 223 93z"/><glyph unicode="І" vert-adv-y="2458" d="M614 1013q133 0 223-93 84-87 84-214 0-126-84-214-90-93-222-93-134 0-224 93-84 88-84 218 0 125 84 210 92 93 223 93z"/><glyph unicode="Ї" vert-adv-y="2458" d="M614 1013q133 0 223-93 84-87 84-214 0-126-84-214-90-93-222-93-134 0-224 93-84 88-84 218 0 125 84 210 92 93 223 93z"/><glyph unicode="Ј" vert-adv-y="2458" d="M614 1013q133 0 223-93 84-87 84-214 0-126-84-214-90-93-222-93-134 0-224 93-84 88-84 218 0 125 84 210 92 93 223 93z"/><glyph unicode="Љ" vert-adv-y="2458" d="M614 1013q133 0 223-93 84-87 84-214 0-126-84-214-90-93-222-93-134 0-224 93-84 88-84 218 0 125 84 210 92 93 223 93z"/><glyph unicode="Њ" vert-adv-y="2458" d="M614 1013q133 0 223-93 84-87 84-214 0-126-84-214-90-93-222-93-134 0-224 93-84 88-84 218 0 125 84 210 92 93 223 93z"/><glyph unicode="Ћ" vert-adv-y="2458" d="M614 1013q133 0 223-93 84-87 84-214 0-126-84-214-90-93-222-93-134 0-224 93-84 88-84 218 0 125 84 210 92 93 223 93z"/><glyph unicode="Ќ" vert-adv-y="2458" d="M614 1013q133 0 223-93 84-87 84-214 0-126-84-214-90-93-222-93-134 0-224 93-84 88-84 218 0 125 84 210 92 93 223 93z"/><glyph unicode="Ў" vert-adv-y="2458" d="M614 1013q133 0 223-93 84-87 84-214 0-126-84-214-90-93-222-93-134 0-224 93-84 88-84 218 0 125 84 210 92 93 223 93z"/><glyph unicode="Џ" vert-adv-y="2458" d="M614 1013q133 0 223-93 84-87 84-214 0-126-84-214-90-93-222-93-134 0-224 93-84 88-84 218 0 125 84 210 92 93 223 93z"/><glyph unicode="А" vert-adv-y="2458" d="M614 1013q133 0 223-93 84-87 84-214 0-126-84-214-90-93-222-93-134 0-224 93-84 88-84 218 0 125 84 210 92 93 223 93z"/><glyph unicode="Б" vert-adv-y="2458" d="M614 1013q133 0 223-93 84-87 84-214 0-126-84-214-90-93-222-93-134 0-224 93-84 88-84 218 0 125 84 210 92 93 223 93z"/><glyph unicode="В" vert-adv-y="2458" d="M614 1013q133 0 223-93 84-87 84-214 0-126-84-214-90-93-222-93-134 0-224 93-84 88-84 218 0 125 84 210 92 93 223 93z"/><glyph unicode="Г" vert-adv-y="2458" d="M614 1013q133 0 223-93 84-87 84-214 0-126-84-214-90-93-222-93-134 0-224 93-84 88-84 218 0 125 84 210 92 93 223 93z"/><glyph unicode="Д" vert-adv-y="2458" d="M614 1013q133 0 223-93 84-87 84-214 0-126-84-214-90-93-222-93-134 0-224 93-84 88-84 218 0 125 84 210 92 93 223 93z"/><glyph unicode="Е" vert-adv-y="2458" d="M614 1013q133 0 223-93 84-87 84-214 0-126-84-214-90-93-222-93-134 0-224 93-84 88-84 218 0 125 84 210 92 93 223 93z"/><glyph unicode="Ж" vert-adv-y="2458" d="M614 1013q133 0 223-93 84-87 84-214 0-126-84-214-90-93-222-93-134 0-224 93-84 88-84 218 0 125 84 210 92 93 223 93z"/><glyph unicode="З" vert-adv-y="2458" d="M614 1013q133 0 223-93 84-87 84-214 0-126-84-214-90-93-222-93-134 0-224 93-84 88-84 218 0 125 84 210 92 93 223 93z"/><glyph unicode="И" vert-adv-y="2458" d="M614 1013q133 0 223-93 84-87 84-214 0-126-84-214-90-93-222-93-134 0-224 93-84 88-84 218 0 125 84 210 92 93 223 93z"/><glyph unicode="Й" vert-adv-y="2458" d="M614 1013q133 0 223-93 84-87 84-214 0-126-84-214-90-93-222-93-134 0-224 93-84 88-84 218 0 125 84 210 92 93 223 93z"/><glyph unicode="К" vert-adv-y="2458" d="M614 1013q133 0 223-93 84-87 84-214 0-126-84-214-90-93-222-93-134 0-224 93-84 88-84 218 0 125 84 210 92 93 223 93z"/><glyph unicode="Л" vert-adv-y="2458" d="M614 1013q133 0 223-93 84-87 84-214 0-126-84-214-90-93-222-93-134 0-224 93-84 88-84 218 0 125 84 210 92 93 223 93z"/><glyph unicode="М" vert-adv-y="2458" d="M614 1013q133 0 223-93 84-87 84-214 0-126-84-214-90-93-222-93-134 0-224 93-84 88-84 218 0 125 84 210 92 93 223 93z"/><glyph unicode="Н" vert-adv-y="2458" d="M614 1013q133 0 223-93 84-87 84-214 0-126-84-214-90-93-222-93-134 0-224 93-84 88-84 218 0 125 84 210 92 93 223 93z"/><glyph unicode="О" vert-adv-y="2458" d="M614 1013q133 0 223-93 84-87 84-214 0-126-84-214-90-93-222-93-134 0-224 93-84 88-84 218 0 125 84 210 92 93 223 93z"/><glyph unicode="П" vert-adv-y="2458" d="M614 1013q133 0 223-93 84-87 84-214 0-126-84-214-90-93-222-93-134 0-224 93-84 88-84 218 0 125 84 210 92 93 223 93z"/><glyph unicode="Р" vert-adv-y="2458" d="M614 1013q133 0 223-93 84-87 84-214 0-126-84-214-90-93-222-93-134 0-224 93-84 88-84 218 0 125 84 210 92 93 223 93z"/><glyph unicode="С" vert-adv-y="2458" d="M614 1013q133 0 223-93 84-87 84-214 0-126-84-214-90-93-222-93-134 0-224 93-84 88-84 218 0 125 84 210 92 93 223 93z"/><glyph unicode="Т" vert-adv-y="2458" d="M614 1013q133 0 223-93 84-87 84-214 0-126-84-214-90-93-222-93-134 0-224 93-84 88-84 218 0 125 84 210 92 93 223 93z"/><glyph unicode="У" vert-adv-y="2458" d="M614 1013q133 0 223-93 84-87 84-214 0-126-84-214-90-93-222-93-134 0-224 93-84 88-84 218 0 125 84 210 92 93 223 93z"/><glyph unicode="Ф" vert-adv-y="2458" d="M614 1013q133 0 223-93 84-87 84-214 0-126-84-214-90-93-222-93-134 0-224 93-84 88-84 218 0 125 84 210 92 93 223 93z"/><glyph unicode="Х" vert-adv-y="2458" d="M614 1013q133 0 223-93 84-87 84-214 0-126-84-214-90-93-222-93-134 0-224 93-84 88-84 218 0 125 84 210 92 93 223 93z"/><glyph unicode="Ц" vert-adv-y="2458" d="M614 1013q133 0 223-93 84-87 84-214 0-126-84-214-90-93-222-93-134 0-224 93-84 88-84 218 0 125 84 210 92 93 223 93z"/><glyph unicode="Ч" vert-adv-y="2458" d="M614 1013q133 0 223-93 84-87 84-214 0-126-84-214-90-93-222-93-134 0-224 93-84 88-84 218 0 125 84 210 92 93 223 93z"/><glyph unicode="Ш" vert-adv-y="2458" d="M614 1013q133 0 223-93 84-87 84-214 0-126-84-214-90-93-222-93-134 0-224 93-84 88-84 218 0 125 84 210 92 93 223 93z"/><glyph unicode="Щ" vert-adv-y="2458" d="M614 1013q133 0 223-93 84-87 84-214 0-126-84-214-90-93-222-93-134 0-224 93-84 88-84 218 0 125 84 210 92 93 223 93z"/><glyph unicode="Ъ" vert-adv-y="2458" d="M614 1013q133 0 223-93 84-87 84-214 0-126-84-214-90-93-222-93-134 0-224 93-84 88-84 218 0 125 84 210 92 93 223 93z"/><glyph unicode="Ы" vert-adv-y="2458" d="M614 1013q133 0 223-93 84-87 84-214 0-126-84-214-90-93-222-93-134 0-224 93-84 88-84 218 0 125 84 210 92 93 223 93z"/><glyph unicode="Ь" vert-adv-y="2458" d="M614 1013q133 0 223-93 84-87 84-214 0-126-84-214-90-93-222-93-134 0-224 93-84 88-84 218 0 125 84 210 92 93 223 93z"/><glyph unicode="Э" vert-adv-y="2458" d="M614 1013q133 0 223-93 84-87 84-214 0-126-84-214-90-93-222-93-134 0-224 93-84 88-84 218 0 125 84 210 92 93 223 93z"/><glyph unicode="Ю" vert-adv-y="2458" d="M614 1013q133 0 223-93 84-87 84-214 0-126-84-214-90-93-222-93-134 0-224 93-84 88-84 218 0 125 84 210 92 93 223 93z"/><glyph unicode="Я" vert-adv-y="2458" d="M614 1013q133 0 223-93 84-87 84-214 0-126-84-214-90-93-222-93-134 0-224 93-84 88-84 218 0 125 84 210 92 93 223 93z"/><glyph unicode="а" vert-adv-y="2458" d="M614 1013q133 0 223-93 84-87 84-214 0-126-84-214-90-93-222-93-134 0-224 93-84 88-84 218 0 125 84 210 92 93 223 93z"/><glyph unicode="б" vert-adv-y="2458" d="M614 1013q133 0 223-93 84-87 84-214 0-126-84-214-90-93-222-93-134 0-224 93-84 88-84 218 0 125 84 210 92 93 223 93z"/><glyph unicode="в" vert-adv-y="2458" d="M614 1013q133 0 223-93 84-87 84-214 0-126-84-214-90-93-222-93-134 0-224 93-84 88-84 218 0 125 84 210 92 93 223 93z"/><glyph unicode="г" vert-adv-y="2458" d="M614 1013q133 0 223-93 84-87 84-214 0-126-84-214-90-93-222-93-134 0-224 93-84 88-84 218 0 125 84 210 92 93 223 93z"/><glyph unicode="д" vert-adv-y="2458" d="M614 1013q133 0 223-93 84-87 84-214 0-126-84-214-90-93-222-93-134 0-224 93-84 88-84 218 0 125 84 210 92 93 223 93z"/><glyph unicode="е" vert-adv-y="2458" d="M614 1013q133 0 223-93 84-87 84-214 0-126-84-214-90-93-222-93-134 0-224 93-84 88-84 218 0 125 84 210 92 93 223 93z"/><glyph unicode="ж" vert-adv-y="2458" d="M614 1013q133 0 223-93 84-87 84-214 0-126-84-214-90-93-222-93-134 0-224 93-84 88-84 218 0 125 84 210 92 93 223 93z"/><glyph unicode="з" vert-adv-y="2458" d="M614 1013q133 0 223-93 84-87 84-214 0-126-84-214-90-93-222-93-134 0-224 93-84 88-84 218 0 125 84 210 92 93 223 93z"/><glyph unicode="и" vert-adv-y="2458" d="M614 1013q133 0 223-93 84-87 84-214 0-126-84-214-90-93-222-93-134 0-224 93-84 88-84 218 0 125 84 210 92 93 223 93z"/><glyph unicode="й" vert-adv-y="2458" d="M614 1013q133 0 223-93 84-87 84-214 0-126-84-214-90-93-222-93-134 0-224 93-84 88-84 218 0 125 84 210 92 93 223 93z"/><glyph unicode="к" vert-adv-y="2458" d="M614 1013q133 0 223-93 84-87 84-214 0-126-84-214-90-93-222-93-134 0-224 93-84 88-84 218 0 125 84 210 92 93 223 93z"/><glyph unicode="л" vert-adv-y="2458" d="M614 1013q133 0 223-93 84-87 84-214 0-126-84-214-90-93-222-93-134 0-224 93-84 88-84 218 0 125 84 210 92 93 223 93z"/><glyph unicode="м" vert-adv-y="2458" d="M614 1013q133 0 223-93 84-87 84-214 0-126-84-214-90-93-222-93-134 0-224 93-84 88-84 218 0 125 84 210 92 93 223 93z"/><glyph unicode="н" vert-adv-y="2458" d="M614 1013q133 0 223-93 84-87 84-214 0-126-84-214-90-93-222-93-134 0-224 93-84 88-84 218 0 125 84 210 92 93 223 93z"/><glyph unicode="о" vert-adv-y="2458" d="M614 1013q133 0 223-93 84-87 84-214 0-126-84-214-90-93-222-93-134 0-224 93-84 88-84 218 0 125 84 210 92 93 223 93z"/><glyph unicode="п" vert-adv-y="2458" d="M614 1013q133 0 223-93 84-87 84-214 0-126-84-214-90-93-222-93-134 0-224 93-84 88-84 218 0 125 84 210 92 93 223 93z"/><glyph unicode="р" vert-adv-y="2458" d="M614 1013q133 0 223-93 84-87 84-214 0-126-84-214-90-93-222-93-134 0-224 93-84 88-84 218 0 125 84 210 92 93 223 93z"/><glyph unicode="с" vert-adv-y="2458" d="M614 1013q133 0 223-93 84-87 84-214 0-126-84-214-90-93-222-93-134 0-224 93-84 88-84 218 0 125 84 210 92 93 223 93z"/><glyph unicode="т" vert-adv-y="2458" d="M614 1013q133 0 223-93 84-87 84-214 0-126-84-214-90-93-222-93-134 0-224 93-84 88-84 218 0 125 84 210 92 93 223 93z"/><glyph unicode="у" vert-adv-y="2458" d="M614 1013q133 0 223-93 84-87 84-214 0-126-84-214-90-93-222-93-134 0-224 93-84 88-84 218 0 125 84 210 92 93 223 93z"/><glyph unicode="ф" vert-adv-y="2458" d="M614 1013q133 0 223-93 84-87 84-214 0-126-84-214-90-93-222-93-134 0-224 93-84 88-84 218 0 125 84 210 92 93 223 93z"/><glyph unicode="х" vert-adv-y="2458" d="M614 1013q133 0 223-93 84-87 84-214 0-126-84-214-90-93-222-93-134 0-224 93-84 88-84 218 0 125 84 210 92 93 223 93z"/><glyph unicode="ц" vert-adv-y="2458" d="M614 1013q133 0 223-93 84-87 84-214 0-126-84-214-90-93-222-93-134 0-224 93-84 88-84 218 0 125 84 210 92 93 223 93z"/><glyph unicode="ч" vert-adv-y="2458" d="M614 1013q133 0 223-93 84-87 84-214 0-126-84-214-90-93-222-93-134 0-224 93-84 88-84 218 0 125 84 210 92 93 223 93z"/><glyph unicode="ш" vert-adv-y="2458" d="M614 1013q133 0 223-93 84-87 84-214 0-126-84-214-90-93-222-93-134 0-224 93-84 88-84 218 0 125 84 210 92 93 223 93z"/><glyph unicode="щ" vert-adv-y="2458" d="M614 1013q133 0 223-93 84-87 84-214 0-126-84-214-90-93-222-93-134 0-224 93-84 88-84 218 0 125 84 210 92 93 223 93z"/><glyph unicode="ъ" vert-adv-y="2458" d="M614 1013q133 0 223-93 84-87 84-214 0-126-84-214-90-93-222-93-134 0-224 93-84 88-84 218 0 125 84 210 92 93 223 93z"/><glyph unicode="ы" vert-adv-y="2458" d="M614 1013q133 0 223-93 84-87 84-214 0-126-84-214-90-93-222-93-134 0-224 93-84 88-84 218 0 125 84 210 92 93 223 93z"/><glyph unicode="ь" vert-adv-y="2458" d="M614 1013q133 0 223-93 84-87 84-214 0-126-84-214-90-93-222-93-134 0-224 93-84 88-84 218 0 125 84 210 92 93 223 93z"/><glyph unicode="э" vert-adv-y="2458" d="M614 1013q133 0 223-93 84-87 84-214 0-126-84-214-90-93-222-93-134 0-224 93-84 88-84 218 0 125 84 210 92 93 223 93z"/><glyph unicode="ю" vert-adv-y="2458" d="M614 1013q133 0 223-93 84-87 84-214 0-126-84-214-90-93-222-93-134 0-224 93-84 88-84 218 0 125 84 210 92 93 223 93z"/><glyph unicode="я" vert-adv-y="2458" d="M614 1013q133 0 223-93 84-87 84-214 0-126-84-214-90-93-222-93-134 0-224 93-84 88-84 218 0 125 84 210 92 93 223 93z"/><glyph unicode="ё" vert-adv-y="2458" d="M614 1013q133 0 223-93 84-87 84-214 0-126-84-214-90-93-222-93-134 0-224 93-84 88-84 218 0 125 84 210 92 93 223 93z"/><glyph unicode="ђ" vert-adv-y="2458" d="M614 1013q133 0 223-93 84-87 84-214 0-126-84-214-90-93-222-93-134 0-224 93-84 88-84 218 0 125 84 210 92 93 223 93z"/><glyph unicode="ѓ" vert-adv-y="2458" d="M614 1013q133 0 223-93 84-87 84-214 0-126-84-214-90-93-222-93-134 0-224 93-84 88-84 218 0 125 84 210 92 93 223 93z"/><glyph unicode="є" vert-adv-y="2458" d="M614 1013q133 0 223-93 84-87 84-214 0-126-84-214-90-93-222-93-134 0-224 93-84 88-84 218 0 125 84 210 92 93 223 93z"/><glyph unicode="ѕ" vert-adv-y="2458" d="M614 1013q133 0 223-93 84-87 84-214 0-126-84-214-90-93-222-93-134 0-224 93-84 88-84 218 0 125 84 210 92 93 223 93z"/><glyph unicode="і" vert-adv-y="2458" d="M614 1013q133 0 223-93 84-87 84-214 0-126-84-214-90-93-222-93-134 0-224 93-84 88-84 218 0 125 84 210 92 93 223 93z"/><glyph unicode="ї" vert-adv-y="2458" d="M614 1013q133 0 223-93 84-87 84-214 0-126-84-214-90-93-222-93-134 0-224 93-84 88-84 218 0 125 84 210 92 93 223 93z"/><glyph unicode="ј" vert-adv-y="2458" d="M614 1013q133 0 223-93 84-87 84-214 0-126-84-214-90-93-222-93-134 0-224 93-84 88-84 218 0 125 84 210 92 93 223 93z"/><glyph unicode="љ" vert-adv-y="2458" d="M614 1013q133 0 223-93 84-87 84-214 0-126-84-214-90-93-222-93-134 0-224 93-84 88-84 218 0 125 84 210 92 93 223 93z"/><glyph unicode="њ" vert-adv-y="2458" d="M614 1013q133 0 223-93 84-87 84-214 0-126-84-214-90-93-222-93-134 0-224 93-84 88-84 218 0 125 84 210 92 93 223 93z"/><glyph unicode="ћ" vert-adv-y="2458" d="M614 1013q133 0 223-93 84-87 84-214 0-126-84-214-90-93-222-93-134 0-224 93-84 88-84 218 0 125 84 210 92 93 223 93z"/><glyph unicode="ќ" vert-adv-y="2458" d="M614 1013q133 0 223-93 84-87 84-214 0-126-84-214-90-93-222-93-134 0-224 93-84 88-84 218 0 125 84 210 92 93 223 93z"/><glyph unicode="ў" vert-adv-y="2458" d="M614 1013q133 0 223-93 84-87 84-214 0-126-84-214-90-93-222-93-134 0-224 93-84 88-84 218 0 125 84 210 92 93 223 93z"/><glyph unicode="џ" vert-adv-y="2458" d="M614 1013q133 0 223-93 84-87 84-214 0-126-84-214-90-93-222-93-134 0-224 93-84 88-84 218 0 125 84 210 92 93 223 93z"/><glyph unicode="Ґ" vert-adv-y="2458" d="M614 1013q133 0 223-93 84-87 84-214 0-126-84-214-90-93-222-93-134 0-224 93-84 88-84 218 0 125 84 210 92 93 223 93z"/><glyph unicode="ґ" vert-adv-y="2458" d="M614 1013q133 0 223-93 84-87 84-214 0-126-84-214-90-93-222-93-134 0-224 93-84 88-84 218 0 125 84 210 92 93 223 93z"/><glyph unicode="һ" vert-adv-y="2458" d="M614 1013q133 0 223-93 84-87 84-214 0-126-84-214-90-93-222-93-134 0-224 93-84 88-84 218 0 125 84 210 92 93 223 93z"/><glyph unicode="Ӏ" vert-adv-y="2458" d="M614 1013q133 0 223-93 84-87 84-214 0-126-84-214-90-93-222-93-134 0-224 93-84 88-84 218 0 125 84 210 92 93 223 93z"/><glyph unicode="Ẅ" horiz-adv-x="1933" vert-adv-y="2458" d="M569-10L53 1489h209L657 305l209 567-252 617h205l156-403 155 403h187l-244-586 225-598 391 1184h191L1353-10h-124L964 684 694-10H569zm224 1877q51 0 84-34 30-32 30-80 0-49-30-81-33-34-86-34-50 0-83 34-30 32-30 81t30 80q34 34 85 34zm349 0q52 0 85-34 30-32 30-80 0-49-30-81-33-34-86-34-50 0-83 34-30 32-30 81t30 80q34 34 84 34z"/><glyph unicode="‑" horiz-adv-x="614" vert-adv-y="2458" d="M56 604v154h502V604H56z"/><glyph unicode="‒" vert-adv-y="2458" d="M150 611v147h930V611H150z"/><glyph unicode="–" vert-adv-y="2458" d="M150 611v147h930V611H150z"/><glyph unicode="—" vert-adv-y="2458" d="M-109 611v147h1446V611H-109z"/><glyph unicode="―" vert-adv-y="2458" d="M-109 611v147h1446V611H-109z"/><glyph unicode="‗" horiz-adv-x="614" vert-adv-y="2458" d="M-102-463v104h819v-104h-819zm0 184v104h819v-104h-819z"/><glyph unicode="‘" horiz-adv-x="518" vert-adv-y="2458" d="M242 1289q75-2 106-18 56-29 56-97 0-56-35-91-37-36-97-36-80 0-124 62-39 55-39 135 0 132 96 223 78 72 205 88v-86q-78-22-116-63-40-41-52-117z"/><glyph unicode="’" horiz-adv-x="518" vert-adv-y="2458" d="M277 1306q-74 2-106 18-56 29-56 97 0 56 35 91 37 36 97 36 80 0 124-62 39-55 39-135 0-132-96-223-78-72-205-87v86q78 21 116 62 40 42 52 117z"/><glyph unicode="‚" horiz-adv-x="518" vert-adv-y="2458" d="M277 65q-74 2-106 18-56 29-56 97 0 56 35 91 37 36 97 36 80 0 124-62 39-55 39-135 0-132-96-223-78-72-205-88v86q78 22 116 62 40 42 52 118z"/><glyph unicode="“" horiz-adv-x="944" vert-adv-y="2458" d="M242 1289q75-2 106-18 56-29 56-97 0-56-35-91-37-36-97-36-80 0-124 62-39 55-39 135 0 132 96 223 78 72 205 88v-86q-78-22-116-63-40-41-52-117zm426 0q75-2 106-18 56-29 56-97 0-56-35-91-37-36-97-36-80 0-124 62-39 55-39 135 0 132 96 223 78 72 205 88v-86q-78-22-116-63-40-41-52-117z"/><glyph unicode="”" horiz-adv-x="944" vert-adv-y="2458" d="M277 1306q-74 2-106 18-56 29-56 97 0 56 35 91 37 36 97 36 80 0 124-62 39-55 39-135 0-132-96-223-78-72-205-87v86q78 21 116 62 40 42 52 117zm426 0q-74 2-106 18-56 29-56 97 0 56 35 91 37 36 97 36 80 0 124-62 39-55 39-135 0-132-96-223-78-72-205-87v86q78 21 116 62 40 42 52 117z"/><glyph unicode="„" horiz-adv-x="944" vert-adv-y="2458" d="M277 65q-74 2-106 18-56 29-56 97 0 56 35 91 37 36 97 36 80 0 124-62 39-55 39-135 0-132-96-223-78-72-205-88v86q78 22 116 62 40 42 52 118zm426 0q-74 2-106 18-56 29-56 97 0 56 35 91 37 36 97 36 80 0 124-62 39-55 39-135 0-132-96-223-78-72-205-88v86q78 22 116 62 40 42 52 118z"/><glyph unicode="†" vert-adv-y="2458" d="M525-205V929H222l12 154h291v406h178v-406h324V929H703V-205H525z"/><glyph unicode="‡" vert-adv-y="2458" d="M202 201v154h324v574H222l13 154h291v406h178v-406h323V929H704V355h303l-13-154H704v-406H526v406H202z"/><glyph unicode="•" vert-adv-y="2458" d="M614 1013q133 0 223-93 84-87 84-214 0-126-84-214-90-93-222-93-134 0-224 93-84 88-84 218 0 125 84 210 92 93 223 93z"/><glyph unicode="…" horiz-adv-x="1843" vert-adv-y="2458" d="M348 258q63 0 104-43 38-39 38-99 0-59-38-99-40-42-103-42-64 0-104 42-38 40-38 101 0 59 38 97 41 43 103 43zm573 0q63 0 104-43 38-39 38-99 0-59-38-99-40-42-103-42-64 0-104 42-38 40-38 101 0 59 38 97 41 43 103 43zm574 0q63 0 104-43 38-39 38-99 0-59-38-99-40-42-103-42-64 0-104 42-38 40-38 101 0 59 38 97 41 43 103 43z"/><glyph unicode="‰" horiz-adv-x="2269" vert-adv-y="2458" d="M389 1518q158 0 241-109 73-94 73-262 0-186-89-282-83-89-225-89-157 0-240 109-73 94-73 266 0 182 89 278 82 89 224 89zm146-391v40q0 128-35 181-34 51-111 51-83 0-116-62-29-54-29-170v-40q0-128 35-181 34-51 110-51 84 0 117 61 29 54 29 171zM142 0l1110 1485h147L289 0H142zm1009 715q157 0 241-109 73-94 73-262 0-186-89-282-83-89-225-89-156 0-240 109-73 94-73 266 0 182 89 278 83 89 224 89zm146-391v41q0 127-35 180-34 51-111 51-83 0-116-61-29-54-29-170v-41q0-128 35-181 34-51 110-51 84 0 117 61 29 54 29 171zm584 391q156 0 240-109 73-94 73-262 0-186-89-282-83-89-225-89-156 0-240 109-73 94-73 266 0 182 89 278 83 89 225 89zm145-391v41q0 127-35 180-34 51-110 51-84 0-117-61-29-54-29-170v-41q0-128 35-181 34-51 111-51 83 0 116 61 29 54 29 171z"/><glyph unicode="‹" horiz-adv-x="610" vert-adv-y="2458" d="M522 104H379L96 495v89l283 393h143L282 541z"/><glyph unicode="›" horiz-adv-x="610" vert-adv-y="2458" d="M88 104l240 437L88 977h143l283-391v-88L231 104H88z"/><glyph unicode="‾" horiz-adv-x="614" vert-adv-y="2458" d="M-88 1733v145h791v-145H-88z"/><glyph unicode="⁄" horiz-adv-x="287" vert-adv-y="2458" d="M-485 0L625 1446h147L-338 0h-147z"/><glyph unicode="⁰" horiz-adv-x="778" vert-adv-y="2458" d="M84 1013v154q0 147 77 227 80 85 228 85 162 0 241-100 64-79 64-212v-154q0-146-77-227-80-85-228-85-161 0-241 100-64 79-64 212zm443 16v122q0 104-27 151-33 58-111 58-85 0-117-69-21-46-21-140v-122q0-104 27-151 33-58 111-58 85 0 117 69 21 46 21 140z"/><glyph unicode="⁴" horiz-adv-x="778" vert-adv-y="2458" d="M59 869v93l398 547h180L256 985h220v233l153 16V985h100V869H629V724H476v145H59z"/><glyph unicode="⁵" horiz-adv-x="778" vert-adv-y="2458" d="M657 1465l-17-122H314l-23-162q49 8 94 8 268 0 268-206 0-199-244-271-110-33-313-43v125q178 10 277 54 114 51 114 129 0 98-161 98-86 0-196-23l61 413h466z"/><glyph unicode="⁶" horiz-adv-x="778" vert-adv-y="2458" d="M254 1142q78 50 192 50 257 0 257-232 0-133-87-199-79-60-214-60-157 0-241 85-82 84-82 270 0 137 49 223 80 144 282 201 69 19 224 31v-124q-202-17-291-88-59-47-77-109-5-17-12-48zm-5-121v-18q5-104 57-151 39-35 99-35 133 0 133 134 0 126-135 126-51 0-103-24-20-9-38-22-13-9-13-10z"/><glyph unicode="⁷" horiz-adv-x="778" vert-adv-y="2458" d="M118 671l406 666H81l17 128h597v-99L308 671H118z"/><glyph unicode="⁸" horiz-adv-x="778" vert-adv-y="2458" d="M567 1118q65-31 93-64 39-46 39-122 0-121-83-176-85-55-223-55-316 0-316 217 0 100 68 147 23 16 66 38-44 25-64 49-37 43-37 117 0 103 71 154 80 56 210 56 138 0 217-57 62-46 62-139 0-82-46-125-20-19-57-40zm-143 47l6 3q85 44 85 102 0 43-34 67-37 27-93 27-54 0-90-27-31-22-31-59 0-67 157-113zm-72-113q-120-45-120-127 0-47 38-74 49-35 124-35 69 0 112 33 36 29 36 72 0 83-190 131z"/><glyph unicode="⁹" horiz-adv-x="778" vert-adv-y="2458" d="M523 1038q-77-49-192-49-256 0-256 232 0 136 91 201 79 57 209 57 101 0 179-40 144-74 144-318 0-178-97-284-102-113-310-151-47-8-168-17v125q213 17 306 87 62 48 82 109 6 17 12 48zm6 121q0 4-1 13-3 72-32 125-37 66-123 66-133 0-133-134 0-125 135-125 51 0 102 24 20 9 39 21 13 9 13 10z"/><glyph unicode="₀" horiz-adv-x="778" vert-adv-y="2458" d="M84 289v154q0 147 77 227 80 85 228 85 162 0 241-100 64-80 64-212V289q0-146-77-227-80-85-228-85-162 0-241 100-64 79-64 212zm443 16v122q0 104-27 151-33 58-111 58-85 0-117-69-21-46-21-140V305q0-104 27-151 33-58 111-58 85 0 117 69 21 46 21 140z"/><glyph unicode="₁" horiz-adv-x="778" vert-adv-y="2458" d="M138 0v110h188v487l-199-60v122l265 91h102V110h178V0H138z"/><glyph unicode="₂" horiz-adv-x="778" vert-adv-y="2458" d="M94 0v99q156 114 248 191 157 131 157 234 0 107-137 107-99 0-249-79v137q135 66 275 66 279 0 279-221 0-132-104-234-71-70-211-177h331L668 0H94z"/><glyph unicode="₃" horiz-adv-x="778" vert-adv-y="2458" d="M81-55V70q189 11 288 48 132 49 132 129 0 86-121 86-54 0-147-19v113q133 20 172 40 64 32 64 85 0 36-26 57-32 25-87 25-90 0-242-62v129q164 54 275 54 246 0 246-196 0-71-34-108-16-17-48-37 118-43 118-161 0-137-111-202-127-76-338-96-39-4-141-10z"/><glyph unicode="₄" horiz-adv-x="778" vert-adv-y="2458" d="M59 146v93l398 546h180L256 262h220v232l153 17V262h100V146H629V0H476v146H59z"/><glyph unicode="₅" horiz-adv-x="778" vert-adv-y="2458" d="M657 741l-17-122H314l-23-162q50 8 94 8 268 0 268-206 0-199-244-271Q299-45 96-55V70q178 10 277 54 114 51 114 129 0 98-161 98-86 0-196-23l61 413h466z"/><glyph unicode="₆" horiz-adv-x="778" vert-adv-y="2458" d="M254 418q78 50 192 50 257 0 257-232 0-133-87-199-79-60-214-60-157 0-241 85-82 84-82 270 0 137 49 224 80 143 282 200 69 19 224 32V663q-202-17-291-88-59-47-77-108-5-18-12-49zm-5-121v-18q5-104 57-151 39-35 99-35 133 0 133 134 0 126-135 126-51 0-103-24-20-10-38-22-13-9-13-10z"/><glyph unicode="₇" horiz-adv-x="778" vert-adv-y="2458" d="M118-53l406 667H81l17 128h597v-99L308-53H118z"/><glyph unicode="₈" horiz-adv-x="778" vert-adv-y="2458" d="M567 394q65-31 93-64 39-46 39-122 0-121-83-176-85-55-223-55Q77-23 77 193q0 101 68 148 23 16 66 38-44 25-64 49-37 44-37 117 0 103 71 154 79 56 210 56 139 0 217-57 62-46 62-139 0-82-46-125-20-19-57-40zm-143 47l6 3q85 45 85 102 0 43-34 67-37 27-93 27-54 0-90-27-31-22-31-58 0-68 157-114zm-72-113q-120-45-120-127 0-47 38-74 49-35 124-35 69 0 112 33 36 28 36 72 0 83-190 131z"/><glyph unicode="₉" horiz-adv-x="778" vert-adv-y="2458" d="M523 315q-77-50-192-50-256 0-256 232 0 136 91 201 79 57 209 57 102 0 179-40 144-74 144-318 0-177-97-284Q499 0 291-37q-47-9-168-18V70q213 17 306 88 62 47 82 108 6 17 12 49zm6 120q0 4-1 13-3 72-32 125-37 66-123 66-133 0-133-134 0-125 135-125 51 0 102 24 20 9 39 22z"/><glyph unicode="€" horiz-adv-x="1200" vert-adv-y="2458" d="M90 836v131h147q17 128 41 205 51 161 181 256 135 98 353 98 143 0 300-43v-168q-174 60-305 60-210 0-294-141-53-88-69-267h430V836H440V647h434V516H444q19-177 74-262 85-133 294-133 107 0 202 30 35 11 116 44V33Q980-31 802-31q-319 0-461 211-64 94-90 243-7 34-14 93H90v131h143v189H90z"/><glyph unicode="№" vert-adv-y="2458" d="M614 1013q133 0 223-93 84-87 84-214 0-126-84-214-90-93-222-93-134 0-224 93-84 88-84 218 0 125 84 210 92 93 223 93z"/><glyph unicode="™" horiz-adv-x="1030" vert-adv-y="2458" d="M379 1489v-68H254v-379h-86v379H35l4 68h340zm80-447l10 447h105l121-285 123 285h104v-447h-86v334l-129-293h-45l-123 287-6-328h-74z"/><glyph unicode="Ω" horiz-adv-x="1624" vert-adv-y="2458" d="M64 0v132h296q-105 88-162 191-91 166-91 406 0 364 193 583 187 212 513 212 351 0 540-246 165-214 165-549 0-258-105-431-54-88-148-166h296V0H933v139h33q112 0 205 113 136 165 136 465 0 326-140 505-121 155-354 155-250 0-374-181-121-177-121-479 0-300 137-465 93-113 205-113h33V0H64z"/><glyph unicode="∂" vert-adv-y="2458" d="M365 1548h205q248-195 372-400 99-165 128-341 19-120 19-256 0-248-85-379Q871-33 615-33q-254 0-381 182-94 137-94 388 0 267 137 410 126 132 319 132 87 0 147-33 35-19 73-61-64 134-155 255-107 141-296 308zm260-604q-156 0-223-107-41-65-51-149-8-73-8-165 0-208 60-304 70-113 215-113 151 0 215 125 33 64 41 134 10 84 10 188 0 204-56 291-64 100-203 100z"/><glyph unicode="∆" vert-adv-y="2458" d="M1259 0H-30l540 1489h215zM219 144h780L608 1272z"/><glyph unicode="∏" vert-adv-y="2458" d="M114-332v155l434 889-399 814v164h941v-149H354l405-824-444-899h845v-150H114z"/><glyph unicode="∑" vert-adv-y="2458" d="M1206 1690v-150h-133V-332H874v1872H355V-332H156v1872H23v150h1183z"/><glyph unicode="−" vert-adv-y="2458" d="M150 611v147h930V611H150z"/><glyph unicode="√" vert-adv-y="2458" d="M480 0L276 666H125v135h296l158-549 480 1554h582v-132h-442L679 0H480z"/><glyph unicode="∞" horiz-adv-x="1720" vert-adv-y="2458" d="M860 602Q703 364 483 364q-174 0-267 115-74 91-74 234 0 144 74 235 93 114 267 114 220 0 377-238 158 238 378 238 173 0 266-115 74-91 74-234t-74-234q-93-115-266-115-218 0-378 238zm-84 111l-10 17q-53 89-128 148-71 57-148 57-91 0-141-62-51-63-51-160 0-103 56-166 49-56 135-56 85 0 172 78 70 62 106 127zm169 0l8-17q34-66 123-141 77-64 155-64 86 0 136 56 56 63 56 166 0 97-51 160-50 62-140 62-82 0-160-64-69-58-118-141z"/><glyph unicode="∫" horiz-adv-x="614" vert-adv-y="2458" d="M-1-332v139q56-16 100-16 79 0 99 74 9 30 9 140v1304q0 228 29 292 57 122 244 122 72 0 135-23v-139q-58 16-101 16-79 0-99-73-9-32-9-140V60q0-230-30-293-57-122-243-122-72 0-134 23z"/><glyph unicode="≃" vert-adv-y="2458" d="M150 448v147h930V448H150zm131 279l-103 74q123 182 280 182 63 0 181-33 99-28 146-28 59 0 116 49 20 17 48 47l103-76q-53-78-103-119-80-65-178-65-62 0-179 33-102 28-148 28-74 0-163-92z"/><glyph unicode="≈" vert-adv-y="2458" d="M280 358l-103 74q124 182 280 182 63 0 181-33 100-28 146-28 59 0 116 49 20 17 48 47l103-76q-53-77-103-119-79-65-177-65-63 0-180 33-102 28-148 28-73 0-163-92zm0 369l-103 74q124 182 280 182 63 0 181-33 99-28 146-28 59 0 116 49 20 17 48 47l103-76q-53-78-103-119-80-65-177-65-63 0-180 33-102 28-148 28-74 0-163-92z"/><glyph unicode="≠" vert-adv-y="2458" d="M150 775v147h507l121 254 117-50-97-204h282V775H728l-85-180h437V448H573L452 194l-117 50 97 204H150v147h352l85 180H150z"/><glyph unicode="≤" vert-adv-y="2458" d="M1055 246L152 592v182l903 348V952L306 684l749-268V246zM152 0v147h903V0H152z"/><glyph unicode="≥" vert-adv-y="2458" d="M174 246v170l749 268-749 268v170l903-346V594zm0-246v147h903V0H174z"/><glyph unicode="⋅" horiz-adv-x="614" vert-adv-y="2458" d="M307 822q63 0 104-43 38-39 38-99 0-59-38-99-40-42-103-42-64 0-104 42-38 40-38 101 0 59 38 97 42 43 103 43z"/><glyph unicode="◊" vert-adv-y="2458" d="M615-86L8 744l607 829 607-829zm0 277l392 553-392 552-392-552z"/><glyph unicode="" horiz-adv-x="1060" vert-adv-y="2120" d="M0 1060h1060V0H0v1060z"/><glyph unicode="" horiz-adv-x="211" vert-adv-y="2458" d="M-8 1171l66 377h204l-116-377H-8z"/><glyph unicode="" horiz-adv-x="1024" vert-adv-y="2458" d="M754 1548l-148-348H385l199 348h170z"/><glyph unicode="" horiz-adv-x="1024" vert-adv-y="2458" d="M311-430L469-82h164L526-430H311z"/><glyph unicode="" horiz-adv-x="1024" vert-adv-y="2458" d="M348 1171l66 377h204l-116-377H348z"/><glyph unicode="" horiz-adv-x="1024" vert-adv-y="2458" d="M311-430L469-82h164L526-430H311z"/><glyph unicode="" horiz-adv-x="1049" vert-adv-y="2458" d="M63 72v174q90-50 157-75 126-46 258-46 148 0 228 61 79 61 79 173t-93 190q-49 41-229 143-177 101-244 168-115 115-115 280 0 192 144 300 113 84 308 84 176 0 349-74v-170q-70 33-116 50-114 40-236 40-267 0-267-212 0-84 45-145 45-63 218-157 167-92 207-120 121-83 174-175 49-84 49-188 0-124-67-221Q786-29 482-29 274-29 63 72zm218-502L439-82h164L496-430H281z"/><glyph unicode="" horiz-adv-x="903" vert-adv-y="2458" d="M98 49v158q70-36 123-54 92-31 199-31 105 0 158 30 59 33 59 114 0 55-31 89-34 38-174 91-175 66-238 124-86 79-86 211 0 140 95 218 92 76 266 76 132 0 291-59V846q-170 77-292 77-192 0-192-128 0-72 50-109 42-31 173-80 154-58 204-96 112-85 112-228 0-147-105-229-97-78-276-78-174 0-336 74zm92-479L348-82h164L405-430H190z"/><glyph unicode="" horiz-adv-x="1024" vert-adv-y="2458" d="M512 1878q56 0 92-37 33-35 33-88t-33-88q-36-37-92-37t-92 37q-33 35-33 90 0 52 33 86 37 37 92 37z"/><glyph unicode="" horiz-adv-x="1024" vert-adv-y="2458" d="M231 1894h141q21-127 140-127 118 0 139 127h141q-8-114-69-180-78-86-211-86-134 0-212 86-61 66-69 180z"/><glyph unicode="" horiz-adv-x="1024" vert-adv-y="2458" d="M734-409q-65-19-121-19-99 0-168 47-76 50-76 149 0 108 117 232h115q-68-119-68-187 0-100 107-100 44 0 94 19v-141z"/><glyph unicode="" horiz-adv-x="1024" vert-adv-y="2458" d="M311-348L469 0h164L526-348H311z"/><glyph unicode="" horiz-adv-x="1024" vert-adv-y="2458" d="M512 2009q106 0 170-65 58-59 58-148t-58-148q-64-65-169-65-106 0-170 65-58 59-58 151 0 88 58 145 66 65 169 65zm0-92q-57 0-88-41-24-31-24-78 0-51 24-82 31-41 89-41 57 0 88 41 24 31 24 80 0 50-24 80-32 41-89 41z"/><glyph unicode="" horiz-adv-x="1024" vert-adv-y="2458" d="M272 1620l-88 68q97 166 224 166 46 0 121-27 62-22 97-22 63 0 123 79l88-67q-42-72-81-108-64-60-142-60-46 0-120 26-65 23-100 23-64 0-122-78z"/><glyph unicode="" horiz-adv-x="1024" vert-adv-y="2458" d="M190 1612l224 319h197l223-319H673l-161 186-160-186H190z"/><glyph unicode="" horiz-adv-x="514" vert-adv-y="2458" d="M-31-436v145q193 44 193 266v1059q100 5 157 51h33V2q0-393-383-438z"/><glyph unicode="" horiz-adv-x="1024" vert-adv-y="2458" d="M401 1612l131 319h221l-182-319H401z"/><glyph unicode="" horiz-adv-x="1024" vert-adv-y="2458" d="M834 1931l-223-319H414l-224 319h162l160-186 161 186h161z"/><glyph unicode="" horiz-adv-x="1024" vert-adv-y="2458" d="M338 1867q51 0 84-34 30-32 30-80 0-49-30-81-33-34-86-34-50 0-83 34-30 32-30 81t30 80q34 34 85 34zm349 0q52 0 85-34 30-32 30-80 0-49-30-81-33-34-86-34-50 0-83 34-30 32-30 81t30 80q34 34 84 34z"/><glyph unicode="" horiz-adv-x="1024" vert-adv-y="2458" d="M602 1612H432l-182 319h221z"/><glyph unicode="" horiz-adv-x="1024" vert-adv-y="2458" d="M608 1612l91 319h182l-123-319H608zm-315 0l90 319h182l-122-319H293z"/><glyph unicode="" horiz-adv-x="1024" vert-adv-y="2458" d="M240 1669v156h545v-156H240z"/><glyph unicode="" horiz-adv-x="1147" vert-adv-y="2458" d="M96 624v204q0 317 111 477 123 178 366 178t366-178q111-160 111-477V624q0-317-111-477Q816-31 573-31T207 147Q96 307 96 624zm743-24v253q0 222-46 338-57 147-220 147t-220-147q-46-116-46-338V600q0-222 46-339 57-147 220-147t220 147q46 117 46 339z"/><glyph unicode="" horiz-adv-x="885" vert-adv-y="2458" d="M73 0v131h301v1135L59 1153v135l403 168h111V131h279V0H73z"/><glyph unicode="" horiz-adv-x="1020" vert-adv-y="2458" d="M49 0v117q257 246 378 381 151 166 204 282 57 124 57 276 0 269-235 269-187 0-375-149v172q171 135 386 135 235 0 347-144 84-108 84-292 0-193-107-362-84-131-285-330-44-44-208-201h637L914 0H49z"/><glyph unicode="" horiz-adv-x="1044" vert-adv-y="2458" d="M33-90V74q171 8 268 26 248 46 356 158 79 83 79 227 0 109-51 157-53 50-161 50-81 0-239-32v147q190 45 258 77 81 38 113 104 26 52 26 134 0 101-48 148-57 55-179 55-164 0-371-108v166q198 100 386 100 415 0 415-353 0-149-87-234-52-50-161-97 81-11 124-30 177-75 177-285 0-360-423-499Q329-76 33-90z"/><glyph unicode="" horiz-adv-x="1094" vert-adv-y="2458" d="M882 0H683v319H12v102l651 1103h186L229 458h454v478l199 24V458h191V319H882V0z"/><glyph unicode="" horiz-adv-x="983" vert-adv-y="2458" d="M905 1446l-18-152H350l-55-438q96 26 174 26 203 0 314-114 100-102 100-286 0-252-158-382Q570-28 304-69 222-81 49-90V73q201 9 306 34 200 48 273 154 54 78 54 223 0 119-57 171-78 71-242 71-117 0-268-38l96 758h694z"/><glyph unicode="" horiz-adv-x="1133" vert-adv-y="2458" d="M936 1536v-164q-189-17-286-55-155-59-248-188-92-129-103-355 141 115 323 115 192 0 301-97 128-114 128-343 0-228-138-358Q783-31 586-31q-259 0-388 209Q88 356 88 686q0 241 75 397 126 266 416 381 144 56 357 72zM299 635q0-158 21-262 24-117 77-179 65-78 196-78 150 0 206 102 41 75 41 228 0 186-67 246-59 52-184 52-109 0-196-45-29-15-58-36-36-26-36-28z"/><glyph unicode="" horiz-adv-x="893" vert-adv-y="2458" d="M74-90l628 1374H0l12 162h867v-125L279-90H74z"/><glyph unicode="" horiz-adv-x="1145" vert-adv-y="2458" d="M379 758q-99 56-150 109-96 101-96 251 0 190 147 288 115 77 304 77 199 0 311-81 121-88 121-266 0-143-102-250-55-57-148-110 137-64 195-121 100-97 100-264 0-181-110-289Q816-31 573-31 331-31 194 95 84 196 84 370q0 181 131 291 60 51 164 97zm135-64l-10-4q-43-20-73-40-144-99-144-281 0-110 60-172 79-81 230-81 157 0 231 84 52 58 52 162 0 137-107 212-66 46-239 120zm123 142q22 14 35 23 55 40 90 88 51 70 51 178 0 213-240 213-241 0-241-200 0-88 54-147 48-54 150-107 97-51 101-48z"/><glyph unicode="" horiz-adv-x="1133" vert-adv-y="2458" d="M168 80q194 17 299 55 251 91 330 324 30 87 37 219-141-115-323-115-185 0-293 90Q82 766 82 1003q0 233 142 365 125 115 322 115 260 0 389-209 110-178 110-504 0-246-72-404Q852 103 539-13 390-69 168-84V80zm666 737q0 158-22 262-24 117-76 179-65 78-197 78-148 0-204-102-42-77-42-227 0-187 67-247 58-52 183-52 111 0 198 46 28 15 57 36 36 26 36 27z"/><glyph unicode="ﬀ" horiz-adv-x="1358" vert-adv-y="2458" d="M53 924v137h158v80q0 141 55 232 91 153 307 153h90v-152q-33 9-63 9-199 0-199-225v-97h472v80q0 150 57 247 96 162 321 162h107v-151q-43 8-77 8-218 0-218-249v-97h260V924h-260V0H873v924H401V0H211v924H53z"/><glyph unicode="ﬁ" horiz-adv-x="1225" vert-adv-y="2458" d="M53 924v137h158v79q0 147 55 247 89 163 307 163h90v-152q-34 9-62 9-200 0-200-250v-96h394q162 0 225 24h43V0H873v924H401V0H211v924H53zm911 569q56 0 92-37 33-35 33-88t-33-88q-36-37-92-37t-92 37q-33 35-33 90 0 52 33 86 37 37 92 37z"/><glyph unicode="ﬂ" horiz-adv-x="1235" vert-adv-y="2458" d="M53 924v137h158v43q0 176 66 278 110 171 430 171 156 0 356-46V0H873v1394q-102 14-169 14-169 0-239-72-64-66-64-191v-84h236V924H401V0H211v924H53z"/><glyph unicode="ﬃ" horiz-adv-x="1886" vert-adv-y="2458" d="M872 1061v79q0 148 55 248 89 162 308 162h90v-151q-33 8-62 8-201 0-201-250v-96h394q161 0 225 24h43V0h-190v924h-472V0H872v924H401V0H211v924H53v137h158v79q0 141 55 233 91 153 307 153h90v-152q-33 8-63 8-199 0-199-225v-96h471zm754 432q56 0 92-37 33-35 33-88t-33-88q-36-37-92-37t-92 37q-33 35-33 90 0 52 33 86 37 37 92 37z"/><glyph unicode="ﬄ" horiz-adv-x="1896" vert-adv-y="2458" d="M872 1061v43q0 176 66 278 110 171 430 171 152 0 356-45V0h-190v1394q-104 14-169 14-169 0-239-72-64-66-64-191v-84h236V924h-236V0H872v924H401V0H211v924H53v137h158v80q0 141 55 232 91 153 307 153h90v-152q-33 9-63 9-199 0-199-225v-97h471z"/><glyph horiz-adv-x="1356" vert-adv-y="1356"/><glyph horiz-adv-x="492" vert-adv-y="2458"/><glyph vert-adv-y="2458" d="M128 0v116l34 31q336 306 456 443 122 138 163 261 32 95 32 205 0 270-260 270-202 0-394-141v162q172 136 406 136 247 0 365-143 89-109 89-293 0-194-114-362-89-131-305-331-40-37-222-201h681L1039 0H128z"/><glyph vert-adv-y="2458" d="M111-90V74q183 8 281 25 259 44 379 153 93 85 93 231 0 111-57 159-58 50-178 50-92 0-248-30v145q35 8 52 12 206 46 278 96 53 37 74 83 22 50 22 126 0 104-59 151-63 51-193 51-177 0-389-103v159q195 101 406 101 227 0 335-97 102-92 102-256 0-149-91-234-56-50-172-97 114-16 174-49 146-83 146-267 0-360-450-498-198-60-505-75z"/><glyph vert-adv-y="2458" d="M969 0H771v319H51v102l697 1102h186L269 458h502v478l198 23V458h204V319H969V0z"/><glyph vert-adv-y="2458" d="M1050 1446l-20-151H456l-60-442q114 30 195 30 212 0 329-114 106-103 106-286 0-253-167-382Q693-26 411-68q-88-12-263-21V74q212 9 320 33 212 46 295 149 63 80 63 228 0 122-63 173-86 71-265 71-130 0-279-36l102 754h729z"/><glyph vert-adv-y="2458" d="M1016 1536v-164q-205-17-310-55-167-59-268-188-78-100-101-241-7-44-11-114 153 115 348 115 202 0 315-91 142-115 142-349 0-232-151-363Q844-31 637-31q-270 0-406 208-116 178-116 498 0 246 80 412 128 266 441 378 154 55 380 71zM326 635q0-158 23-262 27-117 84-180 71-77 214-77 165 0 227 102 46 75 46 228 0 186-75 246-64 52-202 52-119 0-213-45-32-15-64-36-40-26-40-28z"/><glyph vert-adv-y="2458" d="M229-90l702 1374H104l13 162h988v-125L434-90H229z"/><glyph vert-adv-y="2458" d="M213 80q205 17 310 55 167 58 268 188 78 100 101 241 7 44 11 114-153-115-348-115-194 0-306 85Q98 762 98 1003q0 237 159 369 133 111 335 111 270 0 406-209 116-177 116-497 0-246-80-412Q906 99 593-13 439-69 213-84V80zm690 737q0 158-23 262-27 117-84 180-71 77-215 77-164 0-226-102-46-75-46-228 0-186 75-246 64-52 202-52 120 0 215 45 31 15 62 36 40 26 40 28z"/><glyph vert-adv-y="2458" d="M815 776q155-71 202-114 112-102 112-271 0-181-117-289Q870-31 614-31 354-31 213 95 97 199 97 376q0 175 138 284 58 46 176 98-112 59-167 118-94 98-94 241 0 178 132 273 128 93 343 93 207 0 327-81 128-87 128-266 0-147-114-255-56-54-151-105zm-265-80l-18-8q-98-41-159-107-74-81-74-212 0-115 67-174 91-79 252-79 173 0 255 84 56 58 56 160 0 113-72 179-60 55-188 109-31 13-119 48zm133 137q40 24 77 51 118 90 118 240 0 214-263 214-267 0-267-199 0-111 99-184 71-52 236-122z"/><glyph horiz-adv-x="1126" vert-adv-y="2458" d="M68 0v154h172v509H68v150h172v197q0 134 24 208 42 131 162 202 107 63 270 63 165 0 314-64v-168q-168 74-305 74-156 0-221-91-45-63-45-221V813h368V663H439V154h616L1037 0H68z"/><glyph horiz-adv-x="1063" vert-adv-y="2458" d="M895 1239q-130 60-240 82l-71-521q158-84 229-141 156-127 156-299 0-139-88-239Q750-29 471-31l-35-262H301l37 272Q200 0 61 65v170q158-85 297-108l76 555q-165 92-232 157Q86 952 86 1109q0 210 190 312 112 60 267 61l20 156h135l-22-166q119-22 219-67v-166zM491 119q144 10 209 62 76 60 76 168 0 105-95 183-40 33-122 80zm31 1214q-84-6-128-23-128-49-128-183 0-100 76-174 37-36 117-85z"/><glyph horiz-adv-x="997" vert-adv-y="2458" d="M826 1048q48-12 88-28V850q-90 37-136 50L529 121q39-4 72-4 110 0 221 43 49 19 112 49V52Q759-33 594-33q-52 0-112 8l-86-268H255l97 304Q87 127 87 525q0 281 134 421 128 133 367 133 51 0 105-6l61 193h142zM401 164l244 761q-47 2-67 2-172 0-236-103-52-85-52-307 0-206 51-288 23-38 60-65z"/><glyph horiz-adv-x="883" vert-adv-y="2458" d="M125 676v137h213l27 203q30 233 138 336 98 94 271 94h127v-152q-64 9-100 9-111 0-170-65-54-59-70-183l-30-242h264V676H514L377-414H180L320 676H125z"/><glyph horiz-adv-x="1110" vert-adv-y="2458" d="M45 811v131h145q16 131 46 217 63 175 217 260 117 64 298 64 145 0 289-41v-168q-177 57-293 57-219 0-298-156-39-78-54-233h414V811H393V629h416V498H397q18-170 69-250 82-125 285-125 155 0 310 73V31Q902-31 740-31q-323 0-461 224-54 88-77 219-5 30-12 86H45v131h139v182H45z"/><glyph vert-adv-y="2458" d="M132 557v131h353L53 1446h221l356-656 347 656h198L741 688h366V557H719V399h388V268H719V0H521v268H132v131h389v158H132z"/><glyph horiz-adv-x="1075" vert-adv-y="2458" d="M82 557v131h329L8 1446h219l325-643 318 643h198L663 688h342V557H643V399h362V268H643V0H444v268H82v131h362v158H82z"/><glyph vert-adv-y="2458" d="M69 811v131h156q17 122 43 199 42 126 145 216 146 126 406 126 167 0 301-41v-165q-180 55-307 55-248 0-332-168-36-73-52-222h443V811H427V628h445V497H431q19-170 75-250 88-125 312-125 166 0 324 68V31Q994-31 806-31q-340 0-487 224-57 87-81 217-6 31-13 87H69v131h149v183H69z"/><glyph vert-adv-y="2458" d="M247 676v137h234l26 203q31 234 139 337 98 93 271 93h147v-151q-73 8-119 8-112 0-171-65-54-59-70-183l-31-242h285V676H657L520-414H323L462 676H247z"/><glyph vert-adv-y="2458" d="M941 1047q53-14 89-27V850q-94 37-136 48L644 119q26-2 49-2 121 0 238 43 52 19 119 49V52Q864-33 688-33q-47 0-91 5l-85-265H370L465 1Q348 44 278 127 162 265 162 525q0 281 140 421 133 133 380 133 51 0 126-7l62 194h142zM512 148l248 775q-39 4-79 4-191 0-260-103-56-85-56-306 0-205 53-288 34-52 94-82z"/><glyph vert-adv-y="2458" d="M1011 1244q-127 55-256 79l-77-522q157-77 231-131 93-68 136-139 45-76 45-170 0-145-99-247Q850-30 557-31l-37-262H390l39 272Q266 1 133 65v164q162-81 318-104l81 556q-188 99-253 161-120 112-120 266 0 203 188 306 124 68 302 68l22 156h129l-24-165q145-25 235-68v-161zM579 118q320 10 320 232 0 106-111 188-41 30-136 80zm48 1216q-97-6-145-22-145-47-145-185 0-103 89-180 38-33 132-86z"/><glyph vert-adv-y="2458" d="M91 664v149h184v244q0 207 136 321 125 105 346 105 187 0 328-64v-163q-83 32-116 42-95 28-204 28-292 0-292-259V813h395V664H473V153h660L1113 0H91v153h184v511H91z"/><glyph vert-adv-y="2458" d="M111 600v252q0 285 126 451 137 180 378 180 240 0 377-180 126-166 126-451V600q0-284-126-451Q856-31 615-31q-242 0-378 180-126 167-126 451zm796-12v276q0 227-59 344-65 130-234 130-168 0-233-130-59-117-59-344V588q0-207 45-314 66-160 247-160 193 0 256 179 37 107 37 295z"/><glyph vert-adv-y="2458" d="M154 0v131h405v1139l-338-113v131l429 168h107V131h339V0H154z"/><glyph horiz-adv-x="492" vert-adv-y="2458"/></font>
</defs>
</svg>
