<svg xmlns="http://www.w3.org/2000/svg"><defs><font id="DBHeadLightRegular" horiz-adv-x="1229" vert-adv-y="2048"><font-face units-per-em="2048" ascent="1597" descent="-451"/><glyph horiz-adv-x="0" vert-adv-y="0"/><glyph horiz-adv-x="492" vert-adv-y="2458"/><glyph horiz-adv-x="492" vert-adv-y="2458"/><glyph unicode="!" horiz-adv-x="502" vert-adv-y="2458" d="M203 393l-37 1096h164L295 393h-92zm44-190q50 0 82-33 29-30 29-78 0-47-29-77-32-33-81-33-50 0-82 33-29 30-29 79 0 46 29 76 33 33 81 33z"/><glyph unicode="&quot;" horiz-adv-x="780" vert-adv-y="2458" d="M507 956l-34 533h157l-30-533h-93zm-327 0l-33 533h158l-33-533h-92z"/><glyph unicode="#" vert-adv-y="2458" d="M205 901v119h227l86 485h105l-86-485h247l86 485h105l-86-485h204V901H868l-47-276h207V510H801L713 0H608l88 510H449L361 0H256l88 510H139v115h226l47 276H205zm311 0l-47-276h248l47 276H516z"/><glyph unicode="$" horiz-adv-x="991" vert-adv-y="2458" d="M295-260l32 248Q184 7 49 82v125q148-89 295-113l86 631q-133 75-199 131Q88 977 88 1151q0 190 147 289 110 74 271 74 16 0 34-2l21 151h106l-22-164q91-20 190-65v-121q-112 53-207 78l-80-586q141-80 207-136 152-128 152-305 0-138-80-236Q706-21 434-20l-33-240H295zM448 88q135 5 204 45 116 68 116 223 0 127-103 220-45 40-135 94zm76 1317q-303 2-303-244 0-123 89-204 44-41 138-97z"/><glyph unicode="%" horiz-adv-x="1472" vert-adv-y="2458" d="M383 1518q126 0 203-78 87-86 87-276 0-191-87-277-77-78-203-78-125 0-202 78-55 54-75 140-12 54-12 140 0 187 87 273 77 78 202 78zm0-96q-93 0-130-69-28-52-28-186 0-154 37-207 38-55 121-55 94 0 131 69 28 52 28 190 0 150-37 203-38 55-122 55zM159 0l1026 1493h125L288 0H159zm930 688q125 0 203-77 86-86 86-277t-86-277q-78-77-203-77T885 57q-54 55-74 141-12 54-12 140 0 186 86 273 78 77 204 77zm0-96q-94 0-131-68-28-53-28-186 0-154 37-207 38-55 121-55 93 0 131 69 28 52 28 189 0 151-37 203-38 55-121 55z"/><glyph unicode="&amp;" horiz-adv-x="1419" vert-adv-y="2458" d="M967 160Q891 83 816 43 698-21 545-21q-244 0-365 132-94 103-94 292 0 124 41 206 51 105 166 182 48 33 137 74-127 168-127 331 0 155 116 247 89 71 214 71 159 0 245-109 64-81 64-197 0-147-123-248-60-49-192-116l350-461q29 53 51 103l160 354h141l-196-428q-31-66-74-137l57-76q36-47 62-69 37-31 93-31 38 0 93 18V2q-53-22-115-22-84 0-140 33-46 28-116 114zM492 791q-108-60-156-106-61-58-83-131-17-58-17-144 0-174 84-249 79-71 229-71 204 0 344 168zm77 123q31 17 49 28 76 45 118 96 59 71 59 168 0 75-30 127-42 75-135 75-94 0-146-77-36-52-36-130 0-89 47-179 17-34 40-65 32-44 34-43z"/><glyph unicode="'" horiz-adv-x="455" vert-adv-y="2458" d="M180 956l-33 533h158l-33-533h-92z"/><glyph unicode="(" horiz-adv-x="860" vert-adv-y="2458" d="M625-346Q432-152 334 49q-77 158-106 330-19 107-19 254 0 206 44 367 55 202 177 382 73 108 195 230h114q-201-220-287-422-61-144-85-304-15-101-15-253 0-205 33-351 49-211 168-395 66-101 186-233H625z"/><glyph unicode=")" horiz-adv-x="860" vert-adv-y="2458" d="M236 1612q192-193 290-395 77-159 106-330 19-107 19-254 0-206-44-367-55-202-177-382-73-108-194-230H121Q322-127 408 76q61 144 85 304 15 102 15 253 0 205-33 350-48 211-168 396-66 101-186 233h115z"/><glyph unicode="*" horiz-adv-x="758" vert-adv-y="2458" d="M316 883l45 278-213-176-72 115 246 96-238 92 68 115 207-168-43 272h131l-41-272 200 168 70-115-242-92 246-96-67-115-207 176 41-278H316z"/><glyph unicode="+" vert-adv-y="2458" d="M169 655v115h379v406h131V770h381V655H679V250H548v405H169z"/><glyph unicode="," horiz-adv-x="614" vert-adv-y="2458" d="M167-205q81 25 120 72 39 46 48 127-27-5-41-5-54 0-83 42-19 27-19 62 0 44 30 75 34 33 85 33 65 0 104-54 35-49 35-126 0-119-76-203-42-47-103-73-34-15-100-26v76z"/><glyph unicode="-" horiz-adv-x="655" vert-adv-y="2458" d="M97 624v119h461V624H97z"/><glyph unicode="." horiz-adv-x="614" vert-adv-y="2458" d="M307 203q50 0 82-33 29-30 29-78 0-47-29-77-32-33-81-33-50 0-82 33-29 30-29 79 0 46 29 76 33 33 81 33z"/><glyph unicode="/" horiz-adv-x="901" vert-adv-y="2458" d="M-70-346l836 1958h125L55-346H-70z"/><glyph unicode="0" horiz-adv-x="1284" vert-adv-y="2458" d="M113 659v175q0 316 128 489 141 191 401 191 261 0 402-191 128-173 128-489V659q0-315-128-488Q903-20 642-20q-260 0-401 191-128 173-128 488zm907 1v173q0 295-91 435-90 139-287 139-196 0-286-139-91-140-91-435V660q0-294 91-434Q446 87 642 87q197 0 287 139 91 140 91 434z"/><glyph unicode="1" horiz-adv-x="864" vert-adv-y="2458" d="M111 0v102h280v1254L88 1239v102l370 158h74V102h271V0H111z"/><glyph unicode="2" horiz-adv-x="1042" vert-adv-y="2458" d="M45 0v84q385 358 514 509 128 150 174 275 37 102 37 216 0 321-298 321-191 0-396-151v118q189 142 408 142 230 0 344-132 90-104 90-289 0-205-128-398-99-150-351-387-68-64-216-199h721L932 0H45z"/><glyph unicode="3" horiz-adv-x="1032" vert-adv-y="2458" d="M29-14v116q260 15 407 54 156 42 242 116 99 86 99 248 0 242-253 242-90 0-192-23l-37-8v111l102 20q155 31 230 87 92 69 92 221 0 78-19 119-53 118-236 118-176 0-376-110v110q194 107 387 107 217 0 317-113 72-81 72-225 0-146-83-228-53-52-169-100 95-9 150-38 162-83 162-291 0-252-218-380Q544 44 303 9 210-5 29-14z"/><glyph unicode="4" horiz-adv-x="1206" vert-adv-y="2458" d="M45 342v73l703 1074h145L213 448h588v557l143 17V448h211V342H944V0H801v342H45z"/><glyph unicode="5" horiz-adv-x="995" vert-adv-y="2458" d="M309 1380l-57-481q112 31 209 31 235 0 341-128 78-95 78-253 0-243-169-373Q537 43 264 4 197-6 57-14v116q237 18 373 65 151 53 229 143 76 87 76 244 0 161-108 222-84 48-231 48-126 0-278-38l86 703h684l-12-109H309z"/><glyph unicode="6" horiz-adv-x="1192" vert-adv-y="2458" d="M265 713q166 160 378 160 225 0 343-130 100-110 100-303 0-206-124-332Q836-20 623-20q-271 0-403 204-61 94-86 214-21 103-21 253 0 294 100 470 140 247 453 338 112 32 299 48v-114q-145-14-217-31-483-115-483-633v-16zm0-105q0-130 20-222Q351 87 627 87q156 0 235 88 75 83 75 266 0 174-88 253-80 72-223 72-129 0-242-64-42-24-74-51-45-38-45-43z"/><glyph unicode="7" horiz-adv-x="1085" vert-adv-y="2458" d="M228 0l665 1374H72l14 115h930v-92L381 0H228z"/><glyph unicode="8" horiz-adv-x="1210" vert-adv-y="2458" d="M764 793q145-64 211-120 119-102 119-273 0-210-149-322-129-98-333-98-212 0-350 100-145 105-145 309 0 174 131 285 71 60 203 117-119 56-176 111-97 93-97 242 0 152 97 249 121 121 343 121 239 0 349-130 76-90 76-234 0-115-53-190-62-87-226-167zm-209-45l-14-7q-57-26-93-47-79-48-124-106-62-79-62-204 0-141 97-220 95-77 260-77 159 0 248 85 82 78 82 206 0 130-79 205-53 51-158 99-42 20-101 43-55 23-56 23zm111 86q84 45 126 78 44 34 70 76 34 57 34 154 0 110-51 172-77 93-238 93-141 0-220-78-64-64-64-174 0-108 67-174 46-45 137-88 37-18 88-39t51-20z"/><glyph unicode="9" horiz-adv-x="1192" vert-adv-y="2458" d="M184-16v118q164 16 244 35 276 67 399 253 71 106 87 230 9 68 13 158-164-157-377-157-226 0-346 133-100 110-100 299 0 235 159 363 123 98 308 98 272 0 404-207 62-98 85-224 17-93 17-232 0-251-54-389Q900 149 528 38 412 4 184-16zm743 897v9q0 517-358 517-165 0-244-98-69-84-69-253 0-111 27-171 71-157 284-157 129 0 240 61 42 23 75 50 45 37 45 42z"/><glyph unicode=":" horiz-adv-x="614" vert-adv-y="2458" d="M307 203q50 0 82-33 29-30 29-78 0-47-29-77-32-33-81-33-50 0-82 33-29 30-29 79 0 46 29 76 33 33 81 33zm0 710q50 0 82-33 29-30 29-77 0-48-29-78-32-33-81-33-50 0-82 33-29 30-29 79 0 46 29 76 33 33 81 33z"/><glyph unicode=";" horiz-adv-x="614" vert-adv-y="2458" d="M164-205q83 25 123 72 39 46 49 127-27-5-42-5-54 0-85 44-18 26-18 61 0 43 31 74 32 33 83 33 65 0 105-55 35-49 35-125 0-118-77-203-43-47-103-73-34-15-101-26v76zM307 913q50 0 82-33 29-30 29-77 0-48-29-78-31-33-81-33t-82 33q-29 30-29 79 0 46 29 76 32 33 81 33z"/><glyph unicode="&lt;" vert-adv-y="2458" d="M1015 297L184 641v135l831 346V997L290 709l725-287V297z"/><glyph unicode="=" vert-adv-y="2458" d="M184 485v115h860V485H184zm0 340v115h860V825H184z"/><glyph unicode="&gt;" vert-adv-y="2458" d="M213 297v125l725 287-725 288v125l831-344V643z"/><glyph unicode="?" horiz-adv-x="862" vert-adv-y="2458" d="M275 393v133q0 80 46 154 29 47 146 163 106 106 138 152 49 71 49 177 0 232-252 232-108 0-205-34-47-16-123-55v117q166 82 337 82 213 0 314-117 74-84 74-226 0-124-68-217-43-59-154-167-119-117-152-175-25-44-25-92V393H275zm68-190q49 0 81-33 29-30 29-78 0-47-29-77-32-33-81-33-50 0-82 33-29 30-29 79 0 46 29 76 32 33 82 33z"/><glyph unicode="@" horiz-adv-x="1720" vert-adv-y="2458" d="M1000 262Q885 108 730 108q-224 0-224 266 0 133 35 271 48 192 161 260 74 45 175 45 82 0 145-33 30-16 72-49l49 80h76l-88-565q-4-24-4-53 0-115 114-115 135 0 211 134 74 129 74 331 0 282-170 434-159 142-428 142-343 0-541-222-190-213-190-571 0-333 190-504 164-148 443-148 189 0 363 62 89 32 204 96v-106q-116-64-210-94-163-52-350-52-357 0-570 213Q70 128 70 458q0 276 124 492 106 186 288 290 197 114 453 114 340 0 537-196 179-179 179-472 0-297-155-453-114-114-272-114-172 0-224 143zm65 532q-88 66-176 66-143 0-192-159-23-76-38-191-11-88-11-143 0-159 119-159 85 0 150 60 33 30 74 90z"/><glyph unicode="A" horiz-adv-x="1280" vert-adv-y="2458" d="M27 0l569 1499h97L1252 0h-154L924 475H344L168 0H27zm610 1266L383 584h502z"/><glyph unicode="B" horiz-adv-x="1298" vert-adv-y="2458" d="M195 0v1489h497q177 0 284-89 116-97 116-274 0-149-88-230-52-47-160-87 140-23 220-96 116-105 116-291 0-236-165-343Q892 0 688 0H195zm141 109h323q163 0 253 59 67 43 94 111 22 55 22 141 0 321-354 321H336V109zm0 741h336q266 0 266 282 0 149-82 204-65 44-182 44H336V850z"/><glyph unicode="C" horiz-adv-x="1237" vert-adv-y="2458" d="M1142 70Q959-20 745-20q-354 0-521 248-121 178-121 517 0 238 65 397 151 372 581 372 199 0 366-72v-123q-88 38-146 55-105 29-223 29-249 0-369-157-77-101-106-249-18-97-18-253 0-211 39-330Q397 90 748 90q131 0 247 38 57 20 147 65V70z"/><glyph unicode="D" horiz-adv-x="1423" vert-adv-y="2458" d="M195 0v1489h467q275 0 440-141 217-186 217-599 0-280-93-449Q1061 0 660 0H195zm141 109h307q258 0 390 147 77 85 111 219 25 100 25 263 0 239-59 381-107 261-467 261H336V109z"/><glyph unicode="E" horiz-adv-x="1180" vert-adv-y="2458" d="M195 0v1489h834v-109H336V823h549V714H336V109h763L1086 0H195z"/><glyph unicode="F" horiz-adv-x="1159" vert-adv-y="2458" d="M195 0v1489h850v-109H336V807h594V698H336V0H195z"/><glyph unicode="G" horiz-adv-x="1356" vert-adv-y="2458" d="M1148 1317q-84 37-136 52-113 34-244 34-253 0-383-154-78-92-109-243-22-106-22-268 0-227 50-354 71-182 237-253 100-42 251-42 162 0 297 48v471H794v109h438V72q-225-92-449-92-337 0-512 193-167 184-167 564 0 391 184 588 177 189 485 189 187 0 375-74v-123z"/><glyph unicode="H" horiz-adv-x="1491" vert-adv-y="2458" d="M195 0v1489h141V817h820v672h141V0h-141v708H336V0H195z"/><glyph unicode="I" horiz-adv-x="541" vert-adv-y="2458" d="M199 0v1489h143V0H199z"/><glyph unicode="J" horiz-adv-x="535" vert-adv-y="2458" d="M-33-432v107q137 26 187 91 45 59 45 165v1558h141V-57q0-173-96-268-62-61-161-87-38-11-116-20z"/><glyph unicode="K" horiz-adv-x="1241" vert-adv-y="2458" d="M195 0v1489h141V754l670 735h164L486 748 1233 0h-188L336 721V0H195z"/><glyph unicode="L" horiz-adv-x="1108" vert-adv-y="2458" d="M195 0v1489h141V109h709L1030 0H195z"/><glyph unicode="M" horiz-adv-x="1745" vert-adv-y="2458" d="M180 0l45 1489h180L870 353l494 1136h186V0h-141v1282L909 154H796L350 1276 311 0H180z"/><glyph unicode="N" horiz-adv-x="1485" vert-adv-y="2458" d="M193 0v1489h121l846-1202v1202h133V0h-100L326 1235V0H193z"/><glyph unicode="O" horiz-adv-x="1473" vert-adv-y="2458" d="M736 1514q332 0 501-249 131-194 131-518 0-356-158-555Q1040-20 735-20q-331 0-500 250-81 119-112 279-19 99-19 246 0 348 158 547 170 212 474 212zm0-107q-256 0-379-192-103-160-103-460 0-347 126-508Q505 87 736 87q254 0 379 192 103 159 103 468 0 339-126 500-125 160-356 160z"/><glyph unicode="P" horiz-adv-x="1204" vert-adv-y="2458" d="M195 0v1489h485q202 0 314-99 67-59 94-147 20-62 20-165 0-150-50-235-75-126-230-163-96-23-220-23-158 0-272 21V0H195zm141 784q124-18 270-18 176 0 260 61 60 45 80 125 12 45 12 126 0 125-35 186-67 116-259 116H336V784z"/><glyph unicode="Q" horiz-adv-x="1473" vert-adv-y="2458" d="M1273-295v-110q-165 10-245 25-163 30-242 98-78 67-113 189-8 25-21 77Q455 8 325 125 104 325 104 747q0 356 158 555 169 212 473 212 332 0 501-250 131-193 131-517 0-423-221-622Q1007 0 806-17q13-81 32-121 34-72 113-106 81-34 322-51zM735 1408q-255 0-378-192-103-161-103-461 0-347 126-509Q505 86 735 86q254 0 379 192 103 160 103 469 0 340-126 501-125 160-356 160z"/><glyph unicode="R" horiz-adv-x="1274" vert-adv-y="2458" d="M195 1489h463q182 0 294-72 93-60 126-167 18-58 18-149 0-171-100-268-63-61-154-91-35-11-105-23 90-46 164-160L1264 0h-168L764 514q-74 115-125 148-50 34-153 34H336V0H195v1489zm141-684h301q155 0 233 73 46 43 63 101 13 43 13 125 0 105-33 161-67 115-274 115H336V805z"/><glyph unicode="S" horiz-adv-x="999" vert-adv-y="2458" d="M842 1311q-185 92-344 92-279 0-279-232 0-116 79-190 52-50 206-139 200-116 284-191 132-119 132-291 0-171-121-274Q675-20 454-20 240-20 47 84v127q90-54 163-80 114-42 245-42 178 0 259 81 67 67 67 180 0 128-102 218-66 58-247 162-174 100-244 172-102 105-102 256 0 172 125 269 113 87 294 87 159 0 337-80v-123z"/><glyph unicode="T" horiz-adv-x="1167" vert-adv-y="2458" d="M59 1380l10 109h1032v-109H653V0H512v1380H59z"/><glyph unicode="U" horiz-adv-x="1452" vert-adv-y="2458" d="M1280 1489V557q0-250-92-388Q1063-20 739-20q-567 0-567 571v938h141V551q0-210 76-318Q485 95 741 95q253 0 343 156 63 108 63 304v934h133z"/><glyph unicode="V" horiz-adv-x="1276" vert-adv-y="2458" d="M588-10L35 1489h150L643 223l457 1266h141L684-10h-96z"/><glyph unicode="W" horiz-adv-x="1788" vert-adv-y="2458" d="M538-12L51 1489h150L600 231l219 605-254 653h143l187-494 178 494h137L966 854l236-623 395 1258h140L1245-12h-88L889 692 626-12h-88z"/><glyph unicode="X" horiz-adv-x="1253" vert-adv-y="2458" d="M53 0l487 774-450 715h160l383-606 374 606h150L710 772 1200 0h-160L620 666 203 0H53z"/><glyph unicode="Y" horiz-adv-x="1262" vert-adv-y="2458" d="M562 0v604L66 1489h156l419-760 408 760h147L703 590V0H562z"/><glyph unicode="Z" horiz-adv-x="1200" vert-adv-y="2458" d="M68 0v84l854 1296H123l11 109h964v-82L246 109h854l-8-109H68z"/><glyph unicode="[" horiz-adv-x="860" vert-adv-y="2458" d="M283-346v1958h457v-104H422V-242h318v-104H283z"/><glyph unicode="\" horiz-adv-x="901" vert-adv-y="2458" d="M971-346H846L10 1612h125z"/><glyph unicode="]" horiz-adv-x="860" vert-adv-y="2458" d="M121-346v104h316v1750H121v104h457V-346H121z"/><glyph unicode="^" vert-adv-y="2458" d="M214 881l350 608h127l324-608H894l-266 465-293-465H214z"/><glyph unicode="_" horiz-adv-x="614" vert-adv-y="2458" d="M-101-381v129h819v-129h-819z"/><glyph unicode="`" horiz-adv-x="1024" vert-adv-y="2458" d="M508 1194l-195 354h150l163-354H508z"/><glyph unicode="a" horiz-adv-x="1020" vert-adv-y="2458" d="M731 152Q666 79 609 39 505-33 388-33q-126 0-208 73-87 78-87 218 0 162 116 228 114 65 352 86l164 14v123q0 245-215 245-106 0-208-36-58-19-145-62v113q192 98 363 98 342 0 342-356V0h-78zm-6 346l-164-17q-175-17-253-67-73-46-73-155 0-78 34-122 50-63 143-63 165 0 313 180v244z"/><glyph unicode="b" horiz-adv-x="1159" vert-adv-y="2458" d="M305 891q194 178 378 178 162 0 266-120 120-138 120-414 0-314-157-460Q800-29 637-29q-188 0-348 158L246 0h-80v1505q72 5 106 45h33V891zm0-690Q456 86 617 86q139 0 216 88 53 60 73 154 16 74 16 211 0 143-22 215-61 196-256 196-101 0-199-52-44-24-140-91V201z"/><glyph unicode="c" horiz-adv-x="936" vert-adv-y="2458" d="M870 49q-66-30-98-41-109-41-216-41-237 0-358 149Q89 249 89 510q0 557 462 557 141 0 292-63V877q-64 30-98 43-85 34-186 34-168 0-248-96-75-91-75-348 0-153 28-235Q331 80 563 80q100 0 205 42 40 15 102 46V49z"/><glyph unicode="d" horiz-adv-x="1159" vert-adv-y="2458" d="M864 147Q662-29 478-29q-194 0-299 162-89 136-89 370 0 287 127 433 115 133 300 133 166 0 339-131v567q72 5 106 45h33V0h-82zm-8 695q-72 48-123 70-92 38-191 38-164 0-239-115-40-62-55-147-11-63-11-174 0-160 23-232Q325 85 516 85q111 0 216 58 49 27 124 82v617z"/><glyph unicode="e" horiz-adv-x="1030" vert-adv-y="2458" d="M946 515H237v-27q0-193 68-289Q388 80 576 80q152 0 331 96V57Q729-33 570-33q-239 0-368 156-72 89-97 210-15 74-15 186 0 178 43 284 62 150 189 217 93 49 212 49 209 0 317-143 95-126 95-346v-65zM794 621q-8 154-45 225-61 119-218 119-150 0-227-110-45-66-59-167-4-22-8-67h557z"/><glyph unicode="f" horiz-adv-x="647" vert-adv-y="2458" d="M41 947v106h166v147q0 134 66 222 96 130 294 130h82v-115q-37 9-76 9-124 0-182-77-45-58-45-184v-132h270V947H346V0H207v947H41z"/><glyph unicode="g" horiz-adv-x="985" vert-adv-y="2458" d="M291 389q-63-68-63-140 0-46 32-66 35-21 109-21h214q183 0 273-51 117-65 117-232 0-160-139-248-125-80-342-80-177 0-295 50Q25-327 25-173 25-73 113 0q39 32 106 66-114 47-114 156 0 100 124 202-129 104-129 283 0 160 96 255 106 105 290 105 89 0 173-29h320v-98h-70q-48 0-102-12 59-90 59-212 0-165-98-262-103-104-283-104-105 0-194 39zm20-342q-64-37-94-69-55-59-55-137 0-188 328-188 346 0 346 223 0 100-76 141-56 30-162 30H311zm175 917q-247 0-247-250 0-116 41-172 67-90 203-90 130 0 196 83 48 61 48 174 0 124-52 183-63 72-189 72z"/><glyph unicode="h" horiz-adv-x="1143" vert-adv-y="2458" d="M846 0v746q0 204-179 204-97 0-202-49-61-28-160-92V0H166v1505q72 5 106 45h33V891q96 76 163 113 117 65 227 65 140 0 217-86 73-82 73-235V0H846z"/><glyph unicode="i" horiz-adv-x="471" vert-adv-y="2458" d="M166 0v1024q71 5 106 47h33V0H166zm69 1461q45 0 73-29 26-27 26-70 0-42-26-69-28-29-72-29-45 0-73 29-26 27-26 71 0 42 26 68 29 29 72 29z"/><glyph unicode="j" horiz-adv-x="471" vert-adv-y="2458" d="M-39-415v110q111 23 160 91 45 64 45 176v1062q71 5 106 47h33V-17q0-172-77-268-62-78-173-110-36-11-94-20zm274 1876q45 0 73-29 26-27 26-70 0-42-26-69-28-29-72-29-45 0-73 29-26 27-26 71 0 42 26 68 29 29 72 29z"/><glyph unicode="k" horiz-adv-x="997" vert-adv-y="2458" d="M821 0L473 518 305 320V0H166v1505q72 5 106 45h33V483l465 570h160L561 619 975 0H821z"/><glyph unicode="l" horiz-adv-x="475" vert-adv-y="2458" d="M168 0v1505q72 5 106 45h33V0H168z"/><glyph unicode="m" horiz-adv-x="1704" vert-adv-y="2458" d="M787 0v766q0 185-153 185-89 0-180-46-50-26-149-92V0H166v1024q71 5 106 47h33V897q96 78 147 109 106 63 209 63 168 0 245-184 205 184 376 184 125 0 194-78 70-78 70-227V0h-139v762q0 110-49 156-36 33-109 33-90 0-175-42-53-26-148-92V0H787z"/><glyph unicode="n" horiz-adv-x="1143" vert-adv-y="2458" d="M846 0v746q0 205-179 205-97 0-202-49-62-29-160-93V0H166v1024q71 5 106 47h33V891q96 76 163 113 116 65 227 65 140 0 217-86 73-82 73-235V0H846z"/><glyph unicode="o" horiz-adv-x="1128" vert-adv-y="2458" d="M564 1067q207 0 333-128 141-142 141-422T897 95Q771-33 564-33T231 95q-84 84-117 207-24 89-24 221 0 273 141 416 125 128 333 128zm0-107q-171 0-255-116-72-99-72-321 0-154 26-236Q329 74 564 74q170 0 255 116 72 98 72 327 0 247-87 346-85 97-240 97z"/><glyph unicode="p" horiz-adv-x="1159" vert-adv-y="2458" d="M166-393v1417q71 5 106 47h33V891q194 178 378 178 174 0 279-135 107-137 107-399 0-278-124-425Q828-29 638-29q-181 0-333 142v-506H166zm139 594Q456 86 618 86q155 0 233 111 71 101 71 336 0 222-68 318-71 100-211 100-100 0-198-53-45-24-140-91V201z"/><glyph unicode="q" horiz-adv-x="1159" vert-adv-y="2458" d="M856-393v532Q662-29 479-29q-187 0-294 152-95 135-95 380 0 303 138 446 116 120 289 120 171 0 351-141l45 125h82V-393H856zm0 1235q-72 48-123 70-92 38-191 38-164 0-240-116-65-100-65-335 0-220 73-317 74-96 206-96 104 0 202 50 54 28 138 89v617z"/><glyph unicode="r" horiz-adv-x="707" vert-adv-y="2458" d="M166 0v1024q71 5 106 47h33V887q188 158 355 182V928q-115-19-180-39-87-27-175-80V0H166z"/><glyph unicode="s" horiz-adv-x="862" vert-adv-y="2458" d="M725 873q-157 79-285 79-197 0-197-158 0-78 53-122 44-37 168-84 163-62 228-119 88-76 88-202 0-137-95-217-97-81-272-81-159 0-317 82v123q80-42 128-60 87-32 189-32 230 0 230 176 0 80-51 124-47 41-174 89-121 46-166 73-140 88-140 240 0 142 106 218 86 61 230 61 147 0 277-65V873z"/><glyph unicode="t" horiz-adv-x="705" vert-adv-y="2458" d="M674 12q-71-35-165-35-304 0-304 328v642H41v106h59q60 0 86 23 25 21 37 75l31 129h86v-227h301V947H340V283q0-199 181-199 71 0 153 33V12z"/><glyph unicode="u" horiz-adv-x="1120" vert-adv-y="2458" d="M830 152Q727 59 655 20q-97-53-200-53-165 0-243 110-56 80-56 212v756l139 16V289q0-205 187-205 96 0 190 47 60 29 146 92v822l137 16V0h-78z"/><glyph unicode="v" horiz-adv-x="975" vert-adv-y="2458" d="M446-10L12 1053h150l337-852 328 852h135L538-10h-92z"/><glyph unicode="w" horiz-adv-x="1487" vert-adv-y="2458" d="M365-10L23 1053h150l253-826 283 836h90l283-836 252 826h131L1127-10h-103L748 817 461-10h-96z"/><glyph unicode="x" horiz-adv-x="1018" vert-adv-y="2458" d="M49 0l373 551-348 502h157l281-412 268 412h141L590 555 969 0H813L500 457 190 0H49z"/><glyph unicode="y" horiz-adv-x="975" vert-adv-y="2458" d="M211-393l219 508-418 938h150l337-776 328 776h135L346-393H211z"/><glyph unicode="z" horiz-adv-x="936" vert-adv-y="2458" d="M76 0v84l606 860H125v109h727v-82L246 109h610V0H76z"/><glyph unicode="{" horiz-adv-x="860" vert-adv-y="2458" d="M760-346h-29q-243 0-333 99-76 84-76 269v346q0 120-73 169-51 34-171 48v109q120 15 171 50 73 49 73 167v332q0 202 93 286 92 83 316 83h29v-105h-37q-154 0-211-63-51-57-51-195V917q0-145-80-213-44-37-139-65 129-37 175-104 44-64 44-173V16q0-149 62-205 58-53 200-53h37v-104z"/><glyph unicode="|" horiz-adv-x="614" vert-adv-y="2458" d="M246-348v2001h123V-348H246z"/><glyph unicode="}" horiz-adv-x="860" vert-adv-y="2458" d="M100-346v104h39q151 0 208 63 52 57 52 195v346q0 122 54 187 46 56 165 90-102 29-148 72-71 67-71 206v332q0 150-62 206-57 52-198 52h-39v105h29q243 0 333-100 76-84 76-269V911q0-118 72-167 52-35 172-50V585q-121-14-172-48-72-49-72-169V22q0-202-94-286-91-82-315-82h-29z"/><glyph unicode="~" vert-adv-y="2458" d="M277 598l-77 61q111 164 254 164 59 0 183-34 104-29 145-29 77 0 170 102l77-65q-50-70-93-106-72-60-161-60-61 0-185 34-102 29-147 29-74 0-166-96z"/><glyph horiz-adv-x="492" vert-adv-y="2458"/><glyph unicode="¡" horiz-adv-x="502" vert-adv-y="2458" d="M299 856l37-1096H172l35 1096h92zm-48 408q49 0 81-33 29-30 29-78 0-47-29-77-32-33-81-33-50 0-82 33-29 31-29 79 0 46 29 76 33 33 82 33z"/><glyph unicode="¢" horiz-adv-x="924" vert-adv-y="2458" d="M270-301L347 4Q227 61 163 163 83 292 83 519q0 183 49 292 113 256 414 256 31 0 76-4l55 213h109l-60-231q41-12 111-41V877q-94 42-139 57L479 86q35-6 79-6 129 0 306 88V49Q781 12 741-1q-97-32-186-32-56 0-105 10l-72-278H270zM593 953q-20 1-41 1-187 0-263-119-59-92-59-336 0-196 58-290 32-51 90-88z"/><glyph unicode="£" horiz-adv-x="1139" vert-adv-y="2458" d="M109 695v102h162v288q0 175 69 276 105 153 344 153 152 0 291-64v-119q-60 30-97 43-88 32-186 32-172 0-238-114-40-69-40-199V797h354V695H414V111h612L1014 0H109v111h162v584H109z"/><glyph unicode="¤" vert-adv-y="2458" d="M176 196l-93 94 125 127q-9 15-15 24-75 128-75 278 0 151 75 279 6 9 15 24L83 1149l93 94 121-123q28 18 35 23 119 73 283 73 165 0 292-79 7-5 25-16l122 122 92-94-125-127 15-24q76-124 76-279 0-151-76-278l-15-24 125-127-92-94-122 123q-21-14-25-17-122-79-293-79-163 0-292 79-3 2-25 16zm439 899q-156 0-254-102-102-105-102-268 0-173 102-279 98-102 255-102 156 0 253 102 102 106 102 273 0 171-102 274-100 102-254 102z"/><glyph unicode="¥" horiz-adv-x="1235" vert-adv-y="2458" d="M174 574v106h366L94 1489h156l388-719 357 719h145L722 680h367V574H702V385h387V279H702V0H561v279H174v106h387v189H174z"/><glyph unicode="¦" horiz-adv-x="614" vert-adv-y="2458" d="M236 0v586h141V0H236zm0 903v586h141V903H236z"/><glyph unicode="§" vert-adv-y="2458" d="M816 291Q925 185 925 53q0-146-97-232-100-87-285-87-152 0-309 78v125q68-36 104-51 97-39 204-39 242 0 242 202 0 97-62 149-48 41-211 128-172 92-234 144-106 91-106 222 0 206 254 279-107 97-107 235 0 143 93 224 95 84 270 84 124 0 252-50v-124q-143 61-258 61-218 0-218-185 0-91 59-145 52-46 187-116 167-87 204-111 84-56 118-118 35-63 35-146 0-218-244-289zm-88 65q201 48 201 206 0 79-47 124-48 47-168 112L517 905q-215-35-215-202 0-78 57-131 36-34 159-101z"/><glyph unicode="¨" horiz-adv-x="1024" vert-adv-y="2458" d="M344 1456q43 0 69-28 25-25 25-66 0-40-25-66-26-28-69-28t-70 28q-24 25-24 67 0 40 24 65 28 28 70 28zm336 0q43 0 69-28 25-25 25-66 0-40-25-66-26-28-69-28t-70 28q-24 25-24 67 0 40 24 65 28 28 70 28z"/><glyph unicode="©" horiz-adv-x="1778" vert-adv-y="2458" d="M1121 385q-100-45-208-45-186 0-280 116-79 97-79 286 0 214 105 318 95 93 259 93 101 0 193-35v-94q-88 37-186 37-126 0-187-74-59-72-59-238 0-120 24-180 56-137 222-137 99 0 196 48v-95zM889 1524q215 0 396-104 176-101 278-280 104-181 104-394 0-214-104-395-102-178-278-279Q1105-31 882-31 673-31 493 72 317 173 215 351 111 532 111 745q0 326 224 554 111 113 267 173 135 52 287 52zm0-76q-290 0-482-194-200-201-200-509 0-305 199-506Q598 45 884 45q296 0 488 194 199 201 199 506 0 306-200 509-191 194-482 194z"/><glyph unicode="ª" horiz-adv-x="942" vert-adv-y="2458" d="M658 729Q521 573 368 573q-101 0-169 55-83 67-83 192 0 144 100 201 96 55 299 73l139 12v100q0 120-55 170-44 40-130 40-85 0-170-29-48-16-128-56v99q161 84 307 84 149 0 225-83 70-78 70-223V600h-68zm-4 297l-139-14q-154-16-217-58-59-40-59-134 0-155 149-155 142 0 266 154v207z"/><glyph unicode="«" horiz-adv-x="971" vert-adv-y="2458" d="M376 113L104 529v71l272 418h119L247 566l248-453H376zm379 0L483 529v71l272 418h117L626 566l246-453H755z"/><glyph unicode="¬" vert-adv-y="2458" d="M787 349v306H208v115h710V349H787z"/><glyph unicode="­" horiz-adv-x="655" vert-adv-y="2458" d="M97 624v119h461V624H97z"/><glyph unicode="®" horiz-adv-x="829" vert-adv-y="2458" d="M301 1049v313h127q105 0 105-88 0-63-66-80 14-8 31-36l68-109h-78l-58 96q-18 31-43 31h-16v-127h-70zm70 172h47q45 0 45 46 0 42-45 42h-47v-88zm43 303q139 0 233-94 94-95 94-234 0-137-93-231-94-94-237-94-136 0-230 94-93 94-93 232t95 233q92 94 231 94zm0-51q-113 0-188-74-79-80-79-202 0-121 79-199 74-74 185-74 120 0 194 76 77 78 77 197 0 121-80 202-74 74-188 74z"/><glyph unicode="¯" horiz-adv-x="1024" vert-adv-y="2458" d="M266 1302v113h492v-113H266z"/><glyph unicode="°" horiz-adv-x="743" vert-adv-y="2458" d="M371 1507q128 0 215-87 86-86 86-207 0-123-86-209-87-88-217-88-123 0-211 87-86 86-86 210 0 121 85 207 87 87 214 87zm0-88q-76 0-127-51-59-59-59-156t61-158q50-50 123-50 95 0 149 75 41 57 41 134 0 93-59 154-52 52-129 52z"/><glyph unicode="±" vert-adv-y="2458" d="M170 655v115h379v406h131V770h381V655H680V250H549v405H170zm0-655v119h891V0H170z"/><glyph unicode="²" horiz-adv-x="778" vert-adv-y="2458" d="M110 721v77q171 132 240 192 97 84 134 141 40 60 40 130 0 43-21 68-41 49-123 49-66 0-139-30-38-15-114-62v114q103 73 255 73 268 0 268-211 0-106-62-190-63-86-286-257h366l-11-94H110z"/><glyph unicode="³" horiz-adv-x="778" vert-adv-y="2458" d="M97 669v100q154 7 239 32 188 54 188 164 0 99-129 99-35 0-146-21v100l62 9q83 13 123 35 58 31 58 93 0 36-20 58-36 41-105 41t-142-26q-22-8-94-41v105q120 56 239 56 247 0 247-190 0-78-40-118-15-15-43-30 116-45 116-164 0-126-104-196t-282-94q-50-7-167-12z"/><glyph unicode="´" horiz-adv-x="1024" vert-adv-y="2458" d="M557 1194H438l164 354h149z"/><glyph unicode="µ" vert-adv-y="2458" d="M349 4v-397H210v1438l139 16V289q0-205 187-205 96 0 190 47 60 29 146 92v822l137 16V0h-78l-47 152Q781 59 709 20q-97-53-199-53-90 0-161 37z"/><glyph unicode="¶" vert-adv-y="2458" d="M821-215v1575H649V700h-74q-259 0-377 125-92 98-92 270 0 198 112 298 107 96 302 96h446V-215H821z"/><glyph unicode="·" horiz-adv-x="614" vert-adv-y="2458" d="M307 792q50 0 82-33 29-30 29-78 0-47-29-77-32-33-81-33-50 0-82 33-29 30-29 79 0 46 29 76 33 33 81 33z"/><glyph unicode="¸" horiz-adv-x="1024" vert-adv-y="2458" d="M376-348L501 0h121L517-348H376z"/><glyph unicode="¹" horiz-adv-x="778" vert-adv-y="2458" d="M154 721v92h196v533l-209-60v97l254 83h73V813h190v-92H154z"/><glyph unicode="º" horiz-adv-x="942" vert-adv-y="2458" d="M470 1514q194 0 291-152 75-119 75-318 0-137-29-221-87-249-337-249-193 0-290 152-42 68-60 146-15 68-15 178 0 213 91 334 97 130 274 130zm0-94q-128 0-186-104-44-79-44-268 0-215 56-294 60-86 174-86 129 0 187 104 44 79 44 272 0 211-55 290-60 86-176 86z"/><glyph unicode="»" horiz-adv-x="971" vert-adv-y="2458" d="M475 113l246 453-246 452h117l272-416v-71L592 113H475zm-379 0l248 453-248 452h117l272-416v-71L213 113H96z"/><glyph unicode="¼" horiz-adv-x="1843" vert-adv-y="2458" d="M215 721v92h196v533l-209-60v97l254 83h73V813h190v-92H215zM301 0l1120 1436h121L424 0H301zm672 152v70l414 557h135l-395-534h255v264l123 12V245h109v-93h-109V0h-123v152H973z"/><glyph unicode="½" horiz-adv-x="1843" vert-adv-y="2458" d="M215 721v92h196v533l-209-60v97l254 83h73V813h190v-92H215zM301 0l1120 1436h121L424 0H301zm812 0v77q173 133 240 192 96 83 134 141 40 60 40 130 0 43-21 69-41 48-123 48-66 0-139-30-38-15-114-61v113q104 73 255 73 268 0 268-211 0-107-62-190-62-85-286-257h366l-11-94h-547z"/><glyph unicode="¾" horiz-adv-x="1843" vert-adv-y="2458" d="M188 669v100q154 7 239 32 188 54 188 164 0 99-129 99-35 0-146-21v100l62 9q83 13 123 35 58 31 58 93 0 36-20 58-36 41-105 41t-142-26q-22-8-94-41v105q120 56 239 56 247 0 247-190 0-78-40-118-15-15-43-30 116-45 116-164 0-126-104-196t-282-94q-50-7-167-12zM313 0l1120 1436h121L436 0H313zm636 152v70l414 557h135l-395-534h255v264l123 12V245h108v-93h-108V0h-123v152H949z"/><glyph unicode="¿" horiz-adv-x="862" vert-adv-y="2458" d="M587 856V723q0-79-46-154-29-47-146-163-106-105-138-151-49-71-49-178 0-231 252-231 109 0 205 33 48 17 123 55v-116q-165-82-337-82-212 0-314 117Q63-63 63 79q0 123 68 217 42 58 154 167 119 116 152 174 25 44 25 92v127h125zm-67 408q49 0 81-33 29-30 29-78 0-47-29-77-32-33-81-33-50 0-82 33-29 30-29 79 0 46 29 76 32 33 82 33z"/><glyph unicode="À" horiz-adv-x="1280" vert-adv-y="2458" d="M27 0l569 1499h97L1252 0h-154L924 475H344L168 0H27zm610 1266L383 584h502zm-60 346l-178 325h150l147-325H577z"/><glyph unicode="Á" horiz-adv-x="1280" vert-adv-y="2458" d="M27 0l569 1499h97L1252 0h-154L924 475H344L168 0H27zm610 1266L383 584h502zm77 346H595l147 325h150z"/><glyph unicode="Â" horiz-adv-x="1280" vert-adv-y="2458" d="M27 0l569 1499h97L1252 0h-154L924 475H344L168 0H27zm610 1266L383 584h502zm-285 346l229 325h119l227-325H811l-170 206-172-206H352z"/><glyph unicode="Ã" horiz-adv-x="1280" vert-adv-y="2458" d="M27 0l569 1499h97L1252 0h-154L924 475H344L168 0H27zm610 1266L383 584h502zm-213 383l-70 47q79 139 190 139 46 0 116-32 57-27 89-27 63 0 109 71l69-47q-35-62-68-92-51-47-117-47-46 0-117 32-61 27-93 27-60 0-108-71z"/><glyph unicode="Ä" horiz-adv-x="1280" vert-adv-y="2458" d="M27 0l569 1499h97L1252 0h-154L924 475H344L168 0H27zm610 1266L383 584h502zm-165 579q43 0 69-28 25-25 25-66 0-40-25-66-26-28-69-28t-70 28q-24 25-24 67 0 40 24 65 28 28 70 28zm336 0q43 0 69-28 25-25 25-66 0-40-25-66-26-28-69-28t-70 28q-24 25-24 67 0 40 24 65 28 28 70 28z"/><glyph unicode="Å" horiz-adv-x="1280" vert-adv-y="2458" d="M27 0l569 1499h97L1252 0h-154L924 475H344L168 0H27zm610 1266L383 584h502zm4 694q92 0 148-58 50-51 50-130 0-80-50-131-55-58-148-58-94 0-149 58-50 52-50 128 0 83 50 133 57 58 149 58zm0-74q-55 0-85-39-22-29-22-74 0-48 22-77 30-39 85-39 54 0 84 39 22 29 22 76t-22 75q-30 39-84 39z"/><glyph unicode="Æ" horiz-adv-x="1968" vert-adv-y="2458" d="M41 0l926 1489h817v-109h-680V821h541V710h-541V111h745L1833 0H965v489H483L186 0H41zm924 1278L559 614h406v664z"/><glyph unicode="Ç" horiz-adv-x="1237" vert-adv-y="2458" d="M762-20l-98-328H522L642-14Q437 11 305 133 180 249 133 441q-30 121-30 304 0 238 65 397 151 372 581 372 199 0 366-72v-123q-191 84-369 84-249 0-369-157-77-101-106-249-18-97-18-253 0-211 39-330Q397 90 748 90q131 0 247 38 58 20 147 65V70Q970-15 762-20z"/><glyph unicode="È" horiz-adv-x="1180" vert-adv-y="2458" d="M195 0v1489h834v-109H336V823h549V714H336V109h763L1086 0H195zm405 1612l-178 325h150l147-325H600z"/><glyph unicode="É" horiz-adv-x="1180" vert-adv-y="2458" d="M195 0v1489h834v-109H336V823h549V714H336V109h763L1086 0H195zm505 1612H581l147 325h150z"/><glyph unicode="Ê" horiz-adv-x="1180" vert-adv-y="2458" d="M195 0v1489h834v-109H336V823h549V714H336V109h763L1086 0H195zm143 1612l229 325h119l227-325H797l-170 206-172-206H338z"/><glyph unicode="Ë" horiz-adv-x="1180" vert-adv-y="2458" d="M195 0v1489h834v-109H336V823h549V714H336V109h763L1086 0H195zm269 1845q43 0 69-28 25-25 25-66 0-40-25-66-26-28-69-28t-70 28q-24 25-24 67 0 40 24 65 28 28 70 28zm336 0q43 0 69-28 25-25 25-66 0-40-25-66-26-28-69-28t-70 28q-24 25-24 67 0 40 24 65 28 28 70 28z"/><glyph unicode="Ì" horiz-adv-x="541" vert-adv-y="2458" d="M198 0v1489h143V0H198zm39 1612L59 1937h150l147-325H237z"/><glyph unicode="Í" horiz-adv-x="541" vert-adv-y="2458" d="M199 0v1489h143V0H199zm133 1612H213l147 325h150z"/><glyph unicode="Î" horiz-adv-x="541" vert-adv-y="2458" d="M199 0v1489h143V0H199zM-18 1612l229 325h119l227-325H441l-170 206-172-206H-18z"/><glyph unicode="Ï" horiz-adv-x="541" vert-adv-y="2458" d="M198 0v1489h143V0H198zm-96 1845q43 0 69-28 25-25 25-66 0-40-25-66-26-28-69-28t-70 28q-24 25-24 67 0 40 24 65 28 28 70 28zm336 0q43 0 69-28 25-25 25-66 0-40-25-66-26-28-69-28t-70 28q-24 25-24 67 0 40 24 65 28 28 70 28z"/><glyph unicode="Ð" horiz-adv-x="1423" vert-adv-y="2458" d="M195 821v668h467q275 0 440-141 217-186 217-599 0-280-93-449Q1061 0 660 0H195v710H37v111h158zm141 0h408V710H336V109h307q258 0 390 146 77 86 111 220 25 99 25 262 0 240-59 382-107 261-467 261H336V821z"/><glyph unicode="Ñ" horiz-adv-x="1485" vert-adv-y="2458" d="M193 0v1489h121l846-1202v1202h133V0h-100L326 1235V0H193zm351 1649l-70 47q79 139 190 139 46 0 116-32 57-27 89-27 63 0 109 71l69-47q-35-62-68-92-51-47-117-47-46 0-117 32-61 27-93 27-60 0-108-71z"/><glyph unicode="Ò" horiz-adv-x="1473" vert-adv-y="2458" d="M736 1514q332 0 501-249 131-194 131-518 0-356-158-555Q1040-20 735-20q-331 0-500 250-81 119-112 279-19 99-19 246 0 348 158 547 170 212 474 212zm0-107q-256 0-379-192-103-160-103-460 0-347 126-508Q505 87 736 87q254 0 379 192 103 159 103 468 0 339-126 500-125 160-356 160zm-33 205l-178 325h150l147-325H703z"/><glyph unicode="Ó" horiz-adv-x="1473" vert-adv-y="2458" d="M736 1514q332 0 501-249 131-194 131-518 0-356-158-555Q1040-20 735-20q-331 0-500 250-81 119-112 279-19 99-19 246 0 348 158 547 170 212 474 212zm0-107q-256 0-379-192-103-160-103-460 0-347 126-508Q505 87 736 87q254 0 379 192 103 159 103 468 0 339-126 500-125 160-356 160zm62 205H679l147 325h150z"/><glyph unicode="Ô" horiz-adv-x="1473" vert-adv-y="2458" d="M736 1514q332 0 501-249 131-194 131-518 0-356-158-555Q1040-20 735-20q-331 0-500 250-81 119-112 279-19 99-19 246 0 348 158 547 170 212 474 212zm0-107q-256 0-379-192-103-160-103-460 0-347 126-508Q505 87 736 87q254 0 379 192 103 159 103 468 0 339-126 500-125 160-356 160zm-289 205l229 325h119l227-325H906l-170 206-172-206H447z"/><glyph unicode="Õ" horiz-adv-x="1473" vert-adv-y="2458" d="M736 1514q332 0 501-249 131-194 131-518 0-356-158-555Q1040-20 735-20q-331 0-500 250-81 119-112 279-19 99-19 246 0 348 158 547 170 212 474 212zm0-107q-256 0-379-192-103-160-103-460 0-347 126-508Q505 87 736 87q254 0 379 192 103 159 103 468 0 339-126 500-125 160-356 160zm-217 242l-70 47q79 139 190 139 46 0 116-32 57-27 89-27 63 0 109 71l69-47q-35-62-68-92-51-47-117-47-46 0-117 32-61 27-93 27-60 0-108-71z"/><glyph unicode="Ö" horiz-adv-x="1473" vert-adv-y="2458" d="M736 1514q332 0 501-249 131-194 131-518 0-356-158-555Q1040-20 735-20q-331 0-500 250-81 119-112 279-19 99-19 246 0 348 158 547 170 212 474 212zm0-107q-256 0-379-192-103-160-103-460 0-347 126-508Q505 87 736 87q254 0 379 192 103 159 103 468 0 339-126 500-125 160-356 160zm-168 438q43 0 69-28 25-25 25-66 0-40-25-66-26-28-69-28t-70 28q-24 25-24 67 0 40 24 65 28 28 70 28zm336 0q43 0 69-28 25-25 25-66 0-40-25-66-26-28-69-28t-70 28q-24 25-24 67 0 40 24 65 28 28 70 28z"/><glyph unicode="×" vert-adv-y="2458" d="M280 295l-88 86 328 328-330 329 90 92 330-331 330 331 86-90-328-327 328-328-91-92-329 328z"/><glyph unicode="Ø" horiz-adv-x="1473" vert-adv-y="2458" d="M258 199q-41 53-69 110-85 174-85 437 0 356 158 555 170 212 474 212 236 0 400-136l134 179h131l-191-255q45-58 73-116 85-174 85-438 0-356-158-555Q1041-20 736-20q-241 0-405 141L172-92H41zm81 109l725 972q-125 127-328 127-482 0-482-663 0-276 85-436zm790 884L404 219Q530 86 737 86q253 0 378 192 103 160 103 469 0 279-89 445z"/><glyph unicode="Ù" horiz-adv-x="1452" vert-adv-y="2458" d="M1280 1489V557q0-250-92-388Q1063-20 739-20q-567 0-567 571v938h141V551q0-210 76-318Q485 95 741 95q253 0 343 156 63 108 63 304v934h133zm-587 123l-178 325h150l147-325H693z"/><glyph unicode="Ú" horiz-adv-x="1452" vert-adv-y="2458" d="M1280 1489V557q0-250-92-388Q1063-20 739-20q-567 0-567 571v938h141V551q0-210 76-318Q485 95 741 95q253 0 343 156 63 108 63 304v934h133zm-492 123H669l147 325h150z"/><glyph unicode="Û" horiz-adv-x="1452" vert-adv-y="2458" d="M1280 1489V557q0-250-92-388Q1063-20 739-20q-567 0-567 571v938h141V551q0-210 76-318Q485 95 741 95q253 0 343 156 63 108 63 304v934h133zm-843 123l229 325h119l227-325H896l-170 206-172-206H437z"/><glyph unicode="Ü" horiz-adv-x="1452" vert-adv-y="2458" d="M1280 1489V557q0-250-92-388Q1063-20 739-20q-567 0-567 571v938h141V551q0-210 76-318Q485 95 741 95q253 0 343 156 63 108 63 304v934h133zm-722 356q43 0 69-28 25-25 25-66 0-40-25-66-26-28-69-28t-70 28q-24 25-24 67 0 40 24 65 28 28 70 28zm336 0q43 0 69-28 25-25 25-66 0-40-25-66-26-28-69-28t-70 28q-24 25-24 67 0 40 24 65 28 28 70 28z"/><glyph unicode="Ý" horiz-adv-x="1262" vert-adv-y="2458" d="M562 0v604L66 1489h156l419-760 408 760h147L703 590V0H562zm143 1612H586l147 325h150z"/><glyph unicode="Þ" horiz-adv-x="1204" vert-adv-y="2458" d="M336 365V0H195v1489h141v-313h344q202 0 314-99 67-59 94-147 20-62 20-165 0-150-50-235-75-126-230-163-96-23-220-23-160 0-272 21zm0 106q131-18 270-18 177 0 260 61 60 45 80 125 12 45 12 126 0 125-35 186-67 116-259 116H336V471z"/><glyph unicode="ß" horiz-adv-x="1180" vert-adv-y="2458" d="M166 0v1072q0 127 26 204 43 129 145 203 114 82 283 82 146 0 244-56 129-73 129-225 0-94-61-176-36-49-138-147-75-73-100-101-43-53-43-103 0-42 38-74 35-30 140-79 142-67 195-113 92-79 92-217 0-147-101-228-92-73-255-73-151 0-283 66v123q65-33 108-47 84-29 178-29 216 0 216 175 0 90-59 138-38 32-159 89-115 55-160 93-81 67-81 166 0 71 45 135 33 45 127 140 86 87 114 124 52 68 52 137 0 79-53 124-62 54-190 54-171 0-250-113-38-54-52-132-8-43-8-133V0H166z"/><glyph unicode="à" horiz-adv-x="1020" vert-adv-y="2458" d="M731 152Q666 79 609 39 505-33 388-33q-126 0-208 73-87 78-87 218 0 162 116 228 114 65 352 86l164 14v123q0 245-215 245-106 0-208-36-58-19-145-62v113q192 98 363 98 342 0 342-356V0h-78zm-6 346l-164-17q-175-17-253-67-73-46-73-155 0-78 34-122 50-63 143-63 165 0 313 180v244zm-219 696l-195 354h150l163-354H506z"/><glyph unicode="á" horiz-adv-x="1020" vert-adv-y="2458" d="M731 152Q666 79 609 39 505-33 388-33q-126 0-208 73-87 78-87 218 0 162 116 228 114 65 352 86l164 14v123q0 245-215 245-106 0-208-36-58-19-145-62v113q192 98 363 98 342 0 342-356V0h-78zm-6 346l-164-17q-175-17-253-67-73-46-73-155 0-78 34-122 50-63 143-63 165 0 313 180v244zm-170 696H436l164 354h149z"/><glyph unicode="â" horiz-adv-x="1020" vert-adv-y="2458" d="M731 152Q666 79 609 39 505-33 388-33q-126 0-208 73-87 78-87 218 0 162 116 228 114 65 352 86l164 14v123q0 245-215 245-106 0-208-36-58-19-145-62v113q192 98 363 98 342 0 342-356V0h-78zm-6 346l-164-17q-175-17-253-67-73-46-73-155 0-78 34-122 50-63 143-63 165 0 313 180v244zm-504 704l229 326h119l227-326H680l-170 207-172-207H221z"/><glyph unicode="ã" horiz-adv-x="1020" vert-adv-y="2458" d="M731 152Q666 79 609 39 505-33 388-33q-126 0-208 73-87 78-87 218 0 162 116 228 114 65 352 86l164 14v123q0 245-215 245-106 0-208-36-58-19-145-62v113q192 98 363 98 342 0 342-356V0h-78zm-6 346l-164-17q-175-17-253-67-73-46-73-155 0-78 34-122 50-63 143-63 165 0 313 180v244zm-432 762l-70 47q79 139 190 139 45 0 116-33 57-26 89-26 63 0 109 71l69-47q-78-139-185-139-45 0-117 32-61 27-93 27-59 0-108-71z"/><glyph unicode="ä" horiz-adv-x="1020" vert-adv-y="2458" d="M731 152Q666 79 609 39 505-33 388-33q-126 0-208 73-87 78-87 218 0 162 116 228 114 65 352 86l164 14v123q0 245-215 245-106 0-208-36-58-19-145-62v113q192 98 363 98 342 0 342-356V0h-78zm-6 346l-164-17q-175-17-253-67-73-46-73-155 0-78 34-122 50-63 143-63 165 0 313 180v244zm-373 958q43 0 69-28 25-25 25-66 0-40-25-66-26-28-69-28t-70 28q-24 25-24 67 0 40 24 65 28 28 70 28zm336 0q43 0 69-28 25-25 25-66 0-40-25-66-26-28-69-28t-70 28q-24 25-24 67 0 40 24 65 28 28 70 28z"/><glyph unicode="å" horiz-adv-x="1020" vert-adv-y="2458" d="M731 152Q666 79 609 39 505-33 388-33q-126 0-208 73-87 78-87 218 0 162 116 228 114 65 352 86l164 14v123q0 245-215 245-106 0-208-36-58-19-145-62v113q192 98 363 98 342 0 342-356V0h-78zm-6 346l-164-17q-175-17-253-67-73-46-73-155 0-78 34-122 50-63 143-63 165 0 313 180v244zM510 1571q92 0 148-58 50-51 50-130 0-80-50-131-55-58-148-58-94 0-149 58-50 52-50 128 0 83 50 133 57 58 149 58zm0-74q-55 0-85-39-22-29-22-74 0-48 22-77 30-39 85-39 54 0 84 39 22 29 22 76t-22 75q-31 39-84 39z"/><glyph unicode="æ" horiz-adv-x="1661" vert-adv-y="2458" d="M792 188Q695 70 614 23q-97-56-219-56-141 0-224 83-77 77-77 203 0 199 189 275 105 42 278 57l164 15v108q0 139-66 199-51 47-150 47-102 0-202-34-60-20-150-64v113q192 98 363 98 152 0 230-76 44-42 71-125 108 203 343 203 192 0 300-121 113-128 113-369v-73H868v-39q0-387 339-387 153 0 331 96V57q-179-90-337-90-176 0-293 86-64 48-116 135zm-67 316l-164-16q-148-15-222-52-55-27-79-66-25-43-25-115 0-90 53-138 48-43 124-43 164 0 313 180v250zm702 108q-8 168-54 247-62 105-211 105-129 0-204-82-56-60-76-156-8-37-14-114h559z"/><glyph unicode="ç" horiz-adv-x="936" vert-adv-y="2458" d="M592-32l-95-316H355L471-26Q89 29 89 510q0 557 462 557 141 0 292-63V877q-64 30-98 43-85 34-186 34-168 0-248-96-75-91-75-348 0-153 28-235Q331 80 563 80q100 0 205 42 40 15 102 46V49Q770 5 717-10q-55-16-125-22z"/><glyph unicode="è" horiz-adv-x="1030" vert-adv-y="2458" d="M946 515H237v-27q0-193 68-289Q388 80 576 80q152 0 331 96V57Q729-33 570-33q-239 0-368 156-72 89-97 210-15 74-15 186 0 178 43 284 62 150 189 217 93 49 212 49 209 0 317-143 95-126 95-346v-65zM794 621q-8 154-45 225-61 119-218 119-150 0-227-110-45-66-59-167-4-22-8-67h557zm-283 573l-195 354h150l163-354H511z"/><glyph unicode="é" horiz-adv-x="1030" vert-adv-y="2458" d="M946 515H237v-27q0-193 68-289Q388 80 576 80q152 0 331 96V57Q729-33 570-33q-239 0-368 156-72 89-97 210-15 74-15 186 0 178 43 284 62 150 189 217 93 49 212 49 209 0 317-143 95-126 95-346v-65zM794 621q-8 154-45 225-61 119-218 119-150 0-227-110-45-66-59-167-4-22-8-67h557zm-210 573H465l164 354h149z"/><glyph unicode="ê" horiz-adv-x="1030" vert-adv-y="2458" d="M946 515H237v-27q0-193 68-289Q388 80 576 80q152 0 331 96V57Q729-33 570-33q-239 0-368 156-72 89-97 210-15 74-15 186 0 178 43 284 62 150 189 217 93 49 212 49 209 0 317-143 95-126 95-346v-65zM794 621q-8 154-45 225-61 119-218 119-150 0-227-110-45-66-59-167-4-22-8-67h557zm-550 581l229 326h119l227-326H703l-170 207-172-207H244z"/><glyph unicode="ë" horiz-adv-x="1030" vert-adv-y="2458" d="M946 515H237v-27q0-193 68-289Q388 80 576 80q152 0 331 96V57Q729-33 570-33q-239 0-368 156-72 89-97 210-15 74-15 186 0 178 43 284 62 150 189 217 93 49 212 49 209 0 317-143 95-126 95-346v-65zM794 621q-8 154-45 225-61 119-218 119-150 0-227-110-45-66-59-167-4-22-8-67h557zm-409 835q43 0 69-28 25-25 25-66 0-40-25-66-26-28-69-28t-70 28q-24 25-24 67 0 40 24 65 28 28 70 28zm336 0q43 0 69-28 25-25 25-66 0-40-25-66-26-28-69-28t-70 28q-24 25-24 67 0 40 24 65 28 28 70 28z"/><glyph unicode="ì" horiz-adv-x="471" vert-adv-y="2458" d="M166 0v1024q71 5 106 47h33V0H166zm33 1194L4 1548h150l163-354H199z"/><glyph unicode="í" horiz-adv-x="471" vert-adv-y="2458" d="M166 0v1024q71 5 106 47h33V0H166zm115 1194H162l164 354h149z"/><glyph unicode="î" horiz-adv-x="471" vert-adv-y="2458" d="M166 0v1024q71 5 106 47h33V0H166zM-53 1202l229 326h119l227-326H406l-170 207-172-207H-53z"/><glyph unicode="ï" horiz-adv-x="471" vert-adv-y="2458" d="M166 0v1024q71 5 106 47h33V0H166zM67 1456q43 0 69-28 25-25 25-66 0-40-25-66-26-28-69-28t-70 28q-24 25-24 67 0 40 24 65 28 28 70 28zm336 0q43 0 69-28 25-25 25-66 0-40-25-66-26-28-69-28t-70 28q-24 25-24 67 0 40 24 65 28 28 70 28z"/><glyph unicode="ð" horiz-adv-x="1128" vert-adv-y="2458" d="M336 1157v105l217 92q-88 87-221 194h164q94-64 178-141l254 108v-104l-180-78q109-124 171-240 67-126 97-264 23-107 23-257 0-248-72-383Q913 89 808 28 702-33 564-33 359-33 231 96q-75 75-111 185-30 90-30 239 0 168 43 269 60 143 180 214 107 64 241 64 166 0 278-112-76 165-209 325zm231-197q-173 0-260-119-51-71-62-163-8-66-8-144 0-184 30-261Q347 71 567 71q147 0 231 99 68 80 81 183 10 74 10 159 0 167-26 243-70 205-296 205z"/><glyph unicode="ñ" horiz-adv-x="1143" vert-adv-y="2458" d="M846 0v746q0 205-179 205-97 0-202-49-62-29-160-93V0H166v1024q71 5 106 47h33V891q96 76 163 113 116 65 227 65 140 0 217-86 73-82 73-235V0H846zM355 1260l-70 47q79 139 190 139 45 0 116-33 57-26 89-26 63 0 109 71l69-47q-78-139-185-139-45 0-117 32-61 27-93 27-59 0-108-71z"/><glyph unicode="ò" horiz-adv-x="1128" vert-adv-y="2458" d="M564 1067q207 0 333-128 141-142 141-422T897 95Q771-33 564-33T231 95q-84 84-117 207-24 89-24 221 0 273 141 416 125 128 333 128zm0-107q-171 0-255-116-72-99-72-321 0-154 26-236Q329 74 564 74q170 0 255 116 72 98 72 327 0 247-87 346-85 97-240 97zm-3 234l-195 354h150l163-354H561z"/><glyph unicode="ó" horiz-adv-x="1128" vert-adv-y="2458" d="M564 1067q207 0 333-128 141-142 141-422T897 95Q771-33 564-33T231 95q-84 84-117 207-24 89-24 221 0 273 141 416 125 128 333 128zm0-107q-171 0-255-116-72-99-72-321 0-154 26-236Q329 74 564 74q170 0 255 116 72 98 72 327 0 247-87 346-85 97-240 97zm45 234H490l164 354h149z"/><glyph unicode="ô" horiz-adv-x="1128" vert-adv-y="2458" d="M564 1067q207 0 333-128 141-142 141-422T897 95Q771-33 564-33T231 95q-84 84-117 207-24 89-24 221 0 273 141 416 125 128 333 128zm0-107q-171 0-255-116-72-99-72-321 0-154 26-236Q329 74 564 74q170 0 255 116 72 98 72 327 0 247-87 346-85 97-240 97zm-289 242l229 326h119l227-326H734l-170 207-172-207H275z"/><glyph unicode="õ" horiz-adv-x="1128" vert-adv-y="2458" d="M564 1067q207 0 333-128 141-142 141-422T897 95Q771-33 564-33T231 95q-84 84-117 207-24 89-24 221 0 273 141 416 125 128 333 128zm0-107q-171 0-255-116-72-99-72-321 0-154 26-236Q329 74 564 74q170 0 255 116 72 98 72 327 0 247-87 346-85 97-240 97zm-217 300l-70 47q79 139 190 139 45 0 116-33 57-26 89-26 63 0 109 71l69-47q-78-139-185-139-45 0-117 32-61 27-93 27-59 0-108-71z"/><glyph unicode="ö" horiz-adv-x="1128" vert-adv-y="2458" d="M564 1067q207 0 333-128 141-142 141-422T897 95Q771-33 564-33T231 95q-84 84-117 207-24 89-24 221 0 273 141 416 125 128 333 128zm0-107q-171 0-255-116-72-99-72-321 0-154 26-236Q329 74 564 74q170 0 255 116 72 98 72 327 0 247-87 346-85 97-240 97zm-168 496q43 0 69-28 25-25 25-66 0-40-25-66-26-28-69-28t-70 28q-24 25-24 67 0 40 24 65 28 28 70 28zm336 0q43 0 69-28 25-25 25-66 0-40-25-66-26-28-69-28t-70 28q-24 25-24 67 0 40 24 65 28 28 70 28z"/><glyph unicode="÷" vert-adv-y="2458" d="M169 655v115h891V655H169zm444-199q46 0 77-31 33-33 33-80 0-45-32-78-30-31-79-31-47 0-78 31-31 32-31 78t33 80q31 31 77 31zm0 743q46 0 77-31 33-33 33-80 0-45-32-78-31-31-79-31-47 0-78 31-31 32-31 78t33 80q31 31 77 31z"/><glyph unicode="ø" horiz-adv-x="1128" vert-adv-y="2458" d="M211 116q-41 49-66 101-55 117-55 300 0 280 141 422 126 128 333 128 166 0 283-84l82 113h129L923 911q115-141 115-394 0-280-141-422Q771-33 564-33q-157 0-275 79L188-92H59zm78 106l489 667q-86 71-215 71-170 0-254-116-72-98-72-328 0-140 23-219 9-34 29-75zm555 581L357 139q84-66 208-66 169 0 254 116 72 98 72 329 0 180-47 285z"/><glyph unicode="ù" horiz-adv-x="1120" vert-adv-y="2458" d="M830 152Q727 59 655 20q-97-53-200-53-165 0-243 110-56 80-56 212v756l139 16V289q0-205 187-205 96 0 190 47 60 29 146 92v822l137 16V0h-78zM557 1194l-195 354h150l163-354H557z"/><glyph unicode="ú" horiz-adv-x="1120" vert-adv-y="2458" d="M830 152Q727 59 655 20q-97-53-200-53-165 0-243 110-56 80-56 212v756l139 16V289q0-205 187-205 96 0 190 47 60 29 146 92v822l137 16V0h-78zM606 1194H487l164 354h149z"/><glyph unicode="û" horiz-adv-x="1120" vert-adv-y="2458" d="M830 152Q727 59 655 20q-97-53-200-53-165 0-243 110-56 80-56 212v756l139 16V289q0-205 187-205 96 0 190 47 60 29 146 92v822l137 16V0h-78zM272 1202l229 326h119l227-326H731l-170 207-172-207H272z"/><glyph unicode="ü" horiz-adv-x="1120" vert-adv-y="2458" d="M830 152Q727 59 655 20q-97-53-200-53-165 0-243 110-56 80-56 212v756l139 16V289q0-205 187-205 96 0 190 47 60 29 146 92v822l137 16V0h-78zM392 1456q43 0 69-28 25-25 25-66 0-40-25-66-26-28-69-28t-70 28q-24 25-24 67 0 40 24 65 28 28 70 28zm336 0q43 0 69-28 25-25 25-66 0-40-25-66-26-28-69-28t-70 28q-24 25-24 67 0 40 24 65 28 28 70 28z"/><glyph unicode="ý" horiz-adv-x="975" vert-adv-y="2458" d="M211-393l219 508-418 938h150l337-776 328 776h135L346-393H211zm321 1587H413l164 354h149z"/><glyph unicode="þ" horiz-adv-x="1159" vert-adv-y="2458" d="M166-393v1898q72 5 106 45h33V891q194 178 378 178 174 0 279-135 107-138 107-399 0-278-124-425Q828-29 638-29q-181 0-333 142v-506H166zm139 594Q456 86 618 86q155 0 233 111 71 101 71 336 0 221-68 317-71 100-211 100-100 0-198-52-44-24-140-91V201z"/><glyph unicode="ÿ" horiz-adv-x="975" vert-adv-y="2458" d="M211-393l219 508-418 938h150l337-776 328 776h135L346-393H211zm126 1849q43 0 69-28 25-25 25-66 0-40-25-66-26-28-69-28t-70 28q-24 25-24 67 0 40 24 65 28 28 70 28zm336 0q43 0 69-28 25-25 25-66 0-40-25-66-26-28-69-28t-70 28q-24 25-24 67 0 40 24 65 28 28 70 28z"/><glyph unicode="Ā" horiz-adv-x="1280" vert-adv-y="2458" d="M27 0l569 1499h97L1252 0h-154L924 475H344L168 0H27zm610 1266L383 584h502zm-242 425v113h492v-113H395z"/><glyph unicode="ā" horiz-adv-x="1020" vert-adv-y="2458" d="M731 152Q666 79 609 39 505-33 388-33q-126 0-208 73-87 78-87 218 0 162 116 228 114 65 352 86l164 14v123q0 245-215 245-106 0-208-36-58-19-145-62v113q192 98 363 98 342 0 342-356V0h-78zm-6 346l-164-17q-175-17-253-67-73-46-73-155 0-78 34-122 50-63 143-63 165 0 313 180v244zm-461 804v113h492v-113H264z"/><glyph unicode="Ă" horiz-adv-x="1280" vert-adv-y="2458" d="M27 0l569 1499h97L1252 0h-154L924 475H344L168 0H27zm610 1266L383 584h502zm256 600q-9-108-71-168-70-68-181-68-112 0-182 68-62 60-70 168h106q21-132 146-132t145 132h107z"/><glyph unicode="ă" horiz-adv-x="1020" vert-adv-y="2458" d="M731 152Q666 79 609 39 505-33 388-33q-126 0-208 73-87 78-87 218 0 162 116 228 114 65 352 86l164 14v123q0 245-215 245-106 0-208-36-58-19-145-62v113q192 98 363 98 342 0 342-356V0h-78zm-6 346l-164-17q-175-17-253-67-73-46-73-155 0-78 34-122 50-63 143-63 165 0 313 180v244zm37 979q-9-108-71-168-70-68-181-68-112 0-182 68-62 60-70 168h106q21-132 146-132t145 132h107z"/><glyph unicode="Ą" horiz-adv-x="1280" vert-adv-y="2458" d="M924 475H344L168 0H27l569 1499h97L1252 0h-68q-42-61-55-86-32-59-32-119 0-96 107-96 42 0 87 16v-92q-48-20-104-20-121 0-178 70-35 44-35 107 0 72 51 141 25 33 73 79zm-287 791L383 584h502z"/><glyph unicode="ą" horiz-adv-x="1020" vert-adv-y="2458" d="M862 0q-41-59-56-86-32-59-32-119 0-96 108-96 42 0 86 16v-92q-47-20-103-20-121 0-178 70-36 44-36 107 0 72 56 141 27 33 80 79l-56 152Q666 79 609 39 505-33 388-33q-126 0-208 73-87 78-87 218 0 162 116 228 114 65 352 86l164 14v123q0 245-215 245-106 0-208-36-58-19-145-62v113q192 98 363 98 342 0 342-356V0zM725 498l-164-17q-175-17-253-67-73-46-73-155 0-78 34-122 50-63 143-63 165 0 313 180v244z"/><glyph unicode="Ć" horiz-adv-x="1237" vert-adv-y="2458" d="M1142 70Q959-20 745-20q-354 0-521 248-121 178-121 517 0 238 65 397 151 372 581 372 199 0 366-72v-123q-88 38-146 55-105 29-223 29-249 0-369-157-77-101-106-249-18-97-18-253 0-211 39-330Q397 90 748 90q131 0 247 38 57 20 147 65V70zM794 1612H675l147 325h150z"/><glyph unicode="ć" horiz-adv-x="936" vert-adv-y="2458" d="M870 49q-66-30-98-41-109-41-216-41-237 0-358 149Q89 249 89 510q0 557 462 557 141 0 292-63V877q-64 30-98 43-85 34-186 34-168 0-248-96-75-91-75-348 0-153 28-235Q331 80 563 80q100 0 205 42 40 15 102 46V49zM577 1194H458l164 354h149z"/><glyph unicode="Ĉ" horiz-adv-x="1237" vert-adv-y="2458" d="M1142 70Q959-20 745-20q-354 0-521 248-121 178-121 517 0 238 65 397 151 372 581 372 199 0 366-72v-123q-88 38-146 55-105 29-223 29-249 0-369-157-77-101-106-249-18-97-18-253 0-211 39-330Q397 90 748 90q131 0 247 38 57 20 147 65V70zM456 1612l229 325h119l227-325H915l-170 206-172-206H456z"/><glyph unicode="ĉ" horiz-adv-x="936" vert-adv-y="2458" d="M870 49q-66-30-98-41-109-41-216-41-237 0-358 149Q89 249 89 510q0 557 462 557 141 0 292-63V877q-64 30-98 43-85 34-186 34-168 0-248-96-75-91-75-348 0-153 28-235Q331 80 563 80q100 0 205 42 40 15 102 46V49zM251 1202l229 326h119l227-326H710l-170 207-172-207H251z"/><glyph unicode="Ċ" horiz-adv-x="1237" vert-adv-y="2458" d="M1142 70Q959-20 745-20q-354 0-521 248-121 178-121 517 0 238 65 397 151 372 581 372 199 0 366-72v-123q-88 38-146 55-105 29-223 29-249 0-369-157-77-101-106-249-18-97-18-253 0-211 39-330Q397 90 748 90q131 0 247 38 57 20 147 65V70zM769 1850q45 0 73-29 26-27 26-70 0-42-26-69-28-29-72-29-45 0-73 29-26 27-26 71 0 42 26 68 29 29 72 29z"/><glyph unicode="ċ" horiz-adv-x="936" vert-adv-y="2458" d="M870 49q-66-30-98-41-109-41-216-41-237 0-358 149Q89 249 89 510q0 557 462 557 141 0 292-63V877q-64 30-98 43-85 34-186 34-168 0-248-96-75-91-75-348 0-153 28-235Q331 80 563 80q100 0 205 42 40 15 102 46V49zM558 1461q45 0 73-29 26-27 26-70 0-42-26-69-28-29-72-29-45 0-73 29-26 27-26 71 0 42 26 68 29 29 72 29z"/><glyph unicode="Č" horiz-adv-x="1237" vert-adv-y="2458" d="M1142 70Q959-20 745-20q-354 0-521 248-121 178-121 517 0 238 65 397 151 372 581 372 199 0 366-72v-123q-88 38-146 55-105 29-223 29-249 0-369-157-77-101-106-249-18-97-18-253 0-211 39-330Q397 90 748 90q131 0 247 38 57 20 147 65V70zm-115 1867l-229-325H679l-227 325h117l170-206 172 206h116z"/><glyph unicode="č" horiz-adv-x="936" vert-adv-y="2458" d="M870 49q-66-30-98-41-109-41-216-41-237 0-358 149Q89 249 89 510q0 557 462 557 141 0 292-63V877q-64 30-98 43-85 34-186 34-168 0-248-96-75-91-75-348 0-153 28-235Q331 80 563 80q100 0 205 42 40 15 102 46V49zm-41 1479l-229-326H481l-227 326h117l170-207 172 207h116z"/><glyph unicode="Ď" horiz-adv-x="1423" vert-adv-y="2458" d="M195 0v1489h467q275 0 440-141 217-186 217-599 0-280-93-449Q1061 0 660 0H195zm141 109h307q258 0 390 147 77 85 111 219 25 100 25 263 0 239-59 381-107 261-467 261H336V109zm568 1828l-229-325H556l-227 325h117l170-206 172 206h116z"/><glyph unicode="ď" horiz-adv-x="1316" vert-adv-y="2458" d="M864 147Q662-29 478-29q-194 0-299 162-89 136-89 370 0 287 127 433 115 133 300 133 166 0 339-131v567q72 5 106 45h33V0h-82zm-8 695q-72 48-123 70-92 38-191 38-164 0-239-115-40-62-55-147-11-63-11-174 0-160 23-232Q325 85 516 85q111 0 216 58 49 27 124 82v617zm289 329l66 377h156l-117-377h-105z"/><glyph unicode="Đ" horiz-adv-x="1423" vert-adv-y="2458" d="M195 821v668h467q275 0 440-141 217-186 217-599 0-280-93-449Q1061 0 660 0H195v710H37v111h158zm141 0h408V710H336V109h307q258 0 390 146 77 86 111 220 25 99 25 262 0 240-59 382-107 261-467 261H336V821z"/><glyph unicode="đ" horiz-adv-x="1159" vert-adv-y="2458" d="M856 1269H569v113h287v123q72 5 106 45h33v-168h159v-113H995V0h-82l-49 147Q662-29 478-29q-194 0-299 162-89 136-89 370 0 287 127 433 115 133 300 133 166 0 339-131v331zm0-427q-72 48-123 70-92 38-191 38-163 0-239-115-40-62-55-147-11-63-11-174 0-160 23-232Q325 85 516 85q111 0 216 58 49 27 124 82v617z"/><glyph unicode="Ē" horiz-adv-x="1180" vert-adv-y="2458" d="M195 0v1489h834v-109H336V823h549V714H336V109h763L1086 0H195zm168 1691v113h492v-113H363z"/><glyph unicode="ē" horiz-adv-x="1030" vert-adv-y="2458" d="M946 515H237v-27q0-193 68-289Q388 80 576 80q152 0 331 96V57Q729-33 570-33q-239 0-368 156-72 89-97 210-15 74-15 186 0 178 43 284 62 150 189 217 93 49 212 49 209 0 317-143 95-126 95-346v-65zM794 621q-8 154-45 225-61 119-218 119-150 0-227-110-45-66-59-167-4-22-8-67h557zm-513 681v113h492v-113H281z"/><glyph unicode="Ĕ" horiz-adv-x="1180" vert-adv-y="2458" d="M195 0v1489h834v-109H336V823h549V714H336V109h763L1086 0H195zm684 1866q-9-108-71-168-70-68-181-68-112 0-182 68-62 60-70 168h106q21-132 146-132t145 132h107z"/><glyph unicode="Ė" horiz-adv-x="1180" vert-adv-y="2458" d="M195 0v1489h834v-109H336V823h549V714H336V109h763L1086 0H195zm437 1850q45 0 73-29 26-27 26-70 0-42-26-69-28-29-72-29-45 0-73 29-26 27-26 71 0 42 26 68 29 29 72 29z"/><glyph unicode="ė" horiz-adv-x="1030" vert-adv-y="2458" d="M946 515H237v-27q0-193 68-289Q388 80 576 80q152 0 331 96V57Q729-33 570-33q-239 0-368 156-72 89-97 210-15 74-15 186 0 178 43 284 62 150 189 217 93 49 212 49 209 0 317-143 95-126 95-346v-65zM794 621q-8 154-45 225-61 119-218 119-150 0-227-110-45-66-59-167-4-22-8-67h557zm-237 840q45 0 73-29 26-27 26-70 0-42-26-69-28-29-72-29-45 0-73 29-26 27-26 71 0 42 26 68 29 29 72 29z"/><glyph unicode="Ę" horiz-adv-x="1180" vert-adv-y="2458" d="M195 0v1489h834v-109H336V823h549V714H336V109h762L1086 0h-82q-40-57-56-86-32-58-32-119 0-96 108-96 43 0 86 16v-92q-48-20-103-20-121 0-178 70-36 44-36 107 0 103 125 220H195z"/><glyph unicode="ę" horiz-adv-x="1030" vert-adv-y="2458" d="M811 14q-42-58-61-92-37-64-37-127 0-96 108-96 42 0 86 16v-92q-47-20-103-20-122 0-178 70-36 44-36 107 0 97 103 199-66-12-121-12-241 0-370 156-72 89-97 210-15 74-15 186 0 178 43 284 62 150 189 217 93 49 212 49 209 0 317-143 95-126 95-346v-65H237v-27q0-193 68-289Q388 80 576 80q152 0 331 96V57q-53-26-96-43zm-17 607q-8 154-45 225-61 119-218 119-150 0-227-110-45-66-59-167-4-22-8-67h557z"/><glyph unicode="Ě" horiz-adv-x="1180" vert-adv-y="2458" d="M195 0v1489h834v-109H336V823h549V714H336V109h763L1086 0H195zm714 1937l-229-325H561l-227 325h117l170-206 172 206h116z"/><glyph unicode="ě" horiz-adv-x="1030" vert-adv-y="2458" d="M946 515H237v-27q0-193 68-289Q388 80 576 80q152 0 331 96V57Q729-33 570-33q-239 0-368 156-72 89-97 210-15 74-15 186 0 178 43 284 62 150 189 217 93 49 212 49 209 0 317-143 95-126 95-346v-65zM794 621q-8 154-45 225-61 119-218 119-150 0-227-110-45-66-59-167-4-22-8-67h557zm27 907l-229-326H473l-227 326h117l170-207 172 207h116z"/><glyph unicode="Ĝ" horiz-adv-x="1356" vert-adv-y="2458" d="M1148 1317q-84 37-136 52-113 34-244 34-253 0-383-154-78-92-109-243-22-106-22-268 0-227 50-354 71-182 237-253 100-42 251-42 162 0 297 48v471H794v109h438V72q-225-92-449-92-337 0-512 193-167 184-167 564 0 391 184 588 177 189 485 189 187 0 375-74v-123zm-675 295l229 325h119l227-325H932l-170 206-172-206H473z"/><glyph unicode="ĝ" horiz-adv-x="985" vert-adv-y="2458" d="M291 389q-63-68-63-140 0-46 32-66 35-21 109-21h214q183 0 273-51 117-65 117-232 0-160-139-248-125-80-342-80-177 0-295 50Q25-327 25-173 25-73 113 0q39 32 106 66-114 47-114 156 0 100 124 202-129 104-129 283 0 160 96 255 106 105 290 105 89 0 173-29h320v-98h-70q-48 0-102-12 59-90 59-212 0-165-98-262-103-104-283-104-105 0-194 39zm20-342q-64-37-94-69-55-59-55-137 0-188 328-188 346 0 346 223 0 100-76 141-56 30-162 30H311zm175 917q-247 0-247-250 0-116 41-172 67-90 203-90 130 0 196 83 48 61 48 174 0 124-52 183-63 72-189 72zm-258 238l229 326h119l227-326H687l-170 207-172-207H228z"/><glyph unicode="Ğ" horiz-adv-x="1356" vert-adv-y="2458" d="M1148 1317q-84 37-136 52-113 34-244 34-253 0-383-154-78-92-109-243-22-106-22-268 0-227 50-354 71-182 237-253 100-42 251-42 162 0 297 48v471H794v109h438V72q-225-92-449-92-337 0-512 193-167 184-167 564 0 391 184 588 177 189 485 189 187 0 375-74v-123zm-122 549q-9-108-71-168-70-68-181-68-112 0-182 68-62 60-70 168h106q21-132 146-132t145 132h107z"/><glyph unicode="ğ" horiz-adv-x="985" vert-adv-y="2458" d="M291 389q-63-68-63-140 0-46 32-66 35-21 109-21h214q183 0 273-51 117-65 117-232 0-160-139-248-125-80-342-80-177 0-295 50Q25-327 25-173 25-73 113 0q39 32 106 66-114 47-114 156 0 100 124 202-129 104-129 283 0 160 96 255 106 105 290 105 89 0 173-29h320v-98h-70q-48 0-102-12 59-90 59-212 0-165-98-262-103-104-283-104-105 0-194 39zm20-342q-64-37-94-69-55-59-55-137 0-188 328-188 346 0 346 223 0 100-76 141-56 30-162 30H311zm175 917q-247 0-247-250 0-116 41-172 67-90 203-90 130 0 196 83 48 61 48 174 0 124-52 183-63 72-189 72zm295 513q-9-108-71-168-70-68-181-68-112 0-182 68-62 60-70 168h106q21-132 146-132t145 132h107z"/><glyph unicode="Ġ" horiz-adv-x="1356" vert-adv-y="2458" d="M1148 1317q-84 37-136 52-113 34-244 34-253 0-383-154-78-92-109-243-22-106-22-268 0-227 50-354 71-182 237-253 100-42 251-42 162 0 297 48v471H794v109h438V72q-225-92-449-92-337 0-512 193-167 184-167 564 0 391 184 588 177 189 485 189 187 0 375-74v-123zm-398 533q45 0 73-29 26-27 26-70 0-42-26-69-28-29-72-29-45 0-73 29-26 27-26 71 0 42 26 68 29 29 72 29z"/><glyph unicode="ġ" horiz-adv-x="985" vert-adv-y="2458" d="M291 389q-63-68-63-140 0-46 32-66 35-21 109-21h214q183 0 273-51 117-65 117-232 0-160-139-248-125-80-342-80-177 0-295 50Q25-327 25-173 25-73 113 0q39 32 106 66-114 47-114 156 0 100 124 202-129 104-129 283 0 160 96 255 106 105 290 105 89 0 173-29h320v-98h-70q-48 0-102-12 59-90 59-212 0-165-98-262-103-104-283-104-105 0-194 39zm20-342q-64-37-94-69-55-59-55-137 0-188 328-188 346 0 346 223 0 100-76 141-56 30-162 30H311zm175 917q-247 0-247-250 0-116 41-172 67-90 203-90 130 0 196 83 48 61 48 174 0 124-52 183-63 72-189 72zm13 497q45 0 73-29 26-27 26-70 0-42-26-69-28-29-72-29-45 0-73 29-26 27-26 71 0 42 26 68 29 29 72 29z"/><glyph unicode="Ģ" horiz-adv-x="1356" vert-adv-y="2458" d="M1148 1317q-84 37-136 52-113 34-244 34-253 0-383-154-78-92-109-243-22-106-22-268 0-227 50-354 71-182 237-253 100-42 251-42 162 0 297 48v471H794v109h438V72q-225-92-449-92-337 0-512 193-167 184-167 564 0 391 184 588 177 189 485 189 187 0 375-74v-123zM541-430L666-82h121L682-430H541z"/><glyph unicode="ģ" horiz-adv-x="985" vert-adv-y="2458" d="M291 389q-63-68-63-140 0-46 32-66 35-21 109-21h214q183 0 273-51 117-65 117-232 0-160-139-248-125-80-342-80-177 0-295 50Q25-327 25-173 25-73 113 0q39 32 106 66-114 47-114 156 0 100 124 202-129 104-129 283 0 160 96 255 106 105 290 105 89 0 173-29h320v-98h-70q-48 0-102-12 59-90 59-212 0-165-98-262-103-104-283-104-105 0-194 39zm20-342q-64-37-94-69-55-59-55-137 0-188 328-188 346 0 346 223 0 100-76 141-56 30-162 30H311zm175 917q-247 0-247-250 0-116 41-172 67-90 203-90 130 0 196 83 48 61 48 174 0 124-52 183-63 72-189 72zm128 584h118l-163-354H419z"/><glyph unicode="Ĥ" horiz-adv-x="1491" vert-adv-y="2458" d="M195 0v1489h141V817h820v672h141V0h-141v708H336V0H195zm262 1612l229 325h119l227-325H916l-170 206-172-206H457z"/><glyph unicode="ĥ" horiz-adv-x="1143" vert-adv-y="2458" d="M846 0v746q0 204-179 204-97 0-202-49-61-28-160-92V0H166v1505q72 5 106 45h33V891q96 76 163 113 117 65 227 65 140 0 217-86 73-82 73-235V0H846zM-31 1591l229 325h119l227-325H428l-170 206-172-206H-31z"/><glyph unicode="Ī" horiz-adv-x="541" vert-adv-y="2458" d="M199 0v1489h143V0H199zM25 1691v113h492v-113H25z"/><glyph unicode="ī" horiz-adv-x="471" vert-adv-y="2458" d="M166 0v1024q71 5 106 47h33V0H166zM-10 1302v113h492v-113H-10z"/><glyph unicode="ĭ" horiz-adv-x="471" vert-adv-y="2458" d="M166 0v1024q71 5 106 47h33V0H166zm322 1477q-9-108-71-168-70-68-181-68-112 0-182 68-62 60-70 168H90q21-132 146-132t145 132h107z"/><glyph unicode="Į" horiz-adv-x="541" vert-adv-y="2458" d="M198 0v1489h144V0h-33q-39-55-56-86-32-59-32-119 0-96 108-96 42 0 86 16v-92q-48-20-103-20-121 0-178 70-36 44-36 107 0 72 51 141 26 34 74 79h-25z"/><glyph unicode="į" horiz-adv-x="471" vert-adv-y="2458" d="M166 0v1024q71 5 107 47h33V0h-29q-39-56-54-83-34-61-34-122 0-96 108-96 42 0 86 16v-92q-47-20-103-20-121 0-178 70-36 44-36 107 0 72 51 141 26 34 74 79h-25zm68 1461q45 0 73-29 26-27 26-70 0-42-26-69-28-29-72-29-45 0-73 29-26 27-26 71 0 42 26 68 29 29 72 29z"/><glyph unicode="İ" horiz-adv-x="541" vert-adv-y="2458" d="M199 0v1489h143V0H199zm71 1850q45 0 73-29 26-27 26-70 0-42-26-69-28-29-72-29-45 0-73 29-26 27-26 71 0 42 26 68 29 29 72 29z"/><glyph unicode="ı" horiz-adv-x="471" vert-adv-y="2458" d="M166 0v1024q71 5 106 47h33V0H166z"/><glyph unicode="Ĵ" horiz-adv-x="535" vert-adv-y="2458" d="M-33-432v107q137 26 187 91 45 59 45 165v1558h141V-57q0-173-96-268-62-61-161-87-38-11-116-20zm11 2044l229 325h119l227-325H437l-170 206-172-206H-22z"/><glyph unicode="ĵ" horiz-adv-x="471" vert-adv-y="2458" d="M-39-415v110q111 23 160 91 45 64 45 176v1062q71 5 106 47h33V-17q0-172-77-268-62-78-173-110-36-11-94-20zm-14 1617l229 326h119l227-326H406l-170 207-172-207H-53z"/><glyph unicode="Ķ" horiz-adv-x="1241" vert-adv-y="2458" d="M195 0v1489h141V754l670 735h164L486 748 1233 0h-188L336 721V0H195zm230-430L550-82h121L566-430H425z"/><glyph unicode="ķ" horiz-adv-x="997" vert-adv-y="2458" d="M821 0L473 518 305 320V0H166v1505q72 5 106 45h33V483l465 570h160L561 619 975 0H821zM357-430L482-82h121L498-430H357z"/><glyph unicode="Ĺ" horiz-adv-x="1108" vert-adv-y="2458" d="M195 0v1489h141V109h709L1030 0H195zm149 1612H225l147 325h150z"/><glyph unicode="ĺ" horiz-adv-x="475" vert-adv-y="2458" d="M168 0v1505q72 5 106 45h33V0H168zm122 1637H171l164 354h149z"/><glyph unicode="Ļ" horiz-adv-x="1108" vert-adv-y="2458" d="M195 0v1489h141V109h709L1030 0H195zm224-430L544-82h121L560-430H419z"/><glyph unicode="ļ" horiz-adv-x="475" vert-adv-y="2458" d="M168 0v1505q72 5 106 45h33V0H168zM47-430L172-82h121L188-430H47z"/><glyph unicode="Ľ" horiz-adv-x="1108" vert-adv-y="2458" d="M195 0v1489h141V109h709L1030 0H195zm337 1171l66 377h156l-117-377H532z"/><glyph unicode="ľ" horiz-adv-x="648" vert-adv-y="2458" d="M168 0v1505q72 5 106 45h33V0H168zm299 1171l66 377h156l-117-377H467z"/><glyph unicode="Ł" horiz-adv-x="1108" vert-adv-y="2458" d="M194 0v535L18 441v122l176 95v831h141V734l463 249V860L335 611V109h709L1029 0H194z"/><glyph unicode="ł" horiz-adv-x="475" vert-adv-y="2458" d="M168 822v683q72 5 106 45h33V924l161 118V921L307 804V0H168v702L7 584v120z"/><glyph unicode="Ń" horiz-adv-x="1485" vert-adv-y="2458" d="M193 0v1489h121l846-1202v1202h133V0h-100L326 1235V0H193zm648 1612H722l147 325h150z"/><glyph unicode="ń" horiz-adv-x="1143" vert-adv-y="2458" d="M846 0v746q0 205-179 205-97 0-202-49-62-29-160-93V0H166v1024q71 5 106 47h33V891q96 76 163 113 116 65 227 65 140 0 217-86 73-82 73-235V0H846zM617 1194H498l164 354h149z"/><glyph unicode="Ņ" horiz-adv-x="1485" vert-adv-y="2458" d="M193 0v1489h121l846-1202v1202h133V0h-100L326 1235V0H193zm366-430L684-82h121L700-430H559z"/><glyph unicode="ņ" horiz-adv-x="1143" vert-adv-y="2458" d="M846 0v746q0 205-179 205-97 0-202-49-62-29-160-93V0H166v1024q71 5 106 47h33V891q96 76 163 113 116 65 227 65 140 0 217-86 73-82 73-235V0H846zM405-430L530-82h121L546-430H405z"/><glyph unicode="Ň" horiz-adv-x="1485" vert-adv-y="2458" d="M193 0v1489h121l846-1202v1202h133V0h-100L326 1235V0H193zm874 1937l-229-325H719l-227 325h117l170-206 172 206h116z"/><glyph unicode="ň" horiz-adv-x="1143" vert-adv-y="2458" d="M846 0v746q0 205-179 205-97 0-202-49-62-29-160-93V0H166v1024q71 5 106 47h33V891q96 76 163 113 116 65 227 65 140 0 217-86 73-82 73-235V0H846zm26 1528l-229-326H524l-227 326h117l170-207 172 207h116z"/><glyph unicode="Ō" horiz-adv-x="1473" vert-adv-y="2458" d="M736 1514q332 0 501-249 131-194 131-518 0-356-158-555Q1040-20 735-20q-331 0-500 250-81 119-112 279-19 99-19 246 0 348 158 547 170 212 474 212zm0-107q-256 0-379-192-103-160-103-460 0-347 126-508Q505 87 736 87q254 0 379 192 103 159 103 468 0 339-126 500-125 160-356 160zm-246 284v113h492v-113H490z"/><glyph unicode="ō" horiz-adv-x="1128" vert-adv-y="2458" d="M564 1067q207 0 333-128 141-142 141-422T897 95Q771-33 564-33T231 95q-84 84-117 207-24 89-24 221 0 273 141 416 125 128 333 128zm0-107q-171 0-255-116-72-99-72-321 0-154 26-236Q329 74 564 74q170 0 255 116 72 98 72 327 0 247-87 346-85 97-240 97zm-246 342v113h492v-113H318z"/><glyph unicode="Ő" horiz-adv-x="1473" vert-adv-y="2458" d="M736 1514q332 0 501-249 131-194 131-518 0-356-158-555Q1040-20 735-20q-331 0-500 250-81 119-112 279-19 99-19 246 0 348 158 547 170 212 474 212zm0-107q-256 0-379-192-103-160-103-460 0-347 126-508Q505 87 736 87q254 0 379 192 103 159 103 468 0 339-126 500-125 160-356 160zm99 205l94 325h141l-118-325H835zm-291 0l96 325h142l-121-325H544z"/><glyph unicode="ő" horiz-adv-x="1128" vert-adv-y="2458" d="M564 1067q207 0 333-128 141-142 141-422T897 95Q771-33 564-33T231 95q-84 84-117 207-24 89-24 221 0 273 141 416 125 128 333 128zm0-107q-171 0-255-116-72-99-72-321 0-154 26-236Q329 74 564 74q170 0 255 116 72 98 72 327 0 247-87 346-85 97-240 97zm83 234l110 354h142l-135-354H647zm-291 0l113 354h141l-137-354H356z"/><glyph unicode="Œ" horiz-adv-x="2204" vert-adv-y="2458" d="M1222 0v248q-69-117-157-177-133-91-330-91-315 0-484 217-90 116-125 280-22 106-22 266 0 339 139 533 172 238 495 238 207 0 344-102 76-57 140-163v240h830v-113h-693V823h549V712h-549V111h763L2109 0h-887zM737 1407q-273 0-394-213-90-158-90-443 0-234 49-369 57-160 188-235 103-60 245-60 217 0 344 143 93 105 124 283 15 87 15 232 0 228-52 370-107 292-429 292z"/><glyph unicode="œ" horiz-adv-x="1829" vert-adv-y="2458" d="M952 226Q893 97 801 35 699-33 556-33 356-33 232 91 90 232 90 518q0 280 136 419 128 130 333 130 176 0 287-96 63-53 108-151 113 249 382 249 191 0 297-121 112-126 112-368v-65h-717v-47q0-388 343-388 156 0 335 96V57q-178-90-341-90-188 0-303 100-64 56-110 159zM559 961q-158 0-243-104-79-97-79-325 0-167 30-254Q337 72 559 72q154 0 241 110 47 60 66 148 15 73 15 194 0 162-31 245-71 192-291 192zm1034-340q-7 165-52 241-61 103-208 103-131 0-211-85-56-59-78-149-9-36-16-110h565z"/><glyph unicode="Ŕ" horiz-adv-x="1274" vert-adv-y="2458" d="M195 1489h463q182 0 294-72 93-60 126-167 18-58 18-149 0-171-100-268-63-61-154-91-35-11-105-23 90-46 164-160L1264 0h-168L764 514q-74 115-125 148-50 34-153 34H336V0H195v1489zm141-684h301q155 0 233 73 46 43 63 101 13 43 13 125 0 105-33 161-67 115-274 115H336V805zm297 807H514l147 325h150z"/><glyph unicode="ŕ" horiz-adv-x="707" vert-adv-y="2458" d="M166 0v1024q71 5 106 47h33V887q188 158 355 182V928q-115-19-180-39-87-27-175-80V0H166zm254 1194H301l164 354h149z"/><glyph unicode="Ŗ" horiz-adv-x="1274" vert-adv-y="2458" d="M195 1489h463q182 0 294-72 93-60 126-167 18-58 18-149 0-171-100-268-63-61-154-91-35-11-105-23 90-46 164-160L1264 0h-168L764 514q-74 115-125 148-50 34-153 34H336V0H195v1489zm141-684h301q155 0 233 73 46 43 63 101 13 43 13 125 0 105-33 161-67 115-274 115H336V805zM465-430L590-82h121L606-430H465z"/><glyph unicode="ŗ" horiz-adv-x="707" vert-adv-y="2458" d="M166 0v1024q71 5 106 47h33V887q188 158 355 182V928q-115-19-180-39-87-27-175-80V0H166zM45-430L170-82h121L186-430H45z"/><glyph unicode="Ř" horiz-adv-x="1274" vert-adv-y="2458" d="M195 1489h463q182 0 294-72 93-60 126-167 18-58 18-149 0-171-100-268-63-61-154-91-35-11-105-23 90-46 164-160L1264 0h-168L764 514q-74 115-125 148-50 34-153 34H336V0H195v1489zm141-684h301q155 0 233 73 46 43 63 101 13 43 13 125 0 105-33 161-67 115-274 115H336V805zm547 1132l-229-325H535l-227 325h117l170-206 172 206h116z"/><glyph unicode="ř" horiz-adv-x="707" vert-adv-y="2458" d="M166 0v1024q71 5 106 47h33V887q188 158 355 182V928q-115-19-180-39-87-27-175-80V0H166zm476 1528l-229-326H294L67 1528h117l170-207 172 207h116z"/><glyph unicode="Ś" horiz-adv-x="999" vert-adv-y="2458" d="M842 1311q-185 92-344 92-279 0-279-232 0-116 79-190 52-50 206-139 200-116 284-191 132-119 132-291 0-171-121-274Q675-20 454-20 240-20 47 84v127q90-54 163-80 114-42 245-42 178 0 259 81 67 67 67 180 0 128-102 218-66 58-247 162-174 100-244 172-102 105-102 256 0 172 125 269 113 87 294 87 159 0 337-80v-123zm-257 301H466l147 325h150z"/><glyph unicode="ś" horiz-adv-x="862" vert-adv-y="2458" d="M725 873q-157 79-285 79-197 0-197-158 0-78 53-122 44-37 168-84 163-62 228-119 88-76 88-202 0-137-95-217-97-81-272-81-159 0-317 82v123q80-42 128-60 87-32 189-32 230 0 230 176 0 80-51 124-47 41-174 89-121 46-166 73-140 88-140 240 0 142 106 218 86 61 230 61 147 0 277-65V873zm-249 321H357l164 354h149z"/><glyph unicode="Ŝ" horiz-adv-x="999" vert-adv-y="2458" d="M842 1311q-185 92-344 92-279 0-279-232 0-116 79-190 52-50 206-139 200-116 284-191 132-119 132-291 0-171-121-274Q675-20 454-20 240-20 47 84v127q90-54 163-80 114-42 245-42 178 0 259 81 67 67 67 180 0 128-102 218-66 58-247 162-174 100-244 172-102 105-102 256 0 172 125 269 113 87 294 87 159 0 337-80v-123zm-619 301l229 325h119l227-325H682l-170 206-172-206H223z"/><glyph unicode="ŝ" horiz-adv-x="862" vert-adv-y="2458" d="M725 873q-157 79-285 79-197 0-197-158 0-78 53-122 44-37 168-84 163-62 228-119 88-76 88-202 0-137-95-217-97-81-272-81-159 0-317 82v123q80-42 128-60 87-32 189-32 230 0 230 176 0 80-51 124-47 41-174 89-121 46-166 73-140 88-140 240 0 142 106 218 86 61 230 61 147 0 277-65V873zm-559 329l229 326h119l227-326H625l-170 207-172-207H166z"/><glyph unicode="Ş" horiz-adv-x="999" vert-adv-y="2458" d="M539-16L439-348H297L415-20Q225-12 47 84v127q91-55 163-81 114-42 245-42 178 0 259 81 67 67 67 180 0 128-102 218-65 58-247 162-174 101-244 172-102 106-102 257 0 172 125 268 113 88 294 88 159 0 337-80v-123q-185 92-344 92-279 0-279-232 0-116 79-190 52-50 206-139 200-116 284-191 132-119 132-291 0-206-170-310-85-51-211-66z"/><glyph unicode="ş" horiz-adv-x="862" vert-adv-y="2458" d="M503-24l-97-324H265L379-30Q238-22 96 51v123q80-42 128-60 87-32 189-32 230 0 230 176 0 80-51 124-47 41-174 89-121 46-166 73-140 88-140 240 0 142 106 218 86 61 230 61 147 0 277-65V873q-157 79-285 79-197 0-197-158 0-78 53-122 44-37 168-84 163-62 228-119 88-76 88-202 0-151-115-231-62-44-162-60z"/><glyph unicode="Š" horiz-adv-x="999" vert-adv-y="2458" d="M842 1311q-185 92-344 92-279 0-279-232 0-116 79-190 52-50 206-139 200-116 284-191 132-119 132-291 0-171-121-274Q675-20 454-20 240-20 47 84v127q90-54 163-80 114-42 245-42 178 0 259 81 67 67 67 180 0 128-102 218-66 58-247 162-174 100-244 172-102 105-102 256 0 172 125 269 113 87 294 87 159 0 337-80v-123zm-54 626l-229-325H440l-227 325h117l170-206 172 206h116z"/><glyph unicode="š" horiz-adv-x="862" vert-adv-y="2458" d="M725 873q-157 79-285 79-197 0-197-158 0-78 53-122 44-37 168-84 163-62 228-119 88-76 88-202 0-137-95-217-97-81-272-81-159 0-317 82v123q80-42 128-60 87-32 189-32 230 0 230 176 0 80-51 124-47 41-174 89-121 46-166 73-140 88-140 240 0 142 106 218 86 61 230 61 147 0 277-65V873zm12 655l-229-326H389l-227 326h117l170-207 172 207h116z"/><glyph unicode="Ţ" horiz-adv-x="1167" vert-adv-y="2458" d="M59 1380l10 109h1032v-109H653V0H512v1380H59zM393-430L518-82h121L534-430H393z"/><glyph unicode="ţ" horiz-adv-x="705" vert-adv-y="2458" d="M674 12q-71-35-165-35-304 0-304 328v642H41v106h59q60 0 86 23 25 21 37 75l31 129h86v-227h301V947H340V283q0-199 181-199 71 0 153 33V12zM216-430L341-82h121L357-430H216z"/><glyph unicode="Ť" horiz-adv-x="1167" vert-adv-y="2458" d="M59 1380l10 109h1032v-109H653V0H512v1380H59zm812 557l-229-325H523l-227 325h117l170-206 172 206h116z"/><glyph unicode="ť" horiz-adv-x="705" vert-adv-y="2458" d="M674 12q-71-35-165-35-304 0-304 328v642H41v106h59q60 0 86 23 25 21 37 75l31 129h86v-227h301V947H340V283q0-199 181-199 71 0 153 33V12zM517 1171l66 377h156l-117-377H517z"/><glyph unicode="Ū" horiz-adv-x="1452" vert-adv-y="2458" d="M1280 1489V557q0-250-92-388Q1063-20 739-20q-567 0-567 571v938h141V551q0-210 76-318Q485 95 741 95q253 0 343 156 63 108 63 304v934h133zm-796 202v113h492v-113H484z"/><glyph unicode="ū" horiz-adv-x="1120" vert-adv-y="2458" d="M830 152Q727 59 655 20q-97-53-200-53-165 0-243 110-56 80-56 212v756l139 16V289q0-205 187-205 96 0 190 47 60 29 146 92v822l137 16V0h-78zM315 1302v113h492v-113H315z"/><glyph unicode="Ŭ" horiz-adv-x="1452" vert-adv-y="2458" d="M1280 1489V557q0-250-92-388Q1063-20 739-20q-567 0-567 571v938h141V551q0-210 76-318Q485 95 741 95q253 0 343 156 63 108 63 304v934h133zm-298 377q-9-108-71-168-70-68-181-68-112 0-182 68-62 60-70 168h106q21-132 146-132t145 132h107z"/><glyph unicode="ŭ" horiz-adv-x="1120" vert-adv-y="2458" d="M830 152Q727 59 655 20q-97-53-200-53-165 0-243 110-56 80-56 212v756l139 16V289q0-205 187-205 96 0 190 47 60 29 146 92v822l137 16V0h-78zm-17 1325q-9-108-71-168-70-68-181-68-112 0-182 68-62 60-70 168h106q21-132 146-132t145 132h107z"/><glyph unicode="Ů" horiz-adv-x="1452" vert-adv-y="2458" d="M1280 1489V557q0-250-92-388Q1063-20 739-20q-567 0-567 571v938h141V551q0-210 76-318Q485 95 741 95q253 0 343 156 63 108 63 304v934h133zm-554 471q92 0 148-58 50-51 50-130 0-80-50-131-55-58-148-58-94 0-149 58-50 52-50 128 0 83 50 133 57 58 149 58zm0-74q-55 0-85-39-22-29-22-74 0-48 22-77 30-39 85-39 54 0 84 39 22 29 22 76t-22 75q-30 39-84 39z"/><glyph unicode="ů" horiz-adv-x="1120" vert-adv-y="2458" d="M830 152Q727 59 655 20q-97-53-200-53-165 0-243 110-56 80-56 212v756l139 16V289q0-205 187-205 96 0 190 47 60 29 146 92v822l137 16V0h-78zM561 1571q92 0 148-58 50-51 50-130 0-80-50-131-55-58-148-58-94 0-149 58-50 52-50 128 0 83 50 133 57 58 149 58zm0-74q-55 0-85-39-22-29-22-74 0-48 22-77 30-39 85-39 54 0 84 39 22 29 22 76t-22 75q-31 39-84 39z"/><glyph unicode="Ű" horiz-adv-x="1452" vert-adv-y="2458" d="M1280 1489V557q0-250-92-388Q1063-20 739-20q-567 0-567 571v938h141V551q0-210 76-318Q485 95 741 95q253 0 343 156 63 108 63 304v934h133zm-443 123l94 325h141l-118-325H837zm-291 0l96 325h142l-121-325H546z"/><glyph unicode="ű" horiz-adv-x="1120" vert-adv-y="2458" d="M830 152Q727 59 655 20q-97-53-200-53-165 0-243 110-56 80-56 212v756l139 16V289q0-205 187-205 96 0 190 47 60 29 146 92v822l137 16V0h-78zM643 1194l110 354h142l-135-354H643zm-291 0l113 354h141l-137-354H352z"/><glyph unicode="Ų" horiz-adv-x="1452" vert-adv-y="2458" d="M172 1489h141V551q0-211 76-319Q485 94 741 94q253 0 343 156 63 108 63 305v934h133V557q0-304-137-443-94-96-252-122-29-5-70-9-31-44-45-69-32-59-32-119 0-96 108-96 42 0 87 16v-92q-48-20-103-20-122 0-179 70-36 44-36 108 0 94 104 199-162 4-264 45-289 114-289 526v938z"/><glyph unicode="ų" horiz-adv-x="1120" vert-adv-y="2458" d="M830 152Q727 59 655 20q-97-53-200-53-165 0-243 110-56 80-56 212v756l139 16V289q0-205 187-205 96 0 190 47 60 29 146 92v822l137 16V0q-40-57-56-86-32-58-32-119 0-96 108-96 42 0 86 16v-92q-47-20-103-20-121 0-178 70-36 44-36 107 0 73 58 144 26 32 75 76z"/><glyph unicode="Ŵ" horiz-adv-x="1788" vert-adv-y="2458" d="M538-12L51 1489h150L600 231l219 605-254 653h143l187-494 178 494h137L966 854l236-623 395 1258h140L1245-12h-88L889 692 626-12h-88zm67 1624l229 325h119l227-325h-116l-170 206-172-206H605z"/><glyph unicode="Ŷ" horiz-adv-x="1262" vert-adv-y="2458" d="M562 0v604L66 1489h156l419-760 408 760h147L703 590V0H562zM360 1612l229 325h119l227-325H819l-170 206-172-206H360z"/><glyph unicode="ŷ" horiz-adv-x="975" vert-adv-y="2458" d="M211-393l219 508-418 938h150l337-776 328 776h135L346-393H211zm-7 1595l229 326h119l227-326H663l-170 207-172-207H204z"/><glyph unicode="Ÿ" horiz-adv-x="1262" vert-adv-y="2458" d="M562 0v604L66 1489h156l419-760 408 760h147L703 590V0H562zm-99 1845q43 0 69-28 25-25 25-66 0-40-25-66-26-28-69-28t-70 28q-24 25-24 67 0 40 24 65 28 28 70 28zm336 0q43 0 69-28 25-25 25-66 0-40-25-66-26-28-69-28t-70 28q-24 25-24 67 0 40 24 65 28 28 70 28z"/><glyph unicode="Ź" horiz-adv-x="1200" vert-adv-y="2458" d="M68 0v84l854 1296H123l11 109h964v-82L246 109h854l-8-109H68zm606 1612H555l147 325h150z"/><glyph unicode="ź" horiz-adv-x="936" vert-adv-y="2458" d="M76 0v84l606 860H125v109h727v-82L246 109h610V0H76zm468 1194H425l164 354h149z"/><glyph unicode="Ż" horiz-adv-x="1200" vert-adv-y="2458" d="M68 0v84l854 1296H123l11 109h964v-82L246 109h854l-8-109H68zm550 1850q45 0 73-29 26-27 26-70 0-42-26-69-28-29-72-29-45 0-73 29-26 27-26 71 0 42 26 68 29 29 72 29z"/><glyph unicode="ż" horiz-adv-x="936" vert-adv-y="2458" d="M76 0v84l606 860H125v109h727v-82L246 109h610V0H76zm428 1461q45 0 73-29 26-27 26-70 0-42-26-69-28-29-72-29-45 0-73 29-26 27-26 71 0 42 26 68 29 29 72 29z"/><glyph unicode="Ž" horiz-adv-x="1200" vert-adv-y="2458" d="M68 0v84l854 1296H123l11 109h964v-82L246 109h854l-8-109H68zm857 1937l-229-325H577l-227 325h117l170-206 172 206h116z"/><glyph unicode="ž" horiz-adv-x="936" vert-adv-y="2458" d="M76 0v84l606 860H125v109h727v-82L246 109h610V0H76zm705 1528l-229-326H433l-227 326h117l170-207 172 207h116z"/><glyph unicode="ƒ" horiz-adv-x="778" vert-adv-y="2458" d="M94 760v106h190l37 271q25 184 139 274 98 78 255 78h75v-115q-32 8-71 8-226 0-258-233l-39-283h268V760H407L256-393H117L270 760H94z"/><glyph unicode="Ǎ" horiz-adv-x="1280" vert-adv-y="2458" d="M27 0l569 1499h97L1252 0h-154L924 475H344L168 0H27zm610 1266L383 584h502zm292 671l-229-325H581l-227 325h117l170-206 172 206h116z"/><glyph unicode="ǎ" horiz-adv-x="1020" vert-adv-y="2458" d="M731 152Q666 79 609 39 505-33 388-33q-126 0-208 73-87 78-87 218 0 162 116 228 114 65 352 86l164 14v123q0 245-215 245-106 0-208-36-58-19-145-62v113q192 98 363 98 342 0 342-356V0h-78zm-6 346l-164-17q-175-17-253-67-73-46-73-155 0-78 34-122 50-63 143-63 165 0 313 180v244zm73 1030l-229-326H450l-227 326h117l170-207 172 207h116z"/><glyph unicode="Ǔ" horiz-adv-x="1452" vert-adv-y="2458" d="M1280 1489V557q0-250-92-388Q1063-20 739-20q-567 0-567 571v938h141V551q0-210 76-318Q485 95 741 95q253 0 343 156 63 108 63 304v934h133zm-266 448l-229-325H666l-227 325h117l170-206 172 206h116z"/><glyph unicode="Ǧ" horiz-adv-x="1356" vert-adv-y="2458" d="M1148 1317q-84 37-136 52-113 34-244 34-253 0-383-154-78-92-109-243-22-106-22-268 0-227 50-354 71-182 237-253 100-42 251-42 162 0 297 48v471H794v109h438V72q-225-92-449-92-337 0-512 193-167 184-167 564 0 391 184 588 177 189 485 189 187 0 375-74v-123zm-98 620l-229-325H702l-227 325h117l170-206 172 206h116z"/><glyph unicode="ǧ" horiz-adv-x="985" vert-adv-y="2458" d="M291 389q-63-68-63-140 0-46 32-66 35-21 109-21h214q183 0 273-51 117-65 117-232 0-160-139-248-125-80-342-80-177 0-295 50Q25-327 25-173 25-73 113 0q39 32 106 66-114 47-114 156 0 100 124 202-129 104-129 283 0 160 96 255 106 105 290 105 89 0 173-29h320v-98h-70q-48 0-102-12 59-90 59-212 0-165-98-262-103-104-283-104-105 0-194 39zm20-342q-64-37-94-69-55-59-55-137 0-188 328-188 346 0 346 223 0 100-76 141-56 30-162 30H311zm175 917q-247 0-247-250 0-116 41-172 67-90 203-90 130 0 196 83 48 61 48 174 0 124-52 183-63 72-189 72zm307 564l-229-326H445l-227 326h117l170-207 172 207h116z"/><glyph unicode="Ǵ" horiz-adv-x="1356" vert-adv-y="2458" d="M1148 1317q-84 37-136 52-113 34-244 34-253 0-383-154-78-92-109-243-22-106-22-268 0-227 50-354 71-182 237-253 100-42 251-42 162 0 297 48v471H794v109h438V72q-225-92-449-92-337 0-512 193-167 184-167 564 0 391 184 588 177 189 485 189 187 0 375-74v-123zm-349 295H680l147 325h150z"/><glyph unicode="ˆ" horiz-adv-x="1024" vert-adv-y="2458" d="M223 1202l229 326h119l227-326H682l-170 207-172-207H223z"/><glyph unicode="ˇ" horiz-adv-x="1024" vert-adv-y="2458" d="M800 1528l-229-326H452l-227 326h117l170-207 172 207h116z"/><glyph unicode="ˉ" horiz-adv-x="1024" vert-adv-y="2458" d="M266 1302v113h492v-113H266z"/><glyph unicode="˘" horiz-adv-x="1024" vert-adv-y="2458" d="M764 1477q-9-108-71-168-70-68-181-68-112 0-182 68-62 60-70 168h106q21-132 146-132t145 132h107z"/><glyph unicode="˙" horiz-adv-x="1024" vert-adv-y="2458" d="M512 1461q45 0 73-29 26-27 26-70 0-42-26-69-28-29-72-29-45 0-73 29-26 27-26 71 0 42 26 68 29 29 72 29z"/><glyph unicode="˚" horiz-adv-x="1024" vert-adv-y="2458" d="M512 1571q92 0 148-58 50-51 50-130 0-80-50-131-55-58-148-58-94 0-149 58-50 52-50 128 0 83 50 133 57 58 149 58zm0-74q-55 0-85-39-22-29-22-74 0-48 22-77 30-39 85-39 54 0 84 39 22 29 22 76t-22 75q-31 39-84 39z"/><glyph unicode="˛" horiz-adv-x="1024" vert-adv-y="2458" d="M682-377q-47-20-103-20-122 0-178 70-36 44-36 107 0 72 51 141 26 34 74 79h86q-42-61-56-86-32-59-32-119 0-96 108-96 42 0 86 16v-92z"/><glyph unicode="˜" horiz-adv-x="1024" vert-adv-y="2458" d="M295 1260l-70 47q79 139 190 139 45 0 116-33 57-26 89-26 63 0 109 71l69-47q-78-139-185-139-45 0-117 32-61 27-93 27-59 0-108-71z"/><glyph unicode="˝" horiz-adv-x="1024" vert-adv-y="2458" d="M595 1194l110 354h142l-135-354H595zm-291 0l113 354h141l-137-354H304z"/><glyph unicode="΄" vert-adv-y="2458" d="M614 1014q133 0 223-93 84-87 84-214 0-126-84-214-90-93-222-93-134 0-224 93-84 87-84 218 0 125 84 210 92 93 223 93z"/><glyph unicode="΅" vert-adv-y="2458" d="M614 1014q133 0 223-93 84-87 84-214 0-126-84-214-90-93-222-93-134 0-224 93-84 87-84 218 0 125 84 210 92 93 223 93z"/><glyph unicode="Ά" vert-adv-y="2458" d="M614 1014q133 0 223-93 84-87 84-214 0-126-84-214-90-93-222-93-134 0-224 93-84 87-84 218 0 125 84 210 92 93 223 93z"/><glyph unicode="·" horiz-adv-x="614" vert-adv-y="2458" d="M307 792q50 0 82-33 29-30 29-78 0-47-29-77-32-33-81-33-50 0-82 33-29 30-29 79 0 46 29 76 33 33 81 33z"/><glyph unicode="Έ" vert-adv-y="2458" d="M614 1014q133 0 223-93 84-87 84-214 0-126-84-214-90-93-222-93-134 0-224 93-84 87-84 218 0 125 84 210 92 93 223 93z"/><glyph unicode="Ή" vert-adv-y="2458" d="M614 1014q133 0 223-93 84-87 84-214 0-126-84-214-90-93-222-93-134 0-224 93-84 87-84 218 0 125 84 210 92 93 223 93z"/><glyph unicode="Ί" vert-adv-y="2458" d="M614 1014q133 0 223-93 84-87 84-214 0-126-84-214-90-93-222-93-134 0-224 93-84 87-84 218 0 125 84 210 92 93 223 93z"/><glyph unicode="Ό" vert-adv-y="2458" d="M614 1014q133 0 223-93 84-87 84-214 0-126-84-214-90-93-222-93-134 0-224 93-84 87-84 218 0 125 84 210 92 93 223 93z"/><glyph unicode="Ύ" vert-adv-y="2458" d="M614 1014q133 0 223-93 84-87 84-214 0-126-84-214-90-93-222-93-134 0-224 93-84 87-84 218 0 125 84 210 92 93 223 93z"/><glyph unicode="Ώ" vert-adv-y="2458" d="M614 1014q133 0 223-93 84-87 84-214 0-126-84-214-90-93-222-93-134 0-224 93-84 87-84 218 0 125 84 210 92 93 223 93z"/><glyph unicode="ΐ" vert-adv-y="2458" d="M614 1014q133 0 223-93 84-87 84-214 0-126-84-214-90-93-222-93-134 0-224 93-84 87-84 218 0 125 84 210 92 93 223 93z"/><glyph unicode="Α" vert-adv-y="2458" d="M614 1014q133 0 223-93 84-87 84-214 0-126-84-214-90-93-222-93-134 0-224 93-84 87-84 218 0 125 84 210 92 93 223 93z"/><glyph unicode="Β" vert-adv-y="2458" d="M614 1014q133 0 223-93 84-87 84-214 0-126-84-214-90-93-222-93-134 0-224 93-84 87-84 218 0 125 84 210 92 93 223 93z"/><glyph unicode="Γ" vert-adv-y="2458" d="M614 1014q133 0 223-93 84-87 84-214 0-126-84-214-90-93-222-93-134 0-224 93-84 87-84 218 0 125 84 210 92 93 223 93z"/><glyph unicode="Δ" vert-adv-y="2458" d="M614 1014q133 0 223-93 84-87 84-214 0-126-84-214-90-93-222-93-134 0-224 93-84 87-84 218 0 125 84 210 92 93 223 93z"/><glyph unicode="Ε" vert-adv-y="2458" d="M614 1014q133 0 223-93 84-87 84-214 0-126-84-214-90-93-222-93-134 0-224 93-84 87-84 218 0 125 84 210 92 93 223 93z"/><glyph unicode="Ζ" vert-adv-y="2458" d="M614 1014q133 0 223-93 84-87 84-214 0-126-84-214-90-93-222-93-134 0-224 93-84 87-84 218 0 125 84 210 92 93 223 93z"/><glyph unicode="Η" vert-adv-y="2458" d="M614 1014q133 0 223-93 84-87 84-214 0-126-84-214-90-93-222-93-134 0-224 93-84 87-84 218 0 125 84 210 92 93 223 93z"/><glyph unicode="Θ" vert-adv-y="2458" d="M614 1014q133 0 223-93 84-87 84-214 0-126-84-214-90-93-222-93-134 0-224 93-84 87-84 218 0 125 84 210 92 93 223 93z"/><glyph unicode="Ι" vert-adv-y="2458" d="M614 1014q133 0 223-93 84-87 84-214 0-126-84-214-90-93-222-93-134 0-224 93-84 87-84 218 0 125 84 210 92 93 223 93z"/><glyph unicode="Κ" vert-adv-y="2458" d="M614 1014q133 0 223-93 84-87 84-214 0-126-84-214-90-93-222-93-134 0-224 93-84 87-84 218 0 125 84 210 92 93 223 93z"/><glyph unicode="Λ" vert-adv-y="2458" d="M614 1014q133 0 223-93 84-87 84-214 0-126-84-214-90-93-222-93-134 0-224 93-84 87-84 218 0 125 84 210 92 93 223 93z"/><glyph unicode="Μ" vert-adv-y="2458" d="M614 1014q133 0 223-93 84-87 84-214 0-126-84-214-90-93-222-93-134 0-224 93-84 87-84 218 0 125 84 210 92 93 223 93z"/><glyph unicode="Ν" vert-adv-y="2458" d="M614 1014q133 0 223-93 84-87 84-214 0-126-84-214-90-93-222-93-134 0-224 93-84 87-84 218 0 125 84 210 92 93 223 93z"/><glyph unicode="Ξ" vert-adv-y="2458" d="M614 1014q133 0 223-93 84-87 84-214 0-126-84-214-90-93-222-93-134 0-224 93-84 87-84 218 0 125 84 210 92 93 223 93z"/><glyph unicode="Ο" vert-adv-y="2458" d="M614 1014q133 0 223-93 84-87 84-214 0-126-84-214-90-93-222-93-134 0-224 93-84 87-84 218 0 125 84 210 92 93 223 93z"/><glyph unicode="Π" vert-adv-y="2458" d="M614 1014q133 0 223-93 84-87 84-214 0-126-84-214-90-93-222-93-134 0-224 93-84 87-84 218 0 125 84 210 92 93 223 93z"/><glyph unicode="Ρ" vert-adv-y="2458" d="M614 1014q133 0 223-93 84-87 84-214 0-126-84-214-90-93-222-93-134 0-224 93-84 87-84 218 0 125 84 210 92 93 223 93z"/><glyph unicode="Σ" vert-adv-y="2458" d="M614 1014q133 0 223-93 84-87 84-214 0-126-84-214-90-93-222-93-134 0-224 93-84 87-84 218 0 125 84 210 92 93 223 93z"/><glyph unicode="Τ" vert-adv-y="2458" d="M614 1014q133 0 223-93 84-87 84-214 0-126-84-214-90-93-222-93-134 0-224 93-84 87-84 218 0 125 84 210 92 93 223 93z"/><glyph unicode="Υ" vert-adv-y="2458" d="M614 1014q133 0 223-93 84-87 84-214 0-126-84-214-90-93-222-93-134 0-224 93-84 87-84 218 0 125 84 210 92 93 223 93z"/><glyph unicode="Φ" vert-adv-y="2458" d="M614 1014q133 0 223-93 84-87 84-214 0-126-84-214-90-93-222-93-134 0-224 93-84 87-84 218 0 125 84 210 92 93 223 93z"/><glyph unicode="Χ" vert-adv-y="2458" d="M614 1014q133 0 223-93 84-87 84-214 0-126-84-214-90-93-222-93-134 0-224 93-84 87-84 218 0 125 84 210 92 93 223 93z"/><glyph unicode="Ψ" vert-adv-y="2458" d="M614 1014q133 0 223-93 84-87 84-214 0-126-84-214-90-93-222-93-134 0-224 93-84 87-84 218 0 125 84 210 92 93 223 93z"/><glyph unicode="Ω" vert-adv-y="2458" d="M614 1014q133 0 223-93 84-87 84-214 0-126-84-214-90-93-222-93-134 0-224 93-84 87-84 218 0 125 84 210 92 93 223 93z"/><glyph unicode="Ϊ" vert-adv-y="2458" d="M614 1014q133 0 223-93 84-87 84-214 0-126-84-214-90-93-222-93-134 0-224 93-84 87-84 218 0 125 84 210 92 93 223 93z"/><glyph unicode="ά" vert-adv-y="2458" d="M614 1014q133 0 223-93 84-87 84-214 0-126-84-214-90-93-222-93-134 0-224 93-84 87-84 218 0 125 84 210 92 93 223 93z"/><glyph unicode="έ" vert-adv-y="2458" d="M614 1014q133 0 223-93 84-87 84-214 0-126-84-214-90-93-222-93-134 0-224 93-84 87-84 218 0 125 84 210 92 93 223 93z"/><glyph unicode="ή" vert-adv-y="2458" d="M614 1014q133 0 223-93 84-87 84-214 0-126-84-214-90-93-222-93-134 0-224 93-84 87-84 218 0 125 84 210 92 93 223 93z"/><glyph unicode="ί" vert-adv-y="2458" d="M614 1014q133 0 223-93 84-87 84-214 0-126-84-214-90-93-222-93-134 0-224 93-84 87-84 218 0 125 84 210 92 93 223 93z"/><glyph unicode="ΰ" vert-adv-y="2458" d="M614 1014q133 0 223-93 84-87 84-214 0-126-84-214-90-93-222-93-134 0-224 93-84 87-84 218 0 125 84 210 92 93 223 93z"/><glyph unicode="α" vert-adv-y="2458" d="M614 1014q133 0 223-93 84-87 84-214 0-126-84-214-90-93-222-93-134 0-224 93-84 87-84 218 0 125 84 210 92 93 223 93z"/><glyph unicode="β" vert-adv-y="2458" d="M614 1014q133 0 223-93 84-87 84-214 0-126-84-214-90-93-222-93-134 0-224 93-84 87-84 218 0 125 84 210 92 93 223 93z"/><glyph unicode="γ" vert-adv-y="2458" d="M614 1014q133 0 223-93 84-87 84-214 0-126-84-214-90-93-222-93-134 0-224 93-84 87-84 218 0 125 84 210 92 93 223 93z"/><glyph unicode="δ" vert-adv-y="2458" d="M614 1014q133 0 223-93 84-87 84-214 0-126-84-214-90-93-222-93-134 0-224 93-84 87-84 218 0 125 84 210 92 93 223 93z"/><glyph unicode="ε" vert-adv-y="2458" d="M614 1014q133 0 223-93 84-87 84-214 0-126-84-214-90-93-222-93-134 0-224 93-84 87-84 218 0 125 84 210 92 93 223 93z"/><glyph unicode="ζ" vert-adv-y="2458" d="M614 1014q133 0 223-93 84-87 84-214 0-126-84-214-90-93-222-93-134 0-224 93-84 87-84 218 0 125 84 210 92 93 223 93z"/><glyph unicode="η" vert-adv-y="2458" d="M614 1014q133 0 223-93 84-87 84-214 0-126-84-214-90-93-222-93-134 0-224 93-84 87-84 218 0 125 84 210 92 93 223 93z"/><glyph unicode="θ" vert-adv-y="2458" d="M614 1014q133 0 223-93 84-87 84-214 0-126-84-214-90-93-222-93-134 0-224 93-84 87-84 218 0 125 84 210 92 93 223 93z"/><glyph unicode="ι" vert-adv-y="2458" d="M614 1014q133 0 223-93 84-87 84-214 0-126-84-214-90-93-222-93-134 0-224 93-84 87-84 218 0 125 84 210 92 93 223 93z"/><glyph unicode="κ" vert-adv-y="2458" d="M614 1014q133 0 223-93 84-87 84-214 0-126-84-214-90-93-222-93-134 0-224 93-84 87-84 218 0 125 84 210 92 93 223 93z"/><glyph unicode="λ" vert-adv-y="2458" d="M614 1014q133 0 223-93 84-87 84-214 0-126-84-214-90-93-222-93-134 0-224 93-84 87-84 218 0 125 84 210 92 93 223 93z"/><glyph unicode="μ" vert-adv-y="2458" d="M614 1014q133 0 223-93 84-87 84-214 0-126-84-214-90-93-222-93-134 0-224 93-84 87-84 218 0 125 84 210 92 93 223 93z"/><glyph unicode="ν" vert-adv-y="2458" d="M614 1014q133 0 223-93 84-87 84-214 0-126-84-214-90-93-222-93-134 0-224 93-84 87-84 218 0 125 84 210 92 93 223 93z"/><glyph unicode="ξ" vert-adv-y="2458" d="M614 1014q133 0 223-93 84-87 84-214 0-126-84-214-90-93-222-93-134 0-224 93-84 87-84 218 0 125 84 210 92 93 223 93z"/><glyph unicode="ο" vert-adv-y="2458" d="M614 1014q133 0 223-93 84-87 84-214 0-126-84-214-90-93-222-93-134 0-224 93-84 87-84 218 0 125 84 210 92 93 223 93z"/><glyph unicode="π" vert-adv-y="2458" d="M614 1014q133 0 223-93 84-87 84-214 0-126-84-214-90-93-222-93-134 0-224 93-84 87-84 218 0 125 84 210 92 93 223 93z"/><glyph unicode="ρ" vert-adv-y="2458" d="M614 1014q133 0 223-93 84-87 84-214 0-126-84-214-90-93-222-93-134 0-224 93-84 87-84 218 0 125 84 210 92 93 223 93z"/><glyph unicode="ς" vert-adv-y="2458" d="M614 1014q133 0 223-93 84-87 84-214 0-126-84-214-90-93-222-93-134 0-224 93-84 87-84 218 0 125 84 210 92 93 223 93z"/><glyph unicode="σ" vert-adv-y="2458" d="M614 1014q133 0 223-93 84-87 84-214 0-126-84-214-90-93-222-93-134 0-224 93-84 87-84 218 0 125 84 210 92 93 223 93z"/><glyph unicode="τ" vert-adv-y="2458" d="M614 1014q133 0 223-93 84-87 84-214 0-126-84-214-90-93-222-93-134 0-224 93-84 87-84 218 0 125 84 210 92 93 223 93z"/><glyph unicode="υ" vert-adv-y="2458" d="M614 1014q133 0 223-93 84-87 84-214 0-126-84-214-90-93-222-93-134 0-224 93-84 87-84 218 0 125 84 210 92 93 223 93z"/><glyph unicode="φ" vert-adv-y="2458" d="M614 1014q133 0 223-93 84-87 84-214 0-126-84-214-90-93-222-93-134 0-224 93-84 87-84 218 0 125 84 210 92 93 223 93z"/><glyph unicode="χ" vert-adv-y="2458" d="M614 1014q133 0 223-93 84-87 84-214 0-126-84-214-90-93-222-93-134 0-224 93-84 87-84 218 0 125 84 210 92 93 223 93z"/><glyph unicode="ψ" vert-adv-y="2458" d="M614 1014q133 0 223-93 84-87 84-214 0-126-84-214-90-93-222-93-134 0-224 93-84 87-84 218 0 125 84 210 92 93 223 93z"/><glyph unicode="ω" vert-adv-y="2458" d="M614 1014q133 0 223-93 84-87 84-214 0-126-84-214-90-93-222-93-134 0-224 93-84 87-84 218 0 125 84 210 92 93 223 93z"/><glyph unicode="ό" vert-adv-y="2458" d="M614 1014q133 0 223-93 84-87 84-214 0-126-84-214-90-93-222-93-134 0-224 93-84 87-84 218 0 125 84 210 92 93 223 93z"/><glyph unicode="ύ" vert-adv-y="2458" d="M614 1014q133 0 223-93 84-87 84-214 0-126-84-214-90-93-222-93-134 0-224 93-84 87-84 218 0 125 84 210 92 93 223 93z"/><glyph unicode="ώ" vert-adv-y="2458" d="M614 1014q133 0 223-93 84-87 84-214 0-126-84-214-90-93-222-93-134 0-224 93-84 87-84 218 0 125 84 210 92 93 223 93z"/><glyph unicode="Ё" vert-adv-y="2458" d="M614 1014q133 0 223-93 84-87 84-214 0-126-84-214-90-93-222-93-134 0-224 93-84 87-84 218 0 125 84 210 92 93 223 93z"/><glyph unicode="Ђ" vert-adv-y="2458" d="M614 1014q133 0 223-93 84-87 84-214 0-126-84-214-90-93-222-93-134 0-224 93-84 87-84 218 0 125 84 210 92 93 223 93z"/><glyph unicode="Ѓ" vert-adv-y="2458" d="M614 1014q133 0 223-93 84-87 84-214 0-126-84-214-90-93-222-93-134 0-224 93-84 87-84 218 0 125 84 210 92 93 223 93z"/><glyph unicode="Є" vert-adv-y="2458" d="M614 1014q133 0 223-93 84-87 84-214 0-126-84-214-90-93-222-93-134 0-224 93-84 87-84 218 0 125 84 210 92 93 223 93z"/><glyph unicode="Ѕ" vert-adv-y="2458" d="M614 1014q133 0 223-93 84-87 84-214 0-126-84-214-90-93-222-93-134 0-224 93-84 87-84 218 0 125 84 210 92 93 223 93z"/><glyph unicode="І" vert-adv-y="2458" d="M614 1014q133 0 223-93 84-87 84-214 0-126-84-214-90-93-222-93-134 0-224 93-84 87-84 218 0 125 84 210 92 93 223 93z"/><glyph unicode="Ї" vert-adv-y="2458" d="M614 1014q133 0 223-93 84-87 84-214 0-126-84-214-90-93-222-93-134 0-224 93-84 87-84 218 0 125 84 210 92 93 223 93z"/><glyph unicode="Ј" vert-adv-y="2458" d="M614 1014q133 0 223-93 84-87 84-214 0-126-84-214-90-93-222-93-134 0-224 93-84 87-84 218 0 125 84 210 92 93 223 93z"/><glyph unicode="Љ" vert-adv-y="2458" d="M614 1014q133 0 223-93 84-87 84-214 0-126-84-214-90-93-222-93-134 0-224 93-84 87-84 218 0 125 84 210 92 93 223 93z"/><glyph unicode="Њ" vert-adv-y="2458" d="M614 1014q133 0 223-93 84-87 84-214 0-126-84-214-90-93-222-93-134 0-224 93-84 87-84 218 0 125 84 210 92 93 223 93z"/><glyph unicode="Ћ" vert-adv-y="2458" d="M614 1014q133 0 223-93 84-87 84-214 0-126-84-214-90-93-222-93-134 0-224 93-84 87-84 218 0 125 84 210 92 93 223 93z"/><glyph unicode="Ќ" vert-adv-y="2458" d="M614 1014q133 0 223-93 84-87 84-214 0-126-84-214-90-93-222-93-134 0-224 93-84 87-84 218 0 125 84 210 92 93 223 93z"/><glyph unicode="Ў" vert-adv-y="2458" d="M614 1014q133 0 223-93 84-87 84-214 0-126-84-214-90-93-222-93-134 0-224 93-84 87-84 218 0 125 84 210 92 93 223 93z"/><glyph unicode="Џ" vert-adv-y="2458" d="M614 1014q133 0 223-93 84-87 84-214 0-126-84-214-90-93-222-93-134 0-224 93-84 87-84 218 0 125 84 210 92 93 223 93z"/><glyph unicode="А" vert-adv-y="2458" d="M614 1014q133 0 223-93 84-87 84-214 0-126-84-214-90-93-222-93-134 0-224 93-84 87-84 218 0 125 84 210 92 93 223 93z"/><glyph unicode="Б" vert-adv-y="2458" d="M614 1014q133 0 223-93 84-87 84-214 0-126-84-214-90-93-222-93-134 0-224 93-84 87-84 218 0 125 84 210 92 93 223 93z"/><glyph unicode="В" vert-adv-y="2458" d="M614 1014q133 0 223-93 84-87 84-214 0-126-84-214-90-93-222-93-134 0-224 93-84 87-84 218 0 125 84 210 92 93 223 93z"/><glyph unicode="Г" vert-adv-y="2458" d="M614 1014q133 0 223-93 84-87 84-214 0-126-84-214-90-93-222-93-134 0-224 93-84 87-84 218 0 125 84 210 92 93 223 93z"/><glyph unicode="Д" vert-adv-y="2458" d="M614 1014q133 0 223-93 84-87 84-214 0-126-84-214-90-93-222-93-134 0-224 93-84 87-84 218 0 125 84 210 92 93 223 93z"/><glyph unicode="Е" vert-adv-y="2458" d="M614 1014q133 0 223-93 84-87 84-214 0-126-84-214-90-93-222-93-134 0-224 93-84 87-84 218 0 125 84 210 92 93 223 93z"/><glyph unicode="Ж" vert-adv-y="2458" d="M614 1014q133 0 223-93 84-87 84-214 0-126-84-214-90-93-222-93-134 0-224 93-84 87-84 218 0 125 84 210 92 93 223 93z"/><glyph unicode="З" vert-adv-y="2458" d="M614 1014q133 0 223-93 84-87 84-214 0-126-84-214-90-93-222-93-134 0-224 93-84 87-84 218 0 125 84 210 92 93 223 93z"/><glyph unicode="И" vert-adv-y="2458" d="M614 1014q133 0 223-93 84-87 84-214 0-126-84-214-90-93-222-93-134 0-224 93-84 87-84 218 0 125 84 210 92 93 223 93z"/><glyph unicode="Й" vert-adv-y="2458" d="M614 1014q133 0 223-93 84-87 84-214 0-126-84-214-90-93-222-93-134 0-224 93-84 87-84 218 0 125 84 210 92 93 223 93z"/><glyph unicode="К" vert-adv-y="2458" d="M614 1014q133 0 223-93 84-87 84-214 0-126-84-214-90-93-222-93-134 0-224 93-84 87-84 218 0 125 84 210 92 93 223 93z"/><glyph unicode="Л" vert-adv-y="2458" d="M614 1014q133 0 223-93 84-87 84-214 0-126-84-214-90-93-222-93-134 0-224 93-84 87-84 218 0 125 84 210 92 93 223 93z"/><glyph unicode="М" vert-adv-y="2458" d="M614 1014q133 0 223-93 84-87 84-214 0-126-84-214-90-93-222-93-134 0-224 93-84 87-84 218 0 125 84 210 92 93 223 93z"/><glyph unicode="Н" vert-adv-y="2458" d="M614 1014q133 0 223-93 84-87 84-214 0-126-84-214-90-93-222-93-134 0-224 93-84 87-84 218 0 125 84 210 92 93 223 93z"/><glyph unicode="О" vert-adv-y="2458" d="M614 1014q133 0 223-93 84-87 84-214 0-126-84-214-90-93-222-93-134 0-224 93-84 87-84 218 0 125 84 210 92 93 223 93z"/><glyph unicode="П" vert-adv-y="2458" d="M614 1014q133 0 223-93 84-87 84-214 0-126-84-214-90-93-222-93-134 0-224 93-84 87-84 218 0 125 84 210 92 93 223 93z"/><glyph unicode="Р" vert-adv-y="2458" d="M614 1014q133 0 223-93 84-87 84-214 0-126-84-214-90-93-222-93-134 0-224 93-84 87-84 218 0 125 84 210 92 93 223 93z"/><glyph unicode="С" vert-adv-y="2458" d="M614 1014q133 0 223-93 84-87 84-214 0-126-84-214-90-93-222-93-134 0-224 93-84 87-84 218 0 125 84 210 92 93 223 93z"/><glyph unicode="Т" vert-adv-y="2458" d="M614 1014q133 0 223-93 84-87 84-214 0-126-84-214-90-93-222-93-134 0-224 93-84 87-84 218 0 125 84 210 92 93 223 93z"/><glyph unicode="У" vert-adv-y="2458" d="M614 1014q133 0 223-93 84-87 84-214 0-126-84-214-90-93-222-93-134 0-224 93-84 87-84 218 0 125 84 210 92 93 223 93z"/><glyph unicode="Ф" vert-adv-y="2458" d="M614 1014q133 0 223-93 84-87 84-214 0-126-84-214-90-93-222-93-134 0-224 93-84 87-84 218 0 125 84 210 92 93 223 93z"/><glyph unicode="Х" vert-adv-y="2458" d="M614 1014q133 0 223-93 84-87 84-214 0-126-84-214-90-93-222-93-134 0-224 93-84 87-84 218 0 125 84 210 92 93 223 93z"/><glyph unicode="Ц" vert-adv-y="2458" d="M614 1014q133 0 223-93 84-87 84-214 0-126-84-214-90-93-222-93-134 0-224 93-84 87-84 218 0 125 84 210 92 93 223 93z"/><glyph unicode="Ч" vert-adv-y="2458" d="M614 1014q133 0 223-93 84-87 84-214 0-126-84-214-90-93-222-93-134 0-224 93-84 87-84 218 0 125 84 210 92 93 223 93z"/><glyph unicode="Ш" vert-adv-y="2458" d="M614 1014q133 0 223-93 84-87 84-214 0-126-84-214-90-93-222-93-134 0-224 93-84 87-84 218 0 125 84 210 92 93 223 93z"/><glyph unicode="Щ" vert-adv-y="2458" d="M614 1014q133 0 223-93 84-87 84-214 0-126-84-214-90-93-222-93-134 0-224 93-84 87-84 218 0 125 84 210 92 93 223 93z"/><glyph unicode="Ъ" vert-adv-y="2458" d="M614 1014q133 0 223-93 84-87 84-214 0-126-84-214-90-93-222-93-134 0-224 93-84 87-84 218 0 125 84 210 92 93 223 93z"/><glyph unicode="Ы" vert-adv-y="2458" d="M614 1014q133 0 223-93 84-87 84-214 0-126-84-214-90-93-222-93-134 0-224 93-84 87-84 218 0 125 84 210 92 93 223 93z"/><glyph unicode="Ь" vert-adv-y="2458" d="M614 1014q133 0 223-93 84-87 84-214 0-126-84-214-90-93-222-93-134 0-224 93-84 87-84 218 0 125 84 210 92 93 223 93z"/><glyph unicode="Э" vert-adv-y="2458" d="M614 1014q133 0 223-93 84-87 84-214 0-126-84-214-90-93-222-93-134 0-224 93-84 87-84 218 0 125 84 210 92 93 223 93z"/><glyph unicode="Ю" vert-adv-y="2458" d="M614 1014q133 0 223-93 84-87 84-214 0-126-84-214-90-93-222-93-134 0-224 93-84 87-84 218 0 125 84 210 92 93 223 93z"/><glyph unicode="Я" vert-adv-y="2458" d="M614 1014q133 0 223-93 84-87 84-214 0-126-84-214-90-93-222-93-134 0-224 93-84 87-84 218 0 125 84 210 92 93 223 93z"/><glyph unicode="а" vert-adv-y="2458" d="M614 1014q133 0 223-93 84-87 84-214 0-126-84-214-90-93-222-93-134 0-224 93-84 87-84 218 0 125 84 210 92 93 223 93z"/><glyph unicode="б" vert-adv-y="2458" d="M614 1014q133 0 223-93 84-87 84-214 0-126-84-214-90-93-222-93-134 0-224 93-84 87-84 218 0 125 84 210 92 93 223 93z"/><glyph unicode="в" vert-adv-y="2458" d="M614 1014q133 0 223-93 84-87 84-214 0-126-84-214-90-93-222-93-134 0-224 93-84 87-84 218 0 125 84 210 92 93 223 93z"/><glyph unicode="г" vert-adv-y="2458" d="M614 1014q133 0 223-93 84-87 84-214 0-126-84-214-90-93-222-93-134 0-224 93-84 87-84 218 0 125 84 210 92 93 223 93z"/><glyph unicode="д" vert-adv-y="2458" d="M614 1014q133 0 223-93 84-87 84-214 0-126-84-214-90-93-222-93-134 0-224 93-84 87-84 218 0 125 84 210 92 93 223 93z"/><glyph unicode="е" vert-adv-y="2458" d="M614 1014q133 0 223-93 84-87 84-214 0-126-84-214-90-93-222-93-134 0-224 93-84 87-84 218 0 125 84 210 92 93 223 93z"/><glyph unicode="ж" vert-adv-y="2458" d="M614 1014q133 0 223-93 84-87 84-214 0-126-84-214-90-93-222-93-134 0-224 93-84 87-84 218 0 125 84 210 92 93 223 93z"/><glyph unicode="з" vert-adv-y="2458" d="M614 1014q133 0 223-93 84-87 84-214 0-126-84-214-90-93-222-93-134 0-224 93-84 87-84 218 0 125 84 210 92 93 223 93z"/><glyph unicode="и" vert-adv-y="2458" d="M614 1014q133 0 223-93 84-87 84-214 0-126-84-214-90-93-222-93-134 0-224 93-84 87-84 218 0 125 84 210 92 93 223 93z"/><glyph unicode="й" vert-adv-y="2458" d="M614 1014q133 0 223-93 84-87 84-214 0-126-84-214-90-93-222-93-134 0-224 93-84 87-84 218 0 125 84 210 92 93 223 93z"/><glyph unicode="к" vert-adv-y="2458" d="M614 1014q133 0 223-93 84-87 84-214 0-126-84-214-90-93-222-93-134 0-224 93-84 87-84 218 0 125 84 210 92 93 223 93z"/><glyph unicode="л" vert-adv-y="2458" d="M614 1014q133 0 223-93 84-87 84-214 0-126-84-214-90-93-222-93-134 0-224 93-84 87-84 218 0 125 84 210 92 93 223 93z"/><glyph unicode="м" vert-adv-y="2458" d="M614 1014q133 0 223-93 84-87 84-214 0-126-84-214-90-93-222-93-134 0-224 93-84 87-84 218 0 125 84 210 92 93 223 93z"/><glyph unicode="н" vert-adv-y="2458" d="M614 1014q133 0 223-93 84-87 84-214 0-126-84-214-90-93-222-93-134 0-224 93-84 87-84 218 0 125 84 210 92 93 223 93z"/><glyph unicode="о" vert-adv-y="2458" d="M614 1014q133 0 223-93 84-87 84-214 0-126-84-214-90-93-222-93-134 0-224 93-84 87-84 218 0 125 84 210 92 93 223 93z"/><glyph unicode="п" vert-adv-y="2458" d="M614 1014q133 0 223-93 84-87 84-214 0-126-84-214-90-93-222-93-134 0-224 93-84 87-84 218 0 125 84 210 92 93 223 93z"/><glyph unicode="р" vert-adv-y="2458" d="M614 1014q133 0 223-93 84-87 84-214 0-126-84-214-90-93-222-93-134 0-224 93-84 87-84 218 0 125 84 210 92 93 223 93z"/><glyph unicode="с" vert-adv-y="2458" d="M614 1014q133 0 223-93 84-87 84-214 0-126-84-214-90-93-222-93-134 0-224 93-84 87-84 218 0 125 84 210 92 93 223 93z"/><glyph unicode="т" vert-adv-y="2458" d="M614 1014q133 0 223-93 84-87 84-214 0-126-84-214-90-93-222-93-134 0-224 93-84 87-84 218 0 125 84 210 92 93 223 93z"/><glyph unicode="у" vert-adv-y="2458" d="M614 1014q133 0 223-93 84-87 84-214 0-126-84-214-90-93-222-93-134 0-224 93-84 87-84 218 0 125 84 210 92 93 223 93z"/><glyph unicode="ф" vert-adv-y="2458" d="M614 1014q133 0 223-93 84-87 84-214 0-126-84-214-90-93-222-93-134 0-224 93-84 87-84 218 0 125 84 210 92 93 223 93z"/><glyph unicode="х" vert-adv-y="2458" d="M614 1014q133 0 223-93 84-87 84-214 0-126-84-214-90-93-222-93-134 0-224 93-84 87-84 218 0 125 84 210 92 93 223 93z"/><glyph unicode="ц" vert-adv-y="2458" d="M614 1014q133 0 223-93 84-87 84-214 0-126-84-214-90-93-222-93-134 0-224 93-84 87-84 218 0 125 84 210 92 93 223 93z"/><glyph unicode="ч" vert-adv-y="2458" d="M614 1014q133 0 223-93 84-87 84-214 0-126-84-214-90-93-222-93-134 0-224 93-84 87-84 218 0 125 84 210 92 93 223 93z"/><glyph unicode="ш" vert-adv-y="2458" d="M614 1014q133 0 223-93 84-87 84-214 0-126-84-214-90-93-222-93-134 0-224 93-84 87-84 218 0 125 84 210 92 93 223 93z"/><glyph unicode="щ" vert-adv-y="2458" d="M614 1014q133 0 223-93 84-87 84-214 0-126-84-214-90-93-222-93-134 0-224 93-84 87-84 218 0 125 84 210 92 93 223 93z"/><glyph unicode="ъ" vert-adv-y="2458" d="M614 1014q133 0 223-93 84-87 84-214 0-126-84-214-90-93-222-93-134 0-224 93-84 87-84 218 0 125 84 210 92 93 223 93z"/><glyph unicode="ы" vert-adv-y="2458" d="M614 1014q133 0 223-93 84-87 84-214 0-126-84-214-90-93-222-93-134 0-224 93-84 87-84 218 0 125 84 210 92 93 223 93z"/><glyph unicode="ь" vert-adv-y="2458" d="M614 1014q133 0 223-93 84-87 84-214 0-126-84-214-90-93-222-93-134 0-224 93-84 87-84 218 0 125 84 210 92 93 223 93z"/><glyph unicode="э" vert-adv-y="2458" d="M614 1014q133 0 223-93 84-87 84-214 0-126-84-214-90-93-222-93-134 0-224 93-84 87-84 218 0 125 84 210 92 93 223 93z"/><glyph unicode="ю" vert-adv-y="2458" d="M614 1014q133 0 223-93 84-87 84-214 0-126-84-214-90-93-222-93-134 0-224 93-84 87-84 218 0 125 84 210 92 93 223 93z"/><glyph unicode="я" vert-adv-y="2458" d="M614 1014q133 0 223-93 84-87 84-214 0-126-84-214-90-93-222-93-134 0-224 93-84 87-84 218 0 125 84 210 92 93 223 93z"/><glyph unicode="ё" vert-adv-y="2458" d="M614 1014q133 0 223-93 84-87 84-214 0-126-84-214-90-93-222-93-134 0-224 93-84 87-84 218 0 125 84 210 92 93 223 93z"/><glyph unicode="ђ" vert-adv-y="2458" d="M614 1014q133 0 223-93 84-87 84-214 0-126-84-214-90-93-222-93-134 0-224 93-84 87-84 218 0 125 84 210 92 93 223 93z"/><glyph unicode="ѓ" vert-adv-y="2458" d="M614 1014q133 0 223-93 84-87 84-214 0-126-84-214-90-93-222-93-134 0-224 93-84 87-84 218 0 125 84 210 92 93 223 93z"/><glyph unicode="є" vert-adv-y="2458" d="M614 1014q133 0 223-93 84-87 84-214 0-126-84-214-90-93-222-93-134 0-224 93-84 87-84 218 0 125 84 210 92 93 223 93z"/><glyph unicode="ѕ" vert-adv-y="2458" d="M614 1014q133 0 223-93 84-87 84-214 0-126-84-214-90-93-222-93-134 0-224 93-84 87-84 218 0 125 84 210 92 93 223 93z"/><glyph unicode="і" vert-adv-y="2458" d="M614 1014q133 0 223-93 84-87 84-214 0-126-84-214-90-93-222-93-134 0-224 93-84 87-84 218 0 125 84 210 92 93 223 93z"/><glyph unicode="ї" vert-adv-y="2458" d="M614 1014q133 0 223-93 84-87 84-214 0-126-84-214-90-93-222-93-134 0-224 93-84 87-84 218 0 125 84 210 92 93 223 93z"/><glyph unicode="ј" vert-adv-y="2458" d="M614 1014q133 0 223-93 84-87 84-214 0-126-84-214-90-93-222-93-134 0-224 93-84 87-84 218 0 125 84 210 92 93 223 93z"/><glyph unicode="љ" vert-adv-y="2458" d="M614 1014q133 0 223-93 84-87 84-214 0-126-84-214-90-93-222-93-134 0-224 93-84 87-84 218 0 125 84 210 92 93 223 93z"/><glyph unicode="њ" vert-adv-y="2458" d="M614 1014q133 0 223-93 84-87 84-214 0-126-84-214-90-93-222-93-134 0-224 93-84 87-84 218 0 125 84 210 92 93 223 93z"/><glyph unicode="ћ" vert-adv-y="2458" d="M614 1014q133 0 223-93 84-87 84-214 0-126-84-214-90-93-222-93-134 0-224 93-84 87-84 218 0 125 84 210 92 93 223 93z"/><glyph unicode="ќ" vert-adv-y="2458" d="M614 1014q133 0 223-93 84-87 84-214 0-126-84-214-90-93-222-93-134 0-224 93-84 87-84 218 0 125 84 210 92 93 223 93z"/><glyph unicode="ў" vert-adv-y="2458" d="M614 1014q133 0 223-93 84-87 84-214 0-126-84-214-90-93-222-93-134 0-224 93-84 87-84 218 0 125 84 210 92 93 223 93z"/><glyph unicode="џ" vert-adv-y="2458" d="M614 1014q133 0 223-93 84-87 84-214 0-126-84-214-90-93-222-93-134 0-224 93-84 87-84 218 0 125 84 210 92 93 223 93z"/><glyph unicode="Ґ" vert-adv-y="2458" d="M614 1014q133 0 223-93 84-87 84-214 0-126-84-214-90-93-222-93-134 0-224 93-84 87-84 218 0 125 84 210 92 93 223 93z"/><glyph unicode="ґ" vert-adv-y="2458" d="M614 1014q133 0 223-93 84-87 84-214 0-126-84-214-90-93-222-93-134 0-224 93-84 87-84 218 0 125 84 210 92 93 223 93z"/><glyph unicode="һ" vert-adv-y="2458" d="M614 1014q133 0 223-93 84-87 84-214 0-126-84-214-90-93-222-93-134 0-224 93-84 87-84 218 0 125 84 210 92 93 223 93z"/><glyph unicode="Ӏ" vert-adv-y="2458" d="M614 1014q133 0 223-93 84-87 84-214 0-126-84-214-90-93-222-93-134 0-224 93-84 87-84 218 0 125 84 210 92 93 223 93z"/><glyph unicode="Ẅ" horiz-adv-x="1788" vert-adv-y="2458" d="M538-12L51 1489h150L600 231l219 605-254 653h143l187-494 178 494h137L966 854l236-623 395 1258h140L1245-12h-88L889 692 626-12h-88zm188 1857q43 0 69-28 25-25 25-66 0-40-25-66-26-28-69-28t-70 28q-24 25-24 67 0 40 24 65 28 28 70 28zm336 0q43 0 69-28 25-25 25-66 0-40-25-66-26-28-69-28t-70 28q-24 25-24 67 0 40 24 65 28 28 70 28z"/><glyph unicode="‑" horiz-adv-x="655" vert-adv-y="2458" d="M97 624v119h461V624H97z"/><glyph unicode="‒" vert-adv-y="2458" d="M158 624v119h915V624H158z"/><glyph unicode="–" vert-adv-y="2458" d="M158 624v119h915V624H158z"/><glyph unicode="—" vert-adv-y="2458" d="M-111 624v119h1452V624H-111z"/><glyph unicode="―" vert-adv-y="2458" d="M-111 624v119h1452V624H-111z"/><glyph unicode="‗" horiz-adv-x="614" vert-adv-y="2458" d="M-101-463v88h819v-88h-819zm0 189v88h819v-88h-819z"/><glyph unicode="‘" horiz-adv-x="426" vert-adv-y="2458" d="M352 1473q-75-20-111-61-34-40-43-112 22 3 35 3 53 0 80-41 16-24 16-54 0-40-28-68-30-30-76-30-61 0-97 51-32 44-32 112 0 107 67 182 63 73 189 93v-75z"/><glyph unicode="’" horiz-adv-x="424" vert-adv-y="2458" d="M74 1178q73 18 108 59 35 40 44 113-26-5-39-5-49 0-76 38-17 25-17 58 0 40 28 69 30 30 76 30 61 0 98-52 32-45 32-112 0-105-68-182-65-72-186-92v76z"/><glyph unicode="‚" horiz-adv-x="424" vert-adv-y="2458" d="M74-133q74 22 108 62 35 40 44 112-26-5-39-5-50 0-76 38-17 24-17 58 0 40 28 67 29 30 76 30 49 0 84-35 46-46 46-129 0-107-70-184-64-70-184-88v74z"/><glyph unicode="“" horiz-adv-x="795" vert-adv-y="2458" d="M352 1473q-75-20-111-61-34-40-43-112 22 3 35 3 53 0 80-41 16-24 16-54 0-40-28-68-30-30-76-30-61 0-97 51-32 44-32 112 0 107 67 182 63 73 189 93v-75zm369 0q-75-20-111-61-34-40-43-112 24 4 38 4 51 0 77-39 16-24 16-56 0-41-28-69-29-30-76-30-61 0-97 51-32 44-32 112 0 106 67 182 64 72 189 93v-75z"/><glyph unicode="”" horiz-adv-x="793" vert-adv-y="2458" d="M445 1178q72 18 107 59 33 39 42 113-25-5-38-5-49 0-76 38-17 25-17 58 0 40 28 68 31 31 78 31 59 0 96-51 32-44 32-113 0-107-69-184-63-70-183-90v76zm-371 0q73 18 108 59 35 40 44 113-26-5-39-5-49 0-76 38-17 25-17 58 0 40 28 69 30 30 76 30 61 0 98-52 32-45 32-112 0-105-68-182-65-72-186-92v76z"/><glyph unicode="„" horiz-adv-x="793" vert-adv-y="2458" d="M445-133q73 22 107 62 33 39 42 112-25-5-38-5-49 0-76 38-17 24-17 58 0 39 27 67 31 30 78 30 61 0 97-50 32-44 32-114 0-109-71-186-63-69-181-86v74zm-371 0q74 22 108 62 35 40 44 112-26-5-39-5-50 0-76 38-17 24-17 58 0 40 28 67 29 30 76 30 49 0 84-35 46-46 46-129 0-107-70-184-64-70-184-88v74z"/><glyph unicode="†" vert-adv-y="2458" d="M239 960l8 111h305v418h125v-418h310V960H677V-205H552V960H239z"/><glyph unicode="‡" vert-adv-y="2458" d="M677 1489v-418h310V960H677V324h314l-8-111H677v-418H552v418H243v111h309v636H239l8 111h305v418h125z"/><glyph unicode="•" vert-adv-y="2458" d="M614 1014q133 0 223-93 84-87 84-214 0-126-84-214-90-93-222-93-134 0-224 93-84 87-84 218 0 125 84 210 92 93 223 93z"/><glyph unicode="…" horiz-adv-x="1843" vert-adv-y="2458" d="M348 203q50 0 82-33 29-30 29-78 0-47-29-77-32-33-81-33-50 0-82 33-29 30-29 79 0 46 29 76 33 33 81 33zm573 0q50 0 82-33 29-30 29-78 0-47-29-77-31-33-81-33t-82 33q-29 30-29 79 0 46 29 76 32 33 81 33zm574 0q50 0 82-33 29-30 29-78 0-47-29-77-32-33-81-33-50 0-82 33-29 30-29 79 0 46 29 76 32 33 81 33z"/><glyph unicode="‰" horiz-adv-x="2185" vert-adv-y="2458" d="M383 1518q126 0 203-78 87-86 87-276 0-191-87-277-77-78-203-78-125 0-202 78-55 54-75 140-12 54-12 140 0 187 87 273 77 78 202 78zm0-96q-93 0-130-69-28-52-28-186 0-154 37-207 38-55 121-55 94 0 131 69 28 52 28 190 0 150-37 203-38 55-122 55zM159 0l1026 1493h125L288 0H159zm930 688q125 0 203-77 86-86 86-277t-86-277q-78-77-203-77T885 57q-54 55-74 141-12 54-12 140 0 186 86 273 78 77 204 77zm0-96q-94 0-131-68-28-53-28-186 0-154 37-207 38-55 121-55 93 0 131 69 28 52 28 189 0 151-37 203-38 55-121 55zm712 96q125 0 203-77 87-86 87-277t-87-277q-78-77-203-77t-203 77q-87 87-87 281 0 186 87 273 77 77 203 77zm0-96q-93 0-131-68-28-52-28-186 0-154 37-207 38-55 122-55 93 0 131 69 28 51 28 189 0 151-37 203-38 55-122 55z"/><glyph unicode="‹" horiz-adv-x="590" vert-adv-y="2458" d="M376 113L104 529v71l272 418h119L247 566l248-453H376z"/><glyph unicode="›" horiz-adv-x="590" vert-adv-y="2458" d="M96 113l248 453-248 452h117l272-416v-71L213 113H96z"/><glyph unicode="‾" horiz-adv-x="614" vert-adv-y="2458" d="M-101 1741v129h819v-129h-819z"/><glyph unicode="⁄" horiz-adv-x="164" vert-adv-y="2458" d="M-539 0L581 1436h121L-416 0h-123z"/><glyph unicode="⁰" horiz-adv-x="778" vert-adv-y="2458" d="M98 995v173q0 168 102 248 73 57 189 57 132 0 208-73 82-79 82-230V998q0-162-100-240-74-58-193-58-136 0-210 72-78 75-78 223zm454-2v179q0 91-36 144-43 63-128 63-84 0-126-62-36-54-36-147V992q0-198 161-198 87 0 131 65 34 51 34 134z"/><glyph unicode="⁴" horiz-adv-x="778" vert-adv-y="2458" d="M72 873v70l414 557h135L226 966h255v263l123 12V966h109v-93H604V720H481v153H72z"/><glyph unicode="⁵" horiz-adv-x="778" vert-adv-y="2458" d="M300 1366l-25-187q47 7 90 7 266 0 266-205 0-190-227-267-89-31-210-40l-78-6v100q150 10 232 41 159 59 159 169 0 115-172 115-71 0-188-26l56 393h434l-13-94H300z"/><glyph unicode="⁶" horiz-adv-x="778" vert-adv-y="2458" d="M224 1128q84 49 190 49 275 0 275-232 0-112-71-176-75-69-216-69-158 0-238 91-71 82-71 262 0 148 59 236 83 125 256 181 66 21 218 35v-98q-92-9-123-16-238-52-279-263zm-2-112v-10l1-5q3-55 19-97 43-110 165-110 78 0 121 46 34 37 34 104 0 63-37 98-44 42-118 42-64 0-125-30-24-11-40-23-20-14-20-15z"/><glyph unicode="⁷" horiz-adv-x="778" vert-adv-y="2458" d="M143 666l406 697H94l15 97h571v-77L286 666H143z"/><glyph unicode="⁸" horiz-adv-x="778" vert-adv-y="2458" d="M541 1109q70-31 99-62 43-46 43-128 0-108-75-162-78-57-215-57-128 0-208 46-91 52-91 168 0 90 56 141 28 25 87 53-41 22-62 42-46 45-46 128 0 86 56 133 73 62 213 62 256 0 256-193 0-84-49-128-24-22-64-43zm-181-47q-141-55-141-145 0-62 55-94 50-29 121-29 88 0 133 47 30 31 30 72 0 61-80 103-26 14-75 31-42 15-43 15zm59 92q24 11 37 18 72 40 72 102 0 40-25 66-38 39-113 39-65 0-104-33-32-26-32-65 0-53 74-91 22-11 59-25 32-12 32-11z"/><glyph unicode="⁹" horiz-adv-x="778" vert-adv-y="2458" d="M134 668v101q110 10 157 22 229 60 261 252-81-46-187-46-141 0-213 66-64 58-64 165 0 109 69 173 77 72 221 72 169 0 246-103 60-81 60-235 0-152-48-236-73-131-256-192-78-25-246-39zm423 490q-3 50-10 78-33 143-174 143-75 0-118-43-39-39-39-107 0-61 35-95 44-44 121-44 63 0 124 28 22 11 40 23 21 15 21 17z"/><glyph unicode="₀" horiz-adv-x="778" vert-adv-y="2458" d="M98 275v173q0 167 102 247 72 57 189 57 132 0 208-73 82-79 82-229V278q0-162-100-240-74-58-193-58-136 0-210 72-78 75-78 223zm454-2v179q0 91-36 143-43 63-128 63-84 0-126-62-36-53-36-146V271q0-197 161-197 87 0 131 64 34 52 34 135z"/><glyph unicode="₁" horiz-adv-x="778" vert-adv-y="2458" d="M154 0v92h196v533l-209-60v97l254 83h73V92h190V0H154z"/><glyph unicode="₂" horiz-adv-x="778" vert-adv-y="2458" d="M110 0v77q179 139 240 192 97 84 134 141 40 60 40 130 0 43-21 69-41 48-123 48-65 0-139-30-37-14-114-61v113q103 73 255 73 268 0 268-211 0-106-62-190-62-85-286-257h366L657 0H110z"/><glyph unicode="₃" horiz-adv-x="778" vert-adv-y="2458" d="M97-52V48q154 8 239 32 188 55 188 165 0 98-129 98-35 0-146-21v100l62 9q83 13 123 35 58 31 58 93 0 36-20 58-36 41-105 41t-142-26q-21-8-94-41v106q120 55 239 55 247 0 247-190 0-77-40-117-15-15-43-31 116-45 116-163 0-126-104-196T264-40q-50-6-167-12z"/><glyph unicode="₄" horiz-adv-x="778" vert-adv-y="2458" d="M72 152v70l414 557h135L226 245h255v264l123 12V245h109v-93H604V0H481v152H72z"/><glyph unicode="₅" horiz-adv-x="778" vert-adv-y="2458" d="M300 646l-25-188q46 7 90 7 266 0 266-205Q631 71 404-7q-89-30-210-40-26-2-78-5V48q151 10 232 40 159 60 159 170 0 114-172 114-71 0-188-25l56 393h434l-13-94H300z"/><glyph unicode="₆" horiz-adv-x="778" vert-adv-y="2458" d="M224 408q83 48 190 48 275 0 275-231 0-112-71-176-75-69-216-69-158 0-238 91-71 81-71 262 0 147 59 236 83 125 256 180 66 22 218 36v-99q-92-8-123-15-238-53-279-263zm-2-113v-10l1-5q3-54 19-96Q285 74 407 74q78 0 121 45 34 38 34 104 0 63-37 98-44 42-118 42-63 0-125-29-23-11-40-23-20-14-20-16z"/><glyph unicode="₇" horiz-adv-x="778" vert-adv-y="2458" d="M143-55l406 698H94l15 97h571v-77L286-55H143z"/><glyph unicode="₈" horiz-adv-x="778" vert-adv-y="2458" d="M541 389q70-32 99-63 43-45 43-127 0-108-75-162-78-57-215-57-129 0-208 46-91 52-91 168 0 89 56 140 28 25 87 54-41 21-62 42-46 44-46 127 0 86 56 134 73 61 213 61 256 0 256-193 0-83-49-128-24-22-64-42zm-181-48q-141-54-141-145 0-61 55-93 51-29 121-29 88 0 133 47 30 31 30 72 0 61-80 102-27 15-75 32-42 15-43 14zm59 92q24 11 37 19 72 40 72 102 0 40-25 65-38 39-113 39-65 0-104-33-32-26-32-65 0-53 74-90 22-12 59-26z"/><glyph unicode="₉" horiz-adv-x="778" vert-adv-y="2458" d="M134-53V48q110 10 157 23 229 60 261 251-81-46-187-46-141 0-213 66-64 58-64 165 0 109 69 173 77 72 221 72 169 0 246-103 60-81 60-235 0-152-48-236Q562 47 380-13q-78-26-246-40zm423 490q-3 50-10 78-33 143-174 143-75 0-118-43-39-39-39-107 0-61 35-95 44-44 121-44 64 0 124 28 22 11 40 24 21 14 21 16z"/><glyph unicode="€" horiz-adv-x="1151" vert-adv-y="2458" d="M82 828v106h158q11 100 25 159 42 191 173 299 131 109 347 109 98 0 179-17 33-7 107-30v-123q-91 29-124 37-83 20-167 20-231 0-321-160-44-77-61-197-4-33-10-97h446V828H386V621h448V515H392q11-97 28-162 40-152 159-217 79-43 219-43 112 0 213 35 15 5 87 32V37Q944-20 787-20q-300 0-438 202-70 103-97 263-4 26-10 70H82v106h154v207H82z"/><glyph unicode="№" vert-adv-y="2458" d="M614 1014q133 0 223-93 84-87 84-214 0-126-84-214-90-93-222-93-134 0-224 93-84 87-84 218 0 125 84 210 92 93 223 93z"/><glyph unicode="™" horiz-adv-x="1030" vert-adv-y="2458" d="M502 1042l10 447h95l125-293 127 293h94v-447h-80v338l-129-293h-45l-123 287-6-332h-68zM76 1430l4 59h340v-59H289v-388h-80v388H76z"/><glyph unicode="Ω" horiz-adv-x="1596" vert-adv-y="2458" d="M676 108V0H70v98h311Q242 214 180 353q-66 146-66 353 0 286 112 484 88 155 233 239 147 85 340 85 270 0 447-165 237-221 237-643 0-207-66-353-62-139-201-255h311V0H921v108h40q135 0 236 125 137 171 137 472 0 268-101 449-68 120-180 187-113 67-254 67-200 0-338-130-197-187-197-573 0-329 160-498 93-99 212-99h40z"/><glyph unicode="∂" vert-adv-y="2458" d="M382 1548h164q234-160 371-368 98-149 140-317 31-123 31-291 0-248-72-383Q962 89 857 28 751-33 614-33 408-33 281 96q-75 75-111 185-30 90-30 239 0 168 43 269 60 143 180 214 107 64 241 64 166 0 277-112-94 206-255 375-91 95-244 218zm235-588q-174 0-260-119-51-71-62-163-8-66-8-144 0-184 30-261Q397 71 616 71q148 0 231 99 68 80 81 183 10 74 10 159 0 167-26 243-70 205-295 205z"/><glyph unicode="∆" vert-adv-y="2458" d="M1276 0H-47l593 1489h142zM142 109h944L612 1315z"/><glyph unicode="∏" vert-adv-y="2458" d="M133-332v112l452 909-416 874v127h906v-102H311l424-892-466-926h876v-102H133z"/><glyph unicode="∑" vert-adv-y="2458" d="M1223 1690v-110h-157V-332H925v1912H305V-332H164v1912H7v110h1216z"/><glyph unicode="−" vert-adv-y="2458" d="M169 655v115h891V655H169z"/><glyph unicode="√" vert-adv-y="2458" d="M496 0L296 690H136v101h275l162-565 491 1544h558v-100h-451L646 0H496z"/><glyph unicode="∞" horiz-adv-x="1720" vert-adv-y="2458" d="M860 624Q704 372 483 372q-154 0-248 106-80 90-80 237 0 168 104 261 91 82 224 82 226 0 377-253 151 253 377 253 154 0 248-106 80-90 80-237 0-168-103-261-92-82-224-82-222 0-378 252zm-69 91l-8 17q-35 72-100 134-96 91-193 91-100 0-157-69-55-65-55-173 0-124 69-189 56-53 141-53 79 0 147 52 64 49 115 115 25 32 35 58zm137 0l6-17q9-27 75-104 105-121 224-121 97 0 155 68 55 66 55 174 0 123-70 189-56 53-142 53-97 0-192-90-71-67-103-135z"/><glyph unicode="∫" horiz-adv-x="614" vert-adv-y="2458" d="M28-335v113q49-16 100-16 75 0 97 73 7 23 9 150v1346q3 162 6 195 16 197 233 197 58 0 109-19v-113q-52 16-98 16-78 0-100-73-7-24-9-151V38q-3-163-6-196-16-196-233-196-59 0-108 19z"/><glyph unicode="≃" vert-adv-y="2458" d="M184 485v115h860V485H184zm93 265l-77 61q110 164 254 164 59 0 183-34 102-29 145-29 76 0 169 102l78-66q-50-69-93-105-73-60-161-60-62 0-185 34-103 29-148 29-73 0-165-96z"/><glyph unicode="≈" vert-adv-y="2458" d="M277 422l-77 61q111 164 254 164 59 0 183-34 104-29 145-29 76 0 170 102l77-65q-49-70-93-106-72-60-161-60-61 0-185 34-102 29-147 29-73 0-166-96zm0 328l-77 61q111 164 254 164 60 0 183-34 103-29 145-29 76 0 170 102l77-66q-49-69-93-105-72-60-161-60-61 0-185 34-103 29-147 29-73 0-166-96z"/><glyph unicode="≠" vert-adv-y="2458" d="M448 485H184v115h318l108 225H184v115h480l122 256 96-41-102-215h264V825H725L618 600h426V485H564L442 229l-96 42z"/><glyph unicode="≤" vert-adv-y="2458" d="M1015 297L184 641v135l831 346V997L290 709l725-287V297zM184 0v119h831V0H184z"/><glyph unicode="≥" vert-adv-y="2458" d="M213 297v125l725 287-725 288v125l831-344V643zm0-297v119h831V0H213z"/><glyph unicode="⋅" horiz-adv-x="614" vert-adv-y="2458" d="M307 792q50 0 82-33 29-30 29-78 0-47-29-77-32-33-81-33-50 0-82 33-29 30-29 79 0 46 29 76 33 33 81 33z"/><glyph unicode="◊" vert-adv-y="2458" d="M615-87L32 744l583 830 583-830zm0 220l425 611-425 610-426-610z"/><glyph unicode="" horiz-adv-x="1055" vert-adv-y="2109" d="M0 1055h1055V0H0v1055z"/><glyph unicode="" horiz-adv-x="173" vert-adv-y="2458" d="M-8 1171l66 377h156L97 1171H-8z"/><glyph unicode="" horiz-adv-x="1024" vert-adv-y="2458" d="M633 1548h118l-163-354H438z"/><glyph unicode="" horiz-adv-x="1024" vert-adv-y="2458" d="M376-430L501-82h121L517-430H376z"/><glyph unicode="" horiz-adv-x="1024" vert-adv-y="2458" d="M417 1171l66 377h156l-117-377H417z"/><glyph unicode="" horiz-adv-x="1024" vert-adv-y="2458" d="M376-430L501-82h121L517-430H376z"/><glyph unicode="" horiz-adv-x="999" vert-adv-y="2458" d="M842 1311q-185 92-344 92-279 0-279-232 0-116 79-190 52-50 206-139 200-116 284-191 132-119 132-291 0-171-121-274Q675-20 454-20 240-20 47 84v127q90-54 163-80 114-42 245-42 178 0 259 81 67 67 67 180 0 128-102 218-66 58-247 162-174 100-244 172-102 105-102 256 0 172 125 269 113 87 294 87 159 0 337-80v-123zM297-430L422-82h121L438-430H297z"/><glyph unicode="" horiz-adv-x="862" vert-adv-y="2458" d="M725 873q-157 79-285 79-197 0-197-158 0-78 53-122 44-37 168-84 163-62 228-119 88-76 88-202 0-137-95-217-97-81-272-81-159 0-317 82v123q80-42 128-60 87-32 189-32 230 0 230 176 0 80-51 124-47 41-174 89-121 46-166 73-140 88-140 240 0 142 106 218 86 61 230 61 147 0 277-65V873zM243-430L368-82h121L384-430H243z"/><glyph unicode="" horiz-adv-x="1024" vert-adv-y="2458" d="M512 1850q45 0 73-29 26-27 26-70 0-42-26-69-28-29-72-29-45 0-73 29-26 27-26 71 0 42 26 68 29 29 72 29z"/><glyph unicode="" horiz-adv-x="1024" vert-adv-y="2458" d="M764 1866q-9-108-71-168-70-68-181-68-112 0-182 68-62 60-70 168h106q21-132 146-132t145 132h107z"/><glyph unicode="" horiz-adv-x="1024" vert-adv-y="2458" d="M682-377q-47-20-103-20-122 0-178 70-36 44-36 107 0 72 51 141 26 34 74 79h86q-42-61-56-86-32-59-32-119 0-96 108-96 42 0 86 16v-92z"/><glyph unicode="" horiz-adv-x="1024" vert-adv-y="2458" d="M376-348L501 0h121L517-348H376z"/><glyph unicode="" horiz-adv-x="1024" vert-adv-y="2458" d="M512 1960q92 0 148-58 50-51 50-130 0-80-50-131-55-58-148-58-94 0-149 58-50 52-50 128 0 83 50 133 57 58 149 58zm0-74q-55 0-85-39-22-29-22-74 0-48 22-77 30-39 85-39 54 0 84 39 22 29 22 76t-22 75q-30 39-84 39z"/><glyph unicode="" horiz-adv-x="1024" vert-adv-y="2458" d="M295 1649l-70 47q79 139 190 139 46 0 116-32 57-27 89-27 63 0 109 71l69-47q-35-62-68-92-51-47-117-47-46 0-117 32-61 27-93 27-60 0-108-71z"/><glyph unicode="" horiz-adv-x="1024" vert-adv-y="2458" d="M223 1612l229 325h119l227-325H682l-170 206-172-206H223z"/><glyph unicode="" horiz-adv-x="471" vert-adv-y="2458" d="M-39-415v110q111 23 160 91 45 64 45 176v1062q71 5 106 47h33V-17q0-172-77-268-62-78-173-110-36-11-94-20z"/><glyph unicode="" horiz-adv-x="1024" vert-adv-y="2458" d="M574 1612H455l147 325h150z"/><glyph unicode="" horiz-adv-x="1024" vert-adv-y="2458" d="M800 1937l-229-325H452l-227 325h117l170-206 172 206h116z"/><glyph unicode="" horiz-adv-x="1024" vert-adv-y="2458" d="M344 1845q43 0 69-28 25-25 25-66 0-40-25-66-26-28-69-28t-70 28q-24 25-24 67 0 40 24 65 28 28 70 28zm336 0q43 0 69-28 25-25 25-66 0-40-25-66-26-28-69-28t-70 28q-24 25-24 67 0 40 24 65 28 28 70 28z"/><glyph unicode="" horiz-adv-x="1024" vert-adv-y="2458" d="M479 1612l-178 325h150l147-325H479z"/><glyph unicode="" horiz-adv-x="1024" vert-adv-y="2458" d="M611 1612l94 325h141l-118-325H611zm-291 0l96 325h142l-121-325H320z"/><glyph unicode="" horiz-adv-x="1024" vert-adv-y="2458" d="M266 1691v113h492v-113H266z"/><glyph unicode="" horiz-adv-x="1145" vert-adv-y="2458" d="M115 539v352q0 309 163 465 117 113 295 113 203 0 326-145 131-154 131-429V545q0-297-159-450Q750-20 567-20q-208 0-327 141-125 147-125 418zm770-4v364q0 466-314 466-309 0-309-470V530q0-446 303-446 320 0 320 451z"/><glyph unicode="" horiz-adv-x="942" vert-adv-y="2458" d="M101 0v100h331v1215L78 1192v100l419 162h72V100h322V0H101z"/><glyph unicode="" horiz-adv-x="1016" vert-adv-y="2458" d="M70 0v82q259 249 384 385 159 172 222 294 69 133 69 302 0 153-73 227-70 72-194 72-183 0-379-145v114q162 138 385 138 191 0 296-103 108-106 108-303 0-192-96-355-92-155-335-396-52-52-215-208h670L902 0H70z"/><glyph unicode="" horiz-adv-x="1044" vert-adv-y="2458" d="M51-82V33q239 14 390 65 163 56 249 145 86 90 86 235 0 136-68 191-65 52-177 52-85 0-222-31v109l100 18q132 24 203 70 59 38 84 92 25 55 25 144 0 242-250 242-117 0-235-45-50-20-128-62v106q187 105 372 105 209 0 310-120 72-85 72-226 0-148-88-227-50-46-158-91 105-10 168-50 135-85 135-270 0-343-418-490-102-36-194-51.5T51-82z"/><glyph unicode="" horiz-adv-x="1085" vert-adv-y="2458" d="M31 332v71l690 1121h139L191 434h532v541l139 16V434h185V332H862V0H723v332H31z"/><glyph unicode="" horiz-adv-x="983" vert-adv-y="2458" d="M309 1340l-56-485q101 28 199 28 206 0 312-101 102-97 102-278 0-343-369-498-142-59-308-77-45-5-126-10V33q128 10 193 23 189 37 322 138 149 114 149 313 0 136-74 202-80 72-252 72-134 0-277-37l82 700h664l-12-104H309z"/><glyph unicode="" horiz-adv-x="1147" vert-adv-y="2458" d="M253 711q153 153 363 153 215 0 331-128 99-110 99-300 0-197-113-321Q811-20 595-20q-245 0-374 178-115 159-115 499 0 236 62 378 124 284 425 416 105 46 225 64 43 6 122 15v-111q-131-15-189-29-231-59-368-238-130-170-130-427v-14zm0-101q0-526 354-526 294 0 294 350 0 156-69 236-78 92-230 92-124 0-234-62-40-22-72-49-43-36-43-41z"/><glyph unicode="" horiz-adv-x="899" vert-adv-y="2458" d="M76-90l671 1423H0l14 111h852v-88L223-90H76z"/><glyph unicode="" horiz-adv-x="1133" vert-adv-y="2458" d="M718 768q150-66 213-127 99-95 99-258 0-185-119-292Q786-20 573-20q-200 0-327 90-144 102-144 306 0 172 122 278 66 57 191 112-105 51-158 102-96 91-96 241 0 147 88 240 114 120 332 120 202 0 309-105 91-89 91-247 0-115-50-187-58-86-213-162zm-202-43l-14-6-7-3-11-5q-81-39-133-85-108-95-108-244 0-163 104-236 90-62 227-62 178 0 259 103 56 72 56 179 0 127-74 200-50 49-149 96-40 19-96 41zm106 84l22 12q72 39 112 77 40 36 58 76 24 53 24 136 0 255-271 255-134 0-204-72-61-63-61-166 0-112 62-176 45-46 141-91 112-54 117-51z"/><glyph unicode="" horiz-adv-x="1147" vert-adv-y="2458" d="M176-82V35q170 18 249 43 270 85 389 309 53 98 67 204 8 61 12 144-154-149-362-149-216 0-333 129Q98 826 98 1013q0 191 110 315 125 141 345 141 263 0 388-203 97-156 97-450 0-279-78-443Q838 115 538-6 423-53 257-73q-20-2-81-9zm717 920v9q0 518-350 518-149 0-227-95-71-86-71-256 0-326 301-326 123 0 231 60 40 22 72 48 44 37 44 42z"/><glyph unicode="ﬀ" horiz-adv-x="1274" vert-adv-y="2458" d="M834 1053v147q0 134 66 223 96 129 294 129h82v-114q-37 8-76 8-124 0-182-77-45-58-45-184v-132h270V947H973V0H834v947H346V0H207v947H41v106h166v147q0 127 59 211 87 123 266 123h82v-115q-36 9-74 9-108 0-156-72-38-56-38-171v-132h488z"/><glyph unicode="ﬁ" horiz-adv-x="1139" vert-adv-y="2458" d="M346 947V0H207v947H41v106h166v147q0 134 59 222 88 130 266 130h82v-115q-37 9-74 9-108 0-156-77-38-61-38-184v-132h455q97 0 129 18h43V0H834v947H346zm555 514q45 0 73-29 26-27 26-70 0-42-26-69-28-29-72-29-45 0-73 29-26 27-26 71 0 42 26 68 29 29 72 29z"/><glyph unicode="ﬂ" horiz-adv-x="1141" vert-adv-y="2458" d="M41 947v106h166v119q0 175 101 272 113 109 351 109 148 0 314-35V0H834v1430q-88 16-184 16-182 0-253-87-32-39-44-97-7-35-7-108v-101h250V947H346V0H207v947H41z"/><glyph unicode="ﬃ" horiz-adv-x="1765" vert-adv-y="2458" d="M834 947H346V0H207v947H41v106h166v147q0 127 59 211 88 123 266 123h82v-115q-37 8-74 8-108 0-156-71-38-56-38-171v-132h488v147q0 134 59 222 87 130 266 130h82v-114q-38 8-74 8-108 0-156-77-38-61-38-184v-132h455q97 0 129 18h43V0h-139v947H973V0H834v947zm695 514q44 0 72-29 26-27 26-70 0-42-26-69-28-29-72-29-45 0-73 29-26 27-26 71 0 41 26 68 29 29 73 29z"/><glyph unicode="ﬄ" horiz-adv-x="1765" vert-adv-y="2458" d="M832 947H346V0H207v947H41v106h166v147q0 127 59 211 87 123 266 123h82v-115q-36 9-74 9-108 0-156-72-38-56-38-171v-132h486v119q0 175 101 272 113 109 350 109 146 0 314-35V0h-139v1430q-88 16-184 16-181 0-251-87-33-39-45-97-7-35-7-108v-101h250V947H971V0H832v947z"/><glyph horiz-adv-x="1284" vert-adv-y="1284"/><glyph horiz-adv-x="492" vert-adv-y="2458"/><glyph vert-adv-y="2458" d="M150 0v82l45 41q303 276 422 403 140 149 198 267 57 118 57 270 0 154-79 227-77 72-213 72-198 0-399-139v108q168 137 407 137 199 0 313-103 114-104 114-302 0-193-103-356-98-155-357-395-44-41-211-191l-19-17h717L1031 0H150z"/><glyph vert-adv-y="2458" d="M126-81V33q255 14 415 65 175 56 268 144 94 91 94 237 0 135-75 190-69 52-193 52-91 0-233-29v107l104 18q143 25 219 70 63 38 90 91 28 55 28 145 0 241-273 241-179 0-383-102v102q190 104 393 104 220 0 327-119 77-85 77-226 0-161-113-243-48-35-148-75 78-8 116-21 103-35 158-118 49-75 49-181 0-343-446-490-108-35-206.5-51T126-81z"/><glyph vert-adv-y="2458" d="M82 332v71l739 1120h140L243 434h581v541l139 15V434h197V332H963V0H824v332H82z"/><glyph vert-adv-y="2458" d="M414 1340l-60-488q108 31 219 31 217 0 330-101 108-97 108-278 0-344-394-498-151-59-328-77-47-5-128-10V33q139 11 204 23 203 37 346 138 161 114 161 314 0 135-81 202-86 71-273 71-144 0-291-35l88 698h700l-13-104H414z"/><glyph vert-adv-y="2458" d="M267 702q72 67 137 102 115 60 257 60 226 0 349-127 106-111 106-301 0-197-120-321Q866-20 638-20q-258 0-396 178-123 159-123 488 0 279 101 459 141 250 452 359 134 48 330 65v-110q-138-12-231-38-303-83-429-325-75-145-75-331v-23zm0-92q0-7 1-33 5-154 38-252Q388 84 651 84q320 0 320 350 0 157-75 236-86 92-251 92-135 0-254-62-42-22-77-49-47-36-47-41z"/><glyph vert-adv-y="2458" d="M246-90l737 1424H130l15 110h956v-88L394-90H246z"/><glyph vert-adv-y="2458" d="M962 746q-72-68-137-102-115-60-257-60-226 0-349 127-106 111-106 301 0 198 120 322 129 134 355 134 261 0 399-178 123-159 123-488 0-279-101-459Q868 93 557-17 422-64 227-81V29q138 12 231 38 303 83 429 325 75 145 75 331v23zm0 91q0 8-1 34-5 153-38 252-83 241-344 241-167 0-249-100-72-88-72-249 0-158 75-237 86-92 251-92 135 0 253 62 43 22 78 49 47 36 47 40z"/><glyph vert-adv-y="2458" d="M774 768q114-48 170-84 92-59 130-140 32-66 32-161 0-185-127-292Q847-20 622-20q-212 0-347 90-153 102-153 306 0 150 94 245 78 80 240 145-106 47-162 96-108 93-108 247 0 148 93 239 123 120 351 120 211 0 327-105 96-87 96-246 0-139-81-222-66-67-198-127zm-214-42q-97-41-146-74-151-103-151-274 0-159 113-232 98-62 247-62 193 0 281 103 61 71 61 179 0 127-80 200-62 56-198 112-43 17-127 48zm115 81q73 37 113 65 59 40 87 85 35 56 35 153 0 254-294 254-146 0-223-72-66-62-66-165 0-113 68-177 64-60 280-143z"/><glyph horiz-adv-x="1065" vert-adv-y="2458" d="M86 674v98h156v297q0 202 117 307 102 93 290 93 114 0 198-28 29-10 79-34v-115q-70 34-108 46-77 24-167 24-270 0-270-283V772h344v-98H381V106h594L963 0H86v106h156v568H86z"/><glyph horiz-adv-x="1065" vert-adv-y="2458" d="M338-252l33 240Q213 8 80 80v121q147-86 305-109l84 610q-164 94-226 149-126 113-126 267 0 170 136 267 118 84 284 84 20 0 40-2l19 147h103l-23-158q99-18 207-65v-117q-117 54-221 76l-80-568q166-93 232-149 139-120 139-278 0-146-100-247Q726-20 471-21l-30-231H338zM486 86q143 5 215 49 117 73 117 209 0 114-99 201-47 41-156 104zm75 1276q-118 1-191-34-124-59-124-202 0-109 87-187 46-40 155-103z"/><glyph horiz-adv-x="942" vert-adv-y="2458" d="M284-293L360 4Q250 57 191 143q-87 129-87 363 0 274 131 408 118 121 315 121 30 0 76-5l53 207h105l-58-223q53-16 109-41V850q-83 40-137 58L485 84q39-6 76-6 93 0 182 33 43 15 117 53V47Q773 9 741-1q-94-32-180-32-45 0-103 10l-69-270H284zM597 924q-17 2-37 2-158 0-235-87-49-54-67-150-13-70-13-194 0-152 25-224 35-101 119-154z"/><glyph horiz-adv-x="819" vert-adv-y="2458" d="M143 738v102h182l37 262q48 342 384 342h73v-111q-32 9-68 9-223 0-253-228l-37-274h260V738H446L299-381H163L313 738H143z"/><glyph horiz-adv-x="1147" vert-adv-y="2458" d="M63 812v106h158q11 93 25 154 40 184 173 291 131 106 346 106 136 0 287-48v-122q-90 28-124 37-82 20-167 20-230 0-321-154-44-74-61-190-4-33-10-94h446V812H367V621h448V515H373q11-97 28-162 40-152 159-217 79-43 219-43 112 0 213 35 15 5 87 32V37Q925-20 768-20q-300 0-438 202-70 103-97 263-4 26-10 70H63v106h154v191H63z"/><glyph vert-adv-y="2458" d="M158 557v102h382L77 1444h150l412-706 373 706h141L719 659h381V557H699V372h401V270H699V0H562v270H158v102h404v185H158z"/><glyph horiz-adv-x="1065" vert-adv-y="2458" d="M103 557v102h356L27 1444h150l378-697 345 697h141L635 659h357V557H617V372h375V270H617V0H480v270H103v102h377v185H103z"/><glyph vert-adv-y="2458" d="M73 811v106h169q12 94 27 154 42 184 184 291 139 106 367 106 154 0 302-47v-120q-86 26-126 35-88 20-180 20-251 0-350-155-48-76-67-202-4-30-9-82h478V811H388V620h480V514H395q9-80 23-137 42-173 179-242 85-43 237-43 123 0 232 35 17 5 85 29V37Q995-20 824-20q-317 0-466 202-74 100-102 262-5 26-11 70H73v106h165v191H73z"/><glyph vert-adv-y="2458" d="M312 737v102h195l40 263q51 342 405 342h74v-109q-29 7-70 7-242 0-275-228l-40-275h279V737H626L468-381H334L494 737H312z"/><glyph vert-adv-y="2458" d="M420-293L501 3Q387 54 326 136q-48 62-70 134-29 93-29 234 0 274 140 410 125 120 333 120 35 0 86-4l58 207h101l-61-223q73-21 116-41V854q-78 35-146 56L625 84q45-7 87-7 146 0 314 82V47Q846-33 712-33q-42 0-115 12l-75-272H420zM756 924q-22 2-47 2-170 0-254-86-54-55-73-151-14-71-14-191 0-146 24-219 29-84 85-131 20-16 54-36z"/><glyph vert-adv-y="2458" d="M412-252l35 239Q272 8 135 80v116q148-80 327-105l90 611q-148 78-219 130-159 119-159 286 0 168 144 266 125 84 297 84 20 0 52-2l21 148h99l-24-157q119-20 222-66v-113q-123 52-237 73l-86-568q162-84 234-138 164-124 164-290 0-169-138-274Q786-21 544-21l-33-231h-99zM559 85q121 5 180 24 97 31 147 103 40 57 40 132 0 124-128 217-48 35-155 93zm92 1277q-349 0-349-236 0-118 112-200 51-39 157-95z"/><glyph vert-adv-y="2458" d="M141 674v98h167v297q0 201 125 307 109 92 306 92 161 0 291-61v-111q-66 29-108 42-83 24-181 24-294 0-294-283V772h368v-98H447V106h636L1070 0H141v106h167v568H141z"/><glyph vert-adv-y="2458" d="M115 557v334q0 228 102 376 137 201 397 201 261 0 398-201 102-148 102-376V557q0-228-102-376Q875-20 614-20q-260 0-397 201-102 148-102 376zm851-4v342q0 469-352 469-351 0-351-469V553q0-469 351-469 352 0 352 469z"/><glyph vert-adv-y="2458" d="M153 0v100h425v1218l-380-123v97l448 162h69V100h373V0H153z"/><glyph horiz-adv-x="492" vert-adv-y="2458"/></font>
</defs>
</svg>
